# PUBLIC SHELL OBJ - display only, not CAD source
# Precision intentionally degraded; multi-part structure removed
o shell
v 429.134 30.553 4.833
v 468.249 30.54 5.263
v 468.294 28.374 4.846
v 429.164 34.751 43.76
v 468.3 34.754 43.542
v 468.288 36.724 42.657
v 624.356 34.728 6.81
v 624.368 32.538 6.376
v 546.31 32.53 6.15
v 546.305 19.775 44.401
v 546.295 23.945 44.396
v 468.248 23.944 45.275
v 390.2 21.745 46.154
v 390.251 19.361 45.739
v 468.29 19.577 45.076
v 546.298 7.459 40.221
v 468.3 7.932 40.244
v 468.278 6.158 38.695
v 468.3 7.932 40.244
v 546.298 7.459 40.221
v 468.268 9.449 41.548
v 429.122 13.177 6.365
v 468.29 13.201 6.383
v 468.305 11.453 7.27
v 429.122 13.177 6.365
v 390.215 13.181 6.148
v 390.201 15.15 5.262
v 429.145 17.37 4.838
v 390.198 17.346 4.601
v 390.228 19.345 4.176
v 546.297 7.458 9.881
v 624.381 7.485 9.9
v 624.377 5.723 11.437
v 624.376 17.594 6.16
v 624.37 15.392 6.377
v 546.327 15.393 6.159
v 234.164 44.647 31.451
v 312.17 45.059 31.212
v 234.115 45.053 29.228
v 234.115 45.053 29.228
v 312.17 45.059 31.212
v 312.212 45.529 29.254
v 234.115 45.053 29.228
v 312.212 45.529 29.254
v 234.131 45.504 27.258
v 78.072 43.328 29.473
v 78.019 42.851 31.425
v 156.114 43.765 31.449
v 156.079 44.62 25.056
v 78.022 43.513 25.051
v 156.121 44.43 27.276
v 156.121 44.43 27.276
v 78.022 43.513 25.051
v 78.072 43.328 29.473
v 156.121 44.43 27.276
v 78.072 43.328 29.473
v 156.069 44.174 29.229
v 156.069 44.174 29.229
v 78.072 43.328 29.473
v 156.114 43.765 31.449
v 156.114 43.765 31.449
v 234.164 44.647 31.451
v 156.069 44.174 29.229
v 156.069 44.174 29.229
v 234.164 44.647 31.451
v 234.115 45.053 29.228
v 156.069 44.174 29.229
v 234.115 45.053 29.228
v 156.121 44.43 27.276
v 156.121 44.43 27.276
v 234.115 45.053 29.228
v 234.131 45.504 27.258
v 156.121 44.43 27.276
v 234.131 45.504 27.258
v 156.079 44.62 25.056
v -0.03 41.75 33.622
v 78.019 42.851 31.425
v -0.001 42.65 29.459
v -0.001 42.65 29.459
v 78.019 42.851 31.425
v 78.072 43.328 29.473
v -0.001 42.65 29.459
v 78.072 43.328 29.473
v 0.017 43.102 25.071
v 0.017 43.102 25.071
v 78.072 43.328 29.473
v 78.022 43.513 25.051
v 0.017 43.102 25.071
v 78.022 43.513 25.051
v -0.015 42.64 20.658
v 312.157 3.499 16.695
v 234.126 3.949 16.703
v 312.205 4.632 14.74
v 312.205 4.632 14.74
v 234.126 3.949 16.703
v 234.115 4.821 14.718
v 312.205 4.632 14.74
v 234.115 4.821 14.718
v 312.173 5.489 12.966
v 312.173 5.489 12.966
v 234.115 4.821 14.718
v 234.125 5.927 12.745
v 312.173 5.489 12.966
v 234.125 5.927 12.745
v 312.183 6.815 11.212
v 312.183 6.815 11.212
v 234.125 5.927 12.745
v 234.122 7.024 10.984
v 312.183 6.815 11.212
v 234.122 7.024 10.984
v 312.196 8.143 9.68
v 312.196 8.143 9.68
v 234.122 7.024 10.984
v 234.149 8.582 9.459
v 312.196 8.143 9.68
v 234.149 8.582 9.459
v 312.196 9.902 8.14
v 312.196 9.902 8.14
v 234.149 8.582 9.459
v 234.142 10.116 7.917
v 312.196 9.902 8.14
v 234.142 10.116 7.917
v 312.156 11.413 7.022
v 312.156 11.413 7.022
v 234.142 10.116 7.917
v 234.159 11.667 6.606
v 312.156 11.413 7.022
v 234.159 11.667 6.606
v 312.194 13.199 5.722
v 312.194 13.199 5.722
v 234.159 11.667 6.606
v 234.147 13.417 5.501
v 312.194 13.199 5.722
v 234.147 13.417 5.501
v 312.202 15.183 4.846
v 312.202 15.183 4.846
v 234.147 13.417 5.501
v 234.126 15.381 4.391
v 312.202 15.183 4.846
v 234.126 15.381 4.391
v 312.201 17.161 4.186
v 312.201 17.161 4.186
v 234.126 15.381 4.391
v 234.169 17.39 3.533
v 312.201 17.161 4.186
v 234.169 17.39 3.533
v 312.174 19.34 3.513
v 312.174 19.34 3.513
v 234.169 17.39 3.533
v 234.132 19.343 3.075
v 312.174 19.34 3.513
v 234.132 19.343 3.075
v 312.19 21.549 3.081
v 312.19 21.549 3.081
v 234.132 19.343 3.075
v 234.113 21.748 2.626
v 312.19 21.549 3.081
v 234.113 21.748 2.626
v 312.168 23.953 3.07
v 312.168 23.953 3.07
v 234.113 21.748 2.626
v 234.136 23.962 2.417
v 312.168 23.953 3.07
v 234.136 23.962 2.417
v 312.209 26.4 3.091
v 312.209 26.4 3.091
v 234.136 23.962 2.417
v 234.11 26.362 2.624
v 312.209 26.4 3.091
v 234.11 26.362 2.624
v 312.189 28.584 3.52
v 312.189 28.584 3.52
v 234.11 26.362 2.624
v 234.138 28.58 3.078
v 312.189 28.584 3.52
v 234.138 28.58 3.078
v 312.214 30.8 4.192
v 312.214 30.8 4.192
v 234.138 28.58 3.078
v 234.141 30.561 3.519
v 312.214 30.8 4.192
v 234.141 30.561 3.519
v 312.2 32.769 4.845
v 312.2 32.769 4.845
v 234.141 30.561 3.519
v 234.109 32.737 4.383
v 312.2 32.769 4.845
v 234.109 32.737 4.383
v 312.184 34.736 5.716
v 312.184 34.736 5.716
v 234.109 32.737 4.383
v 234.143 34.52 5.499
v 312.184 34.736 5.716
v 234.143 34.52 5.499
v 312.163 36.48 7.025
v 312.163 36.48 7.025
v 234.143 34.52 5.499
v 234.143 36.279 6.598
v 312.163 36.48 7.025
v 234.143 36.279 6.598
v 312.186 38.255 8.136
v 312.186 38.255 8.136
v 234.143 36.279 6.598
v 234.109 38.013 7.9
v 312.186 38.255 8.136
v 234.109 38.013 7.9
v 312.199 39.803 9.681
v 312.199 39.803 9.681
v 234.109 38.013 7.9
v 234.155 39.585 9.462
v 312.199 39.803 9.681
v 234.155 39.585 9.462
v 312.182 41.111 11.212
v 312.182 41.111 11.212
v 234.155 39.585 9.462
v 234.123 40.881 10.985
v 312.182 41.111 11.212
v 234.123 40.881 10.985
v 312.179 42.427 12.969
v 312.179 42.427 12.969
v 234.123 40.881 10.985
v 234.128 41.984 12.747
v 312.179 42.427 12.969
v 234.128 41.984 12.747
v 312.188 43.533 14.732
v 312.188 43.533 14.732
v 234.128 41.984 12.747
v 234.11 43.071 14.716
v 312.188 43.533 14.732
v 234.11 43.071 14.716
v 312.18 44.407 16.707
v 312.18 44.407 16.707
v 234.11 43.071 14.716
v 234.147 43.976 16.713
v 312.18 44.407 16.707
v 234.147 43.976 16.713
v 312.175 45.063 18.683
v 312.175 45.063 18.683
v 234.147 43.976 16.713
v 234.125 44.62 18.681
v 312.175 45.063 18.683
v 234.125 44.62 18.681
v 312.194 45.516 20.891
v 312.194 45.516 20.891
v 234.125 44.62 18.681
v 234.143 45.073 20.669
v 312.194 45.516 20.891
v 234.143 45.073 20.669
v 312.198 45.958 22.872
v 312.198 45.958 22.872
v 234.143 45.073 20.669
v 234.119 45.496 22.855
v 312.198 45.958 22.872
v 234.119 45.496 22.855
v 312.192 45.954 25.067
v 312.192 45.954 25.067
v 234.119 45.496 22.855
v 234.145 45.514 25.066
v 312.192 45.954 25.067
v 234.145 45.514 25.066
v 312.214 45.969 27.056
v 234.126 3.949 16.703
v 156.111 4.85 16.498
v 234.115 4.821 14.718
v 234.115 4.821 14.718
v 156.111 4.85 16.498
v 156.082 5.709 14.505
v 234.115 4.821 14.718
v 156.082 5.709 14.505
v 234.125 5.927 12.745
v 234.125 5.927 12.745
v 156.082 5.709 14.505
v 156.091 6.595 12.531
v 234.125 5.927 12.745
v 156.091 6.595 12.531
v 234.122 7.024 10.984
v 234.122 7.024 10.984
v 156.091 6.595 12.531
v 156.113 7.71 10.783
v 234.122 7.024 10.984
v 156.113 7.71 10.783
v 234.149 8.582 9.459
v 234.149 8.582 9.459
v 156.113 7.71 10.783
v 156.095 9.016 9.016
v 234.149 8.582 9.459
v 156.095 9.016 9.016
v 234.142 10.116 7.917
v 234.142 10.116 7.917
v 156.095 9.016 9.016
v 156.086 10.548 7.472
v 234.142 10.116 7.917
v 156.086 10.548 7.472
v 234.159 11.667 6.606
v 234.159 11.667 6.606
v 156.086 10.548 7.472
v 156.11 12.105 5.945
v 234.159 11.667 6.606
v 156.11 12.105 5.945
v 234.147 13.417 5.501
v 234.147 13.417 5.501
v 156.11 12.105 5.945
v 156.076 13.84 4.609
v 234.147 13.417 5.501
v 156.076 13.84 4.609
v 234.126 15.381 4.391
v 234.126 15.381 4.391
v 156.076 13.84 4.609
v 156.097 15.613 3.52
v 234.126 15.381 4.391
v 156.097 15.613 3.52
v 234.169 17.39 3.533
v 234.169 17.39 3.533
v 156.097 15.613 3.52
v 156.08 17.58 2.632
v 234.169 17.39 3.533
v 156.08 17.58 2.632
v 234.132 19.343 3.075
v 234.132 19.343 3.075
v 156.08 17.58 2.632
v 156.081 19.559 2.193
v 234.132 19.343 3.075
v 156.081 19.559 2.193
v 234.113 21.748 2.626
v 234.113 21.748 2.626
v 156.081 19.559 2.193
v 156.091 21.764 1.758
v 234.113 21.748 2.626
v 156.091 21.764 1.758
v 234.136 23.962 2.417
v 234.136 23.962 2.417
v 156.091 21.764 1.758
v 156.113 23.978 1.549
v 234.136 23.962 2.417
v 156.113 23.978 1.549
v 234.11 26.362 2.624
v 234.11 26.362 2.624
v 156.113 23.978 1.549
v 156.067 26.144 1.746
v 234.11 26.362 2.624
v 156.067 26.144 1.746
v 234.138 28.58 3.078
v 234.138 28.58 3.078
v 156.067 26.144 1.746
v 156.115 28.377 2.21
v 234.138 28.58 3.078
v 156.115 28.377 2.21
v 234.141 30.561 3.519
v 234.141 30.561 3.519
v 156.115 28.377 2.21
v 156.092 30.339 2.638
v 234.141 30.561 3.519
v 156.092 30.339 2.638
v 234.109 32.737 4.383
v 234.109 32.737 4.383
v 156.092 30.339 2.638
v 156.082 32.311 3.513
v 234.109 32.737 4.383
v 156.082 32.311 3.513
v 234.143 34.52 5.499
v 234.143 34.52 5.499
v 156.082 32.311 3.513
v 156.108 34.307 4.625
v 234.143 34.52 5.499
v 156.108 34.307 4.625
v 234.143 36.279 6.598
v 234.143 36.279 6.598
v 156.108 34.307 4.625
v 156.095 36.057 5.937
v 234.143 36.279 6.598
v 156.095 36.057 5.937
v 234.109 38.013 7.9
v 234.109 38.013 7.9
v 156.095 36.057 5.937
v 156.061 37.573 7.46
v 234.109 38.013 7.9
v 156.061 37.573 7.46
v 234.155 39.585 9.462
v 234.155 39.585 9.462
v 156.061 37.573 7.46
v 156.096 38.916 9.016
v 234.155 39.585 9.462
v 156.096 38.916 9.016
v 234.123 40.881 10.985
v 234.123 40.881 10.985
v 156.096 38.916 9.016
v 156.106 40.242 10.78
v 234.123 40.881 10.985
v 156.106 40.242 10.78
v 234.128 41.984 12.747
v 234.128 41.984 12.747
v 156.106 40.242 10.78
v 156.086 41.327 12.529
v 234.128 41.984 12.747
v 156.086 41.327 12.529
v 234.11 43.071 14.716
v 234.11 43.071 14.716
v 156.086 41.327 12.529
v 156.091 42.43 14.51
v 234.11 43.071 14.716
v 156.091 42.43 14.51
v 234.147 43.976 16.713
v 234.147 43.976 16.713
v 156.091 42.43 14.51
v 156.115 43.106 16.5
v 234.147 43.976 16.713
v 156.115 43.106 16.5
v 234.125 44.62 18.681
v 234.125 44.62 18.681
v 156.115 43.106 16.5
v 156.087 43.746 18.685
v 234.125 44.62 18.681
v 156.087 43.746 18.685
v 234.143 45.073 20.669
v 234.143 45.073 20.669
v 156.087 43.746 18.685
v 156.093 44.19 20.666
v 234.143 45.073 20.669
v 156.093 44.19 20.666
v 234.119 45.496 22.855
v 234.119 45.496 22.855
v 156.093 44.19 20.666
v 156.117 44.427 22.877
v 234.119 45.496 22.855
v 156.117 44.427 22.877
v 234.145 45.514 25.066
v 312.18 44.406 33.195
v 234.16 43.985 33.428
v 312.158 43.512 35.163
v 312.158 43.512 35.163
v 234.16 43.985 33.428
v 234.114 43.074 35.384
v 312.158 43.512 35.163
v 234.114 43.074 35.384
v 312.155 42.411 37.14
v 312.155 42.411 37.14
v 234.114 43.074 35.384
v 234.162 42.008 37.167
v 312.155 42.411 37.14
v 234.162 42.008 37.167
v 312.186 41.114 38.695
v 312.186 41.114 38.695
v 234.162 42.008 37.167
v 234.15 40.9 38.919
v 312.186 41.114 38.695
v 234.15 40.9 38.919
v 312.173 39.785 40.447
v 312.173 39.785 40.447
v 234.15 40.9 38.919
v 234.147 39.579 40.677
v 312.173 39.785 40.447
v 234.147 39.579 40.677
v 312.181 38.252 41.77
v 312.181 38.252 41.77
v 234.147 39.579 40.677
v 234.153 38.045 42.219
v 312.181 38.252 41.77
v 234.153 38.045 42.219
v 312.187 36.497 43.092
v 312.187 36.497 43.092
v 234.153 38.045 42.219
v 234.146 36.28 43.534
v 312.187 36.497 43.092
v 234.146 36.28 43.534
v 312.206 34.751 44.2
v 312.206 34.751 44.2
v 234.146 36.28 43.534
v 234.137 34.516 44.629
v 312.206 34.751 44.2
v 234.137 34.516 44.629
v 312.176 32.752 45.285
v 312.176 32.752 45.285
v 234.137 34.516 44.629
v 234.107 32.736 45.493
v 312.176 32.752 45.285
v 234.107 32.736 45.493
v 312.209 30.797 45.961
v 312.209 30.797 45.961
v 234.107 32.736 45.493
v 234.145 30.564 46.392
v 312.209 30.797 45.961
v 234.145 30.564 46.392
v 312.207 28.596 46.619
v 312.207 28.596 46.619
v 234.145 30.564 46.392
v 234.147 28.587 47.052
v 312.207 28.596 46.619
v 234.147 28.587 47.052
v 312.189 26.386 46.83
v 312.189 26.386 46.83
v 234.147 28.587 47.052
v 234.155 26.394 47.276
v 312.189 26.386 46.83
v 234.155 26.394 47.276
v 312.163 23.949 47.037
v 312.163 23.949 47.037
v 234.155 26.394 47.276
v 234.12 23.951 47.478
v 312.163 23.949 47.037
v 234.12 23.951 47.478
v 312.195 21.553 46.833
v 312.195 21.553 46.833
v 234.12 23.951 47.478
v 234.159 21.78 47.278
v 312.195 21.553 46.833
v 234.159 21.78 47.278
v 312.209 19.364 46.62
v 312.209 19.364 46.62
v 234.159 21.78 47.278
v 234.135 19.345 47.046
v 312.209 19.364 46.62
v 234.135 19.345 47.046
v 312.162 17.133 45.937
v 312.162 17.133 45.937
v 234.135 19.345 47.046
v 234.131 17.363 46.384
v 312.162 17.133 45.937
v 234.131 17.363 46.384
v 312.179 15.167 45.287
v 312.179 15.167 45.287
v 234.131 17.363 46.384
v 234.138 15.389 45.509
v 312.179 15.167 45.287
v 234.138 15.389 45.509
v 312.175 13.185 44.185
v 312.175 13.185 44.185
v 234.138 15.389 45.509
v 234.123 13.4 44.622
v 312.175 13.185 44.185
v 234.123 13.4 44.622
v 312.196 11.441 43.096
v 312.196 11.441 43.096
v 234.123 13.4 44.622
v 234.152 11.662 43.537
v 312.196 11.441 43.096
v 234.152 11.662 43.537
v 312.209 9.911 41.784
v 312.209 9.911 41.784
v 234.152 11.662 43.537
v 234.12 10.101 42.202
v 312.209 9.911 41.784
v 234.12 10.101 42.202
v 312.165 8.121 40.443
v 312.165 8.121 40.443
v 234.12 10.101 42.202
v 234.155 8.586 40.68
v 312.165 8.121 40.443
v 234.155 8.586 40.68
v 312.208 6.832 38.705
v 312.208 6.832 38.705
v 234.155 8.586 40.68
v 234.168 7.056 38.928
v 312.208 6.832 38.705
v 234.168 7.056 38.928
v 312.174 5.49 37.15
v 312.174 5.49 37.15
v 234.168 7.056 38.928
v 234.109 5.916 37.14
v 312.174 5.49 37.15
v 234.109 5.916 37.14
v 312.175 4.611 35.171
v 312.175 4.611 35.171
v 234.109 5.916 37.14
v 234.128 4.83 35.391
v 312.175 4.611 35.171
v 234.128 4.83 35.391
v 312.2 3.529 33.205
v 312.2 3.529 33.205
v 234.128 4.83 35.391
v 234.127 3.95 33.412
v 312.2 3.529 33.205
v 234.127 3.95 33.412
v 312.193 2.865 31.223
v 312.193 2.865 31.223
v 234.127 3.95 33.412
v 234.118 3.284 31.429
v 312.193 2.865 31.223
v 234.118 3.284 31.429
v 312.175 2.412 29.235
v 312.175 2.412 29.235
v 234.118 3.284 31.429
v 234.126 2.85 29.234
v 312.175 2.412 29.235
v 234.126 2.85 29.234
v 312.177 2.194 27.038
v 312.177 2.194 27.038
v 234.126 2.85 29.234
v 234.151 2.647 27.268
v 312.177 2.194 27.038
v 234.151 2.647 27.268
v 312.211 1.998 25.076
v 312.211 1.998 25.076
v 234.151 2.647 27.268
v 234.132 2.415 25.06
v 312.211 1.998 25.076
v 234.132 2.415 25.06
v 312.184 2.199 22.865
v 312.192 2.864 18.691
v 312.163 2.404 20.875
v 234.128 2.852 20.661
v 234.128 2.852 20.661
v 312.163 2.404 20.875
v 234.149 2.646 22.87
v 234.128 2.852 20.661
v 234.149 2.646 22.87
v 156.064 3.498 22.85
v 156.064 3.498 22.85
v 234.149 2.646 22.87
v 156.104 3.526 25.069
v 156.064 3.498 22.85
v 156.104 3.526 25.069
v 78.056 4.404 25.068
v 234.115 3.282 18.676
v 156.12 3.757 20.68
v 156.086 4.173 18.684
v 156.086 4.173 18.684
v 156.12 3.757 20.68
v 78.034 4.608 20.66
v 156.086 4.173 18.684
v 78.034 4.608 20.66
v 78.03 5.045 18.459
v 156.111 4.85 16.498
v 78.032 5.706 16.481
v 156.082 5.709 14.505
v 156.082 5.709 14.505
v 78.032 5.706 16.481
v 78.046 6.376 14.29
v 156.082 5.709 14.505
v 78.046 6.376 14.29
v 156.091 6.595 12.531
v 156.091 6.595 12.531
v 78.046 6.376 14.29
v 78.018 7.235 12.297
v 156.091 6.595 12.531
v 78.018 7.235 12.297
v 156.113 7.71 10.783
v 156.113 7.71 10.783
v 78.018 7.235 12.297
v 78.047 8.355 10.553
v 156.113 7.71 10.783
v 78.047 8.355 10.553
v 156.095 9.016 9.016
v 156.095 9.016 9.016
v 78.047 8.355 10.553
v 78.065 9.467 8.584
v 156.095 9.016 9.016
v 78.065 9.467 8.584
v 156.086 10.548 7.472
v 156.086 10.548 7.472
v 78.065 9.467 8.584
v 78.022 10.756 7.023
v 156.086 10.548 7.472
v 78.022 10.756 7.023
v 156.11 12.105 5.945
v 156.11 12.105 5.945
v 78.022 10.756 7.023
v 78.027 12.298 5.487
v 156.11 12.105 5.945
v 78.027 12.298 5.487
v 156.076 13.84 4.609
v 156.076 13.84 4.609
v 78.027 12.298 5.487
v 78.028 14.058 3.948
v 156.076 13.84 4.609
v 78.028 14.058 3.948
v 156.097 15.613 3.52
v 156.097 15.613 3.52
v 78.028 14.058 3.948
v 78.036 15.822 2.853
v 156.097 15.613 3.52
v 78.036 15.822 2.853
v 156.08 17.58 2.632
v 156.08 17.58 2.632
v 78.036 15.822 2.853
v 78.036 17.801 1.974
v 156.08 17.58 2.632
v 78.036 17.801 1.974
v 156.081 19.559 2.193
v 156.081 19.559 2.193
v 78.036 17.801 1.974
v 78.066 20.02 1.109
v 156.081 19.559 2.193
v 78.066 20.02 1.109
v 156.091 21.764 1.758
v 156.091 21.764 1.758
v 78.066 20.02 1.109
v 78.035 21.977 0.874
v 156.091 21.764 1.758
v 78.035 21.977 0.874
v 156.113 23.978 1.549
v 156.113 23.978 1.549
v 78.035 21.977 0.874
v 78.051 23.967 0.662
v 156.113 23.978 1.549
v 78.051 23.967 0.662
v 156.067 26.144 1.746
v 156.067 26.144 1.746
v 78.051 23.967 0.662
v 78.06 25.952 0.887
v 156.067 26.144 1.746
v 78.06 25.952 0.887
v 156.115 28.377 2.21
v 156.115 28.377 2.21
v 78.06 25.952 0.887
v 78.069 28.157 1.111
v 156.115 28.377 2.21
v 78.069 28.157 1.111
v 156.092 30.339 2.638
v 156.092 30.339 2.638
v 78.069 28.157 1.111
v 78.019 30.1 1.965
v 156.092 30.339 2.638
v 78.019 30.1 1.965
v 156.082 32.311 3.513
v 156.082 32.311 3.513
v 78.019 30.1 1.965
v 78.037 32.091 2.853
v 156.082 32.311 3.513
v 78.037 32.091 2.853
v 156.108 34.307 4.625
v 156.108 34.307 4.625
v 78.037 32.091 2.853
v 78.027 33.843 3.948
v 156.108 34.307 4.625
v 78.027 33.843 3.948
v 156.095 36.057 5.937
v 156.095 36.057 5.937
v 78.027 33.843 3.948
v 78.016 35.594 5.481
v 156.095 36.057 5.937
v 78.016 35.594 5.481
v 156.061 37.573 7.46
v 156.061 37.573 7.46
v 78.016 35.594 5.481
v 78.073 37.173 7.049
v 156.061 37.573 7.46
v 78.073 37.173 7.049
v 156.096 38.916 9.016
v 156.096 38.916 9.016
v 78.073 37.173 7.049
v 78.026 38.459 8.564
v 156.096 38.916 9.016
v 78.026 38.459 8.564
v 156.106 40.242 10.78
v 156.106 40.242 10.78
v 78.026 38.459 8.564
v 78.066 39.806 10.563
v 156.106 40.242 10.78
v 78.066 39.806 10.563
v 156.086 41.327 12.529
v 156.086 41.327 12.529
v 78.066 39.806 10.563
v 78.057 40.679 12.317
v 156.086 41.327 12.529
v 78.057 40.679 12.317
v 156.091 42.43 14.51
v 156.091 42.43 14.51
v 78.057 40.679 12.317
v 78.055 41.558 14.295
v 156.091 42.43 14.51
v 78.055 41.558 14.295
v 156.115 43.106 16.5
v 156.115 43.106 16.5
v 78.055 41.558 14.295
v 78.029 42.419 16.48
v 156.115 43.106 16.5
v 78.029 42.419 16.48
v 156.087 43.746 18.685
v 156.087 43.746 18.685
v 78.029 42.419 16.48
v 78.021 42.853 18.455
v 156.087 43.746 18.685
v 78.021 42.853 18.455
v 156.093 44.19 20.666
v 156.093 44.19 20.666
v 78.021 42.853 18.455
v 78.016 43.289 20.651
v 156.093 44.19 20.666
v 78.016 43.289 20.651
v 156.117 44.427 22.877
v 78.056 4.404 25.068
v 78.034 4.608 20.66
v 156.064 3.498 22.85
v 156.064 3.498 22.85
v 78.034 4.608 20.66
v 156.12 3.757 20.68
v 156.064 3.498 22.85
v 156.12 3.757 20.68
v 234.128 2.852 20.661
v 234.128 2.852 20.661
v 156.12 3.757 20.68
v 234.115 3.282 18.676
v 234.128 2.852 20.661
v 234.115 3.282 18.676
v 312.192 2.864 18.691
v 156.11 43.103 33.426
v 78.047 42.431 33.637
v 156.114 42.446 35.626
v 156.114 42.446 35.626
v 78.047 42.431 33.637
v 78.028 41.538 35.606
v 156.114 42.446 35.626
v 78.028 41.538 35.606
v 156.097 41.335 37.377
v 156.097 41.335 37.377
v 78.028 41.538 35.606
v 78.049 40.674 37.596
v 156.097 41.335 37.377
v 78.049 40.674 37.596
v 156.12 40.252 39.367
v 156.12 40.252 39.367
v 78.049 40.674 37.596
v 78.035 39.785 39.567
v 156.12 40.252 39.367
v 78.035 39.785 39.567
v 156.107 38.923 41.119
v 156.107 38.923 41.119
v 78.035 39.785 39.567
v 78.067 38.488 41.342
v 156.107 38.923 41.119
v 78.067 38.488 41.342
v 156.089 37.592 42.649
v 156.089 37.592 42.649
v 78.067 38.488 41.342
v 78.022 37.137 43.078
v 156.089 37.592 42.649
v 78.022 37.137 43.078
v 156.103 36.063 43.975
v 156.103 36.063 43.975
v 78.022 37.137 43.078
v 78.047 35.616 44.63
v 156.103 36.063 43.975
v 78.047 35.616 44.63
v 156.115 34.313 45.3
v 156.115 34.313 45.3
v 78.047 35.616 44.63
v 78.044 33.855 45.947
v 156.115 34.313 45.3
v 78.044 33.855 45.947
v 156.069 32.302 46.376
v 156.069 32.302 46.376
v 78.044 33.855 45.947
v 78.039 32.093 47.264
v 156.069 32.302 46.376
v 78.039 32.093 47.264
v 156.086 30.335 47.264
v 156.086 30.335 47.264
v 78.039 32.093 47.264
v 78.039 30.114 48.143
v 156.086 30.335 47.264
v 78.039 30.114 48.143
v 156.073 28.347 47.918
v 156.073 28.347 47.918
v 78.039 30.114 48.143
v 78.077 28.162 48.822
v 156.073 28.347 47.918
v 78.077 28.162 48.822
v 156.12 26.182 48.381
v 156.12 26.182 48.381
v 78.077 28.162 48.822
v 78.056 25.949 49.251
v 156.12 26.182 48.381
v 78.056 25.949 49.251
v 156.095 23.966 48.368
v 156.095 23.966 48.368
v 78.056 25.949 49.251
v 78.06 23.973 49.473
v 156.095 23.966 48.368
v 78.06 23.973 49.473
v 156.096 21.768 48.369
v 156.096 21.768 48.369
v 78.06 23.973 49.473
v 78.058 21.994 49.252
v 156.096 21.768 48.369
v 78.058 21.994 49.252
v 156.091 19.566 47.926
v 156.091 19.566 47.926
v 78.058 21.994 49.252
v 78.033 19.997 48.8
v 156.091 19.566 47.926
v 78.033 19.997 48.8
v 156.063 17.568 47.253
v 156.063 17.568 47.253
v 78.033 19.997 48.8
v 78.021 17.791 48.134
v 156.063 17.568 47.253
v 78.021 17.791 48.134
v 156.106 15.619 46.395
v 156.106 15.619 46.395
v 78.021 17.791 48.134
v 78.073 15.848 47.281
v 156.106 15.619 46.395
v 78.073 15.848 47.281
v 156.073 13.837 45.279
v 156.073 13.837 45.279
v 78.073 15.848 47.281
v 78.015 14.049 45.933
v 156.073 13.837 45.279
v 78.015 14.049 45.933
v 156.079 12.083 43.963
v 156.079 12.083 43.963
v 78.015 14.049 45.933
v 78.066 12.326 44.639
v 156.079 12.083 43.963
v 78.066 12.326 44.639
v 156.087 10.549 42.648
v 156.087 10.549 42.648
v 78.066 12.326 44.639
v 78.04 10.768 43.087
v 156.087 10.549 42.648
v 78.04 10.768 43.087
v 156.086 9.01 41.109
v 156.086 9.01 41.109
v 78.04 10.768 43.087
v 78.035 9.446 41.326
v 156.086 9.01 41.109
v 78.035 9.446 41.326
v 156.073 7.681 39.343
v 156.073 7.681 39.343
v 78.035 9.446 41.326
v 78.064 8.367 39.581
v 156.073 7.681 39.343
v 78.064 8.367 39.581
v 156.091 6.595 37.374
v 156.091 6.595 37.374
v 78.064 8.367 39.581
v 78.076 7.276 37.609
v 156.091 6.595 37.374
v 78.076 7.276 37.609
v 156.119 5.735 35.629
v 156.119 5.735 35.629
v 78.076 7.276 37.609
v 78.057 6.384 35.621
v 156.119 5.735 35.629
v 78.057 6.384 35.621
v 156.074 4.824 33.408
v 156.074 4.824 33.408
v 78.057 6.384 35.621
v 78.066 5.73 33.647
v 156.074 4.824 33.408
v 78.066 5.73 33.647
v 156.076 4.166 31.43
v 156.076 4.166 31.43
v 78.066 5.73 33.647
v 78.016 5.035 31.423
v 156.076 4.166 31.43
v 78.016 5.035 31.423
v 156.081 3.73 29.234
v 156.081 3.73 29.234
v 78.016 5.035 31.423
v 78.054 4.622 29.464
v 156.081 3.73 29.234
v 78.054 4.622 29.464
v 156.121 3.538 27.276
v -0.011 6.148 16.263
v 78.03 5.045 18.459
v 0.009 5.282 20.67
v 0.009 5.282 20.67
v 78.03 5.045 18.459
v 78.034 4.608 20.66
v 0.009 5.282 20.67
v 78.034 4.608 20.66
v -0.016 5.045 25.055
v -0.016 5.045 25.055
v 78.034 4.608 20.66
v 78.056 4.404 25.068
v -0.016 5.045 25.055
v 78.056 4.404 25.068
v 0.03 5.297 29.475
v 234.16 43.985 33.428
v 156.11 43.103 33.426
v 234.114 43.074 35.384
v 234.114 43.074 35.384
v 156.11 43.103 33.426
v 156.114 42.446 35.626
v 234.114 43.074 35.384
v 156.114 42.446 35.626
v 234.162 42.008 37.167
v 234.162 42.008 37.167
v 156.114 42.446 35.626
v 156.097 41.335 37.377
v 234.162 42.008 37.167
v 156.097 41.335 37.377
v 234.15 40.9 38.919
v 234.15 40.9 38.919
v 156.097 41.335 37.377
v 156.12 40.252 39.367
v 234.15 40.9 38.919
v 156.12 40.252 39.367
v 234.147 39.579 40.677
v 234.147 39.579 40.677
v 156.12 40.252 39.367
v 156.107 38.923 41.119
v 234.147 39.579 40.677
v 156.107 38.923 41.119
v 234.153 38.045 42.219
v 234.153 38.045 42.219
v 156.107 38.923 41.119
v 156.089 37.592 42.649
v 234.153 38.045 42.219
v 156.089 37.592 42.649
v 234.146 36.28 43.534
v 234.146 36.28 43.534
v 156.089 37.592 42.649
v 156.103 36.063 43.975
v 234.146 36.28 43.534
v 156.103 36.063 43.975
v 234.137 34.516 44.629
v 234.137 34.516 44.629
v 156.103 36.063 43.975
v 156.115 34.313 45.3
v 234.137 34.516 44.629
v 156.115 34.313 45.3
v 234.107 32.736 45.493
v 234.107 32.736 45.493
v 156.115 34.313 45.3
v 156.069 32.302 46.376
v 234.107 32.736 45.493
v 156.069 32.302 46.376
v 234.145 30.564 46.392
v 234.145 30.564 46.392
v 156.069 32.302 46.376
v 156.086 30.335 47.264
v 234.145 30.564 46.392
v 156.086 30.335 47.264
v 234.147 28.587 47.052
v 234.147 28.587 47.052
v 156.086 30.335 47.264
v 156.073 28.347 47.918
v 234.147 28.587 47.052
v 156.073 28.347 47.918
v 234.155 26.394 47.276
v 234.155 26.394 47.276
v 156.073 28.347 47.918
v 156.12 26.182 48.381
v 234.155 26.394 47.276
v 156.12 26.182 48.381
v 234.12 23.951 47.478
v 234.12 23.951 47.478
v 156.12 26.182 48.381
v 156.095 23.966 48.368
v 234.12 23.951 47.478
v 156.095 23.966 48.368
v 234.159 21.78 47.278
v 234.159 21.78 47.278
v 156.095 23.966 48.368
v 156.096 21.768 48.369
v 234.159 21.78 47.278
v 156.096 21.768 48.369
v 234.135 19.345 47.046
v 234.135 19.345 47.046
v 156.096 21.768 48.369
v 156.091 19.566 47.926
v 234.135 19.345 47.046
v 156.091 19.566 47.926
v 234.131 17.363 46.384
v 234.131 17.363 46.384
v 156.091 19.566 47.926
v 156.063 17.568 47.253
v 234.131 17.363 46.384
v 156.063 17.568 47.253
v 234.138 15.389 45.509
v 234.138 15.389 45.509
v 156.063 17.568 47.253
v 156.106 15.619 46.395
v 234.138 15.389 45.509
v 156.106 15.619 46.395
v 234.123 13.4 44.622
v 234.123 13.4 44.622
v 156.106 15.619 46.395
v 156.073 13.837 45.279
v 234.123 13.4 44.622
v 156.073 13.837 45.279
v 234.152 11.662 43.537
v 234.152 11.662 43.537
v 156.073 13.837 45.279
v 156.079 12.083 43.963
v 234.152 11.662 43.537
v 156.079 12.083 43.963
v 234.12 10.101 42.202
v 234.12 10.101 42.202
v 156.079 12.083 43.963
v 156.087 10.549 42.648
v 234.12 10.101 42.202
v 156.087 10.549 42.648
v 234.155 8.586 40.68
v 234.155 8.586 40.68
v 156.087 10.549 42.648
v 156.086 9.01 41.109
v 234.155 8.586 40.68
v 156.086 9.01 41.109
v 234.168 7.056 38.928
v 234.168 7.056 38.928
v 156.086 9.01 41.109
v 156.073 7.681 39.343
v 234.168 7.056 38.928
v 156.073 7.681 39.343
v 234.109 5.916 37.14
v 234.109 5.916 37.14
v 156.073 7.681 39.343
v 156.091 6.595 37.374
v 234.109 5.916 37.14
v 156.091 6.595 37.374
v 234.128 4.83 35.391
v 234.128 4.83 35.391
v 156.091 6.595 37.374
v 156.119 5.735 35.629
v 234.128 4.83 35.391
v 156.119 5.735 35.629
v 234.127 3.95 33.412
v 234.127 3.95 33.412
v 156.119 5.735 35.629
v 156.074 4.824 33.408
v 234.127 3.95 33.412
v 156.074 4.824 33.408
v 234.118 3.284 31.429
v 234.118 3.284 31.429
v 156.074 4.824 33.408
v 156.076 4.166 31.43
v 234.118 3.284 31.429
v 156.076 4.166 31.43
v 234.126 2.85 29.234
v 234.126 2.85 29.234
v 156.076 4.166 31.43
v 156.081 3.73 29.234
v 234.126 2.85 29.234
v 156.081 3.73 29.234
v 234.151 2.647 27.268
v 234.151 2.647 27.268
v 156.081 3.73 29.234
v 156.121 3.538 27.276
v 234.151 2.647 27.268
v 156.121 3.538 27.276
v 234.132 2.415 25.06
v 624.37 15.392 6.377
v 624.388 13.206 6.826
v 546.345 13.207 6.827
v 624.37 15.392 6.377
v 546.345 13.207 6.827
v 546.327 15.393 6.159
v 546.327 15.393 6.159
v 546.345 13.207 6.827
v 507.194 15.393 5.939
v 546.327 15.393 6.159
v 507.194 15.393 5.939
v 507.211 17.604 5.508
v 507.211 17.604 5.508
v 507.194 15.393 5.939
v 468.264 17.36 5.271
v 507.211 17.604 5.508
v 468.264 17.36 5.271
v 468.254 19.551 4.826
v 624.381 7.485 9.9
v 546.297 7.458 9.881
v 624.394 9.252 8.807
v 624.394 9.252 8.807
v 546.297 7.458 9.881
v 546.322 9.454 8.574
v 624.394 9.252 8.807
v 546.322 9.454 8.574
v 624.37 11.214 7.696
v 624.37 11.214 7.696
v 546.322 9.454 8.574
v 546.305 11.201 7.467
v 624.37 11.214 7.696
v 546.305 11.201 7.467
v 624.388 13.206 6.826
v 624.388 13.206 6.826
v 546.305 11.201 7.467
v 546.345 13.207 6.827
v 546.345 13.207 6.827
v 546.305 11.201 7.467
v 507.208 13.425 6.605
v 546.345 13.207 6.827
v 507.208 13.425 6.605
v 507.194 15.393 5.939
v 507.194 15.393 5.939
v 507.208 13.425 6.605
v 468.289 15.399 5.723
v 507.194 15.393 5.939
v 468.289 15.399 5.723
v 468.264 17.36 5.271
v 468.264 17.36 5.271
v 468.289 15.399 5.723
v 429.145 17.37 4.838
v 468.264 17.36 5.271
v 429.145 17.37 4.838
v 468.254 19.551 4.826
v 429.145 17.37 4.838
v 390.228 19.345 4.176
v 468.254 19.551 4.826
v 468.254 19.551 4.826
v 390.228 19.345 4.176
v 390.244 21.775 3.965
v 468.254 19.551 4.826
v 390.244 21.775 3.965
v 468.303 23.983 4.851
v 468.29 13.201 6.383
v 429.122 13.177 6.365
v 429.13 15.381 5.49
v 429.13 15.381 5.49
v 429.122 13.177 6.365
v 390.201 15.15 5.262
v 429.13 15.381 5.49
v 390.201 15.15 5.262
v 390.198 17.346 4.601
v 624.376 23.97 43.974
v 546.295 23.945 44.396
v 624.341 19.768 43.956
v 624.341 19.768 43.956
v 546.295 23.945 44.396
v 546.305 19.775 44.401
v 624.341 19.768 43.956
v 546.305 19.775 44.401
v 624.363 17.585 43.967
v 624.363 17.585 43.967
v 546.305 19.775 44.401
v 546.294 17.569 44.176
v 624.363 17.585 43.967
v 546.294 17.569 44.176
v 624.378 15.397 43.755
v 624.378 15.397 43.755
v 546.294 17.569 44.176
v 546.296 15.372 43.957
v 624.378 15.397 43.755
v 546.296 15.372 43.957
v 624.365 13.19 43.089
v 624.365 13.19 43.089
v 546.296 15.372 43.957
v 546.31 13.183 43.305
v 624.365 13.19 43.089
v 546.31 13.183 43.305
v 624.353 11.202 42.423
v 390.198 17.346 4.601
v 429.145 17.37 4.838
v 429.13 15.381 5.49
v 429.13 15.381 5.49
v 429.145 17.37 4.838
v 468.289 15.399 5.723
v 429.13 15.381 5.49
v 468.289 15.399 5.723
v 468.29 13.201 6.383
v 468.29 13.201 6.383
v 468.289 15.399 5.723
v 507.208 13.425 6.605
v 468.29 13.201 6.383
v 507.208 13.425 6.605
v 468.305 11.453 7.27
v 468.305 11.453 7.27
v 507.208 13.425 6.605
v 546.305 11.201 7.467
v 468.305 11.453 7.27
v 546.305 11.201 7.467
v 468.25 9.436 8.342
v 468.25 9.436 8.342
v 546.305 11.201 7.467
v 546.322 9.454 8.574
v 468.25 9.436 8.342
v 546.322 9.454 8.574
v 468.288 7.923 9.68
v 468.288 7.923 9.68
v 546.322 9.454 8.574
v 546.297 7.458 9.881
v 468.288 7.923 9.68
v 546.297 7.458 9.881
v 468.286 6.164 11.218
v 468.286 6.164 11.218
v 546.297 7.458 9.881
v 624.377 5.723 11.437
v 468.286 6.164 11.218
v 624.377 5.723 11.437
v 468.271 4.834 12.969
v 468.271 4.834 12.969
v 624.377 5.723 11.437
v 624.394 4.416 12.984
v 468.271 4.834 12.969
v 624.394 4.416 12.984
v 468.287 3.746 14.736
v 468.287 3.746 14.736
v 624.394 4.416 12.984
v 624.378 3.085 14.735
v 468.287 3.746 14.736
v 624.378 3.085 14.735
v 468.3 2.655 16.721
v 468.3 2.655 16.721
v 624.378 3.085 14.735
v 624.376 1.985 16.493
v 468.3 2.655 16.721
v 624.376 1.985 16.493
v 468.303 1.998 18.701
v 468.303 1.998 18.701
v 624.376 1.985 16.493
v 624.34 1.08 18.673
v 468.303 1.998 18.701
v 624.34 1.08 18.673
v 468.249 1.301 20.652
v 468.249 1.301 20.652
v 624.34 1.08 18.673
v 624.349 0.427 20.657
v 468.249 1.301 20.652
v 624.349 0.427 20.657
v 468.258 0.868 22.856
v 468.258 0.868 22.856
v 624.349 0.427 20.657
v 624.389 0.235 22.875
v 468.258 0.868 22.856
v 624.389 0.235 22.875
v 468.281 0.883 25.065
v 468.281 0.883 25.065
v 624.389 0.235 22.875
v 624.355 -0.008 25.057
v 468.281 0.883 25.065
v 624.355 -0.008 25.057
v 468.265 0.872 27.256
v 468.265 0.872 27.256
v 624.355 -0.008 25.057
v 624.376 0.226 27.265
v 468.265 0.872 27.256
v 624.376 0.226 27.265
v 468.303 1.339 29.254
v 468.303 1.339 29.254
v 624.376 0.226 27.265
v 624.398 0.461 29.255
v 468.303 1.339 29.254
v 624.398 0.461 29.255
v 468.278 1.981 31.44
v 468.278 1.981 31.44
v 624.398 0.461 29.255
v 624.355 1.091 31.432
v 468.278 1.981 31.44
v 624.355 1.091 31.432
v 468.293 2.65 33.426
v 468.293 2.65 33.426
v 624.355 1.091 31.432
v 624.374 1.984 33.42
v 468.293 2.65 33.426
v 624.374 1.984 33.42
v 468.282 3.742 35.399
v 468.282 3.742 35.399
v 624.374 1.984 33.42
v 624.397 3.099 35.411
v 468.282 3.742 35.399
v 624.397 3.099 35.411
v 468.298 4.852 37.165
v 468.298 4.852 37.165
v 624.397 3.099 35.411
v 624.352 4.387 37.147
v 468.298 4.852 37.165
v 624.352 4.387 37.147
v 468.278 6.158 38.695
v 468.278 6.158 38.695
v 624.352 4.387 37.147
v 624.363 5.714 38.691
v 468.278 6.158 38.695
v 624.363 5.714 38.691
v 546.298 7.459 40.221
v 390.215 13.181 6.148
v 429.122 13.177 6.365
v 390.248 11.445 7.264
v 390.248 11.445 7.264
v 429.122 13.177 6.365
v 468.305 11.453 7.27
v 390.248 11.445 7.264
v 468.305 11.453 7.27
v 390.219 9.666 8.349
v 390.219 9.666 8.349
v 468.305 11.453 7.27
v 468.25 9.436 8.342
v 390.219 9.666 8.349
v 468.25 9.436 8.342
v 390.211 8.122 9.884
v 390.211 8.122 9.884
v 468.25 9.436 8.342
v 468.288 7.923 9.68
v 390.211 8.122 9.884
v 468.288 7.923 9.68
v 390.237 6.601 11.436
v 390.237 6.601 11.436
v 468.288 7.923 9.68
v 468.286 6.164 11.218
v 390.237 6.601 11.436
v 468.286 6.164 11.218
v 390.253 5.293 12.983
v 390.253 5.293 12.983
v 468.286 6.164 11.218
v 468.271 4.834 12.969
v 390.253 5.293 12.983
v 468.271 4.834 12.969
v 390.2 4.157 14.715
v 390.2 4.157 14.715
v 468.271 4.834 12.969
v 468.287 3.746 14.736
v 390.2 4.157 14.715
v 468.287 3.746 14.736
v 390.231 3.079 16.709
v 390.231 3.079 16.709
v 468.287 3.746 14.736
v 468.3 2.655 16.721
v 390.231 3.079 16.709
v 468.3 2.655 16.721
v 390.237 2.424 18.691
v 390.237 2.424 18.691
v 468.3 2.655 16.721
v 468.303 1.998 18.701
v 390.237 2.424 18.691
v 468.303 1.998 18.701
v 390.21 1.965 20.876
v 390.21 1.965 20.876
v 468.303 1.998 18.701
v 468.249 1.301 20.652
v 390.21 1.965 20.876
v 468.249 1.301 20.652
v 390.204 1.521 22.851
v 390.204 1.521 22.851
v 468.249 1.301 20.652
v 468.258 0.868 22.856
v 390.204 1.521 22.851
v 468.258 0.868 22.856
v 390.243 1.549 25.07
v 390.243 1.549 25.07
v 468.258 0.868 22.856
v 468.281 0.883 25.065
v 390.243 1.549 25.07
v 468.281 0.883 25.065
v 390.223 1.535 27.038
v 390.223 1.535 27.038
v 468.281 0.883 25.065
v 468.265 0.872 27.256
v 390.223 1.535 27.038
v 468.265 0.872 27.256
v 390.228 1.978 29.239
v 390.228 1.978 29.239
v 468.265 0.872 27.256
v 468.303 1.339 29.254
v 390.228 1.978 29.239
v 468.303 1.339 29.254
v 390.223 2.414 31.215
v 390.223 2.414 31.215
v 468.303 1.339 29.254
v 468.278 1.981 31.44
v 390.223 2.414 31.215
v 468.278 1.981 31.44
v 390.218 3.07 33.191
v 390.218 3.07 33.191
v 468.278 1.981 31.44
v 468.293 2.65 33.426
v 390.218 3.07 33.191
v 468.293 2.65 33.426
v 390.233 4.18 35.178
v 390.233 4.18 35.178
v 468.293 2.65 33.426
v 468.282 3.742 35.399
v 390.233 4.18 35.178
v 468.282 3.742 35.399
v 390.221 5.271 36.93
v 390.221 5.271 36.93
v 468.282 3.742 35.399
v 468.298 4.852 37.165
v 390.221 5.271 36.93
v 468.298 4.852 37.165
v 390.245 6.606 38.701
v 390.245 6.606 38.701
v 468.298 4.852 37.165
v 468.278 6.158 38.695
v 390.245 6.606 38.701
v 468.278 6.158 38.695
v 390.2 8.114 40.218
v 390.2 8.114 40.218
v 468.278 6.158 38.695
v 468.3 7.932 40.244
v 390.2 8.114 40.218
v 468.3 7.932 40.244
v 390.23 9.674 41.551
v 390.23 9.674 41.551
v 468.3 7.932 40.244
v 468.268 9.449 41.548
v 390.23 9.674 41.551
v 468.268 9.449 41.548
v 390.231 11.433 42.871
v 468.269 11.428 42.647
v 468.283 13.196 43.534
v 429.165 13.207 43.761
v 429.165 13.207 43.761
v 468.283 13.196 43.534
v 468.245 15.368 44.394
v 429.165 13.207 43.761
v 468.245 15.368 44.394
v 429.168 15.407 44.642
v 429.168 15.407 44.642
v 468.245 15.368 44.394
v 468.27 17.364 44.846
v 429.168 15.407 44.642
v 468.27 17.364 44.846
v 429.169 17.387 45.082
v 624.381 7.484 40.239
v 624.346 9.219 41.321
v 546.316 9.45 41.549
v 546.316 9.45 41.549
v 624.346 9.219 41.321
v 546.294 11.193 42.417
v 546.316 9.45 41.549
v 546.294 11.193 42.417
v 468.269 11.428 42.647
v 468.269 11.428 42.647
v 546.294 11.193 42.417
v 507.175 13.401 43.523
v 468.269 11.428 42.647
v 507.175 13.401 43.523
v 468.283 13.196 43.534
v 468.283 13.196 43.534
v 507.175 13.401 43.523
v 507.2 15.398 44.195
v 468.283 13.196 43.534
v 507.2 15.398 44.195
v 468.245 15.368 44.394
v 468.245 15.368 44.394
v 507.2 15.398 44.195
v 507.183 17.584 44.626
v 468.245 15.368 44.394
v 507.183 17.584 44.626
v 468.27 17.364 44.846
v 468.27 17.364 44.846
v 507.183 17.584 44.626
v 468.29 19.577 45.076
v 468.27 17.364 44.846
v 468.29 19.577 45.076
v 429.169 17.387 45.082
v 429.169 17.387 45.082
v 468.29 19.577 45.076
v 390.251 19.361 45.739
v 624.363 5.714 38.691
v 624.381 7.484 40.239
v 546.298 7.459 40.221
v 546.298 7.459 40.221
v 624.381 7.484 40.239
v 546.316 9.45 41.549
v 546.298 7.459 40.221
v 546.316 9.45 41.549
v 468.268 9.449 41.548
v 468.268 9.449 41.548
v 546.316 9.45 41.549
v 468.269 11.428 42.647
v 468.268 9.449 41.548
v 468.269 11.428 42.647
v 390.231 11.433 42.871
v 390.231 11.433 42.871
v 468.269 11.428 42.647
v 429.165 13.207 43.761
v 390.231 11.433 42.871
v 429.165 13.207 43.761
v 390.208 13.176 43.959
v 390.208 13.176 43.959
v 429.165 13.207 43.761
v 429.168 15.407 44.642
v 390.208 13.176 43.959
v 429.168 15.407 44.642
v 390.229 15.169 44.629
v 390.229 15.169 44.629
v 429.168 15.407 44.642
v 429.169 17.387 45.082
v 390.229 15.169 44.629
v 429.169 17.387 45.082
v 390.216 17.358 45.282
v 390.216 17.358 45.282
v 429.169 17.387 45.082
v 390.251 19.361 45.739
v 624.346 9.219 41.321
v 624.353 11.202 42.423
v 546.294 11.193 42.417
v 546.294 11.193 42.417
v 624.353 11.202 42.423
v 546.31 13.183 43.305
v 546.294 11.193 42.417
v 546.31 13.183 43.305
v 507.175 13.401 43.523
v 507.175 13.401 43.523
v 546.31 13.183 43.305
v 546.296 15.372 43.957
v 507.175 13.401 43.523
v 546.296 15.372 43.957
v 507.2 15.398 44.195
v 507.2 15.398 44.195
v 546.296 15.372 43.957
v 546.294 17.569 44.176
v 507.2 15.398 44.195
v 546.294 17.569 44.176
v 507.183 17.584 44.626
v 507.183 17.584 44.626
v 546.294 17.569 44.176
v 546.305 19.775 44.401
v 507.183 17.584 44.626
v 546.305 19.775 44.401
v 468.29 19.577 45.076
v 468.29 19.577 45.076
v 546.305 19.775 44.401
v 468.248 23.944 45.275
v 468.29 19.577 45.076
v 468.248 23.944 45.275
v 390.2 21.745 46.154
v 390.2 21.745 46.154
v 468.248 23.944 45.275
v 390.246 23.975 46.176
v 624.384 30.571 43.978
v 546.324 30.561 44.191
v 624.348 28.347 43.96
v 624.348 28.347 43.96
v 546.324 30.561 44.191
v 546.341 28.375 44.419
v 624.348 28.347 43.96
v 546.341 28.375 44.419
v 624.376 23.97 43.974
v 624.355 32.529 43.744
v 624.382 34.747 43.098
v 546.34 34.749 43.32
v 468.248 28.342 45.055
v 546.341 28.375 44.419
v 507.183 30.555 44.626
v 507.183 30.555 44.626
v 546.341 28.375 44.419
v 546.324 30.561 44.191
v 507.183 30.555 44.626
v 546.324 30.561 44.191
v 546.292 32.517 43.955
v 546.292 32.517 43.955
v 546.324 30.561 44.191
v 624.384 30.571 43.978
v 546.292 32.517 43.955
v 624.384 30.571 43.978
v 624.355 32.529 43.744
v 624.355 32.529 43.744
v 546.34 34.749 43.32
v 546.292 32.517 43.955
v 546.292 32.517 43.955
v 546.34 34.749 43.32
v 507.201 32.547 44.196
v 546.292 32.517 43.955
v 507.201 32.547 44.196
v 507.183 30.555 44.626
v 507.183 30.555 44.626
v 507.201 32.547 44.196
v 468.253 30.543 44.838
v 507.183 30.555 44.626
v 468.253 30.543 44.838
v 468.248 28.342 45.055
v 624.368 32.538 6.376
v 624.379 30.567 6.162
v 546.345 30.576 5.728
v 624.356 34.728 6.81
v 546.35 34.756 6.83
v 624.372 36.718 7.697
v 624.372 36.718 7.697
v 546.35 34.756 6.83
v 546.292 36.694 7.46
v 624.372 36.718 7.697
v 546.292 36.694 7.46
v 624.345 38.678 8.783
v 624.345 38.678 8.783
v 546.292 36.694 7.46
v 546.335 38.703 8.581
v 624.345 38.678 8.783
v 546.335 38.703 8.581
v 624.366 40.451 9.893
v 624.366 40.451 9.893
v 546.335 38.703 8.581
v 546.322 40.452 9.894
v 624.366 40.451 9.893
v 546.322 40.452 9.894
v 624.356 42.203 11.427
v 624.356 42.203 11.427
v 546.322 40.452 9.894
v 546.347 42.009 11.225
v 624.356 42.203 11.427
v 546.347 42.009 11.225
v 624.344 43.734 12.96
v 624.344 43.734 12.96
v 546.347 42.009 11.225
v 546.325 43.533 12.973
v 624.344 43.734 12.96
v 546.325 43.533 12.973
v 624.342 44.831 14.717
v 624.342 44.831 14.717
v 546.325 43.533 12.973
v 546.35 44.869 14.744
v 624.342 44.831 14.717
v 546.35 44.869 14.744
v 624.355 45.94 16.483
v 624.355 45.94 16.483
v 546.35 44.869 14.744
v 546.335 45.958 16.495
v 624.355 45.94 16.483
v 546.335 45.958 16.495
v 624.352 46.817 18.68
v 624.352 46.817 18.68
v 546.335 45.958 16.495
v 546.321 46.608 18.687
v 624.352 46.817 18.68
v 546.321 46.608 18.687
v 624.387 47.501 20.676
v 624.387 47.501 20.676
v 546.321 46.608 18.687
v 546.33 47.274 20.67
v 624.387 47.501 20.676
v 546.33 47.274 20.67
v 624.397 47.948 22.879
v 624.397 47.948 22.879
v 546.33 47.274 20.67
v 546.335 47.717 22.871
v 624.397 47.948 22.879
v 546.335 47.717 22.871
v 624.395 47.947 25.077
v 624.395 47.947 25.077
v 546.335 47.717 22.871
v 546.322 47.707 25.063
v 624.395 47.947 25.077
v 546.322 47.707 25.063
v 624.345 47.911 27.25
v 624.345 47.911 27.25
v 546.322 47.707 25.063
v 546.318 47.705 27.259
v 624.345 47.911 27.25
v 546.318 47.705 27.259
v 624.363 47.484 29.238
v 624.363 47.484 29.238
v 546.318 47.705 27.259
v 546.319 47.266 29.239
v 624.363 47.484 29.238
v 546.319 47.266 29.239
v 624.348 46.814 31.429
v 624.348 46.814 31.429
v 546.319 47.266 29.239
v 546.337 46.619 31.446
v 624.348 46.814 31.429
v 546.337 46.619 31.446
v 624.387 45.962 33.427
v 624.387 45.962 33.427
v 546.337 46.619 31.446
v 546.305 45.937 33.409
v 624.387 45.962 33.427
v 546.305 45.937 33.409
v 624.37 44.851 35.397
v 624.37 44.851 35.397
v 546.305 45.937 33.409
v 546.338 44.861 35.404
v 624.37 44.851 35.397
v 546.338 44.861 35.404
v 624.361 43.746 37.151
v 624.361 43.746 37.151
v 546.338 44.861 35.404
v 546.342 43.545 37.165
v 624.361 43.746 37.151
v 546.342 43.545 37.165
v 624.343 42.194 38.681
v 624.343 42.194 38.681
v 546.342 43.545 37.165
v 546.344 42.007 38.705
v 624.343 42.194 38.681
v 546.344 42.007 38.705
v 624.372 40.456 40.235
v 624.372 40.456 40.235
v 546.344 42.007 38.705
v 546.315 40.448 40.229
v 624.372 40.456 40.235
v 546.315 40.448 40.229
v 624.366 38.692 41.331
v 624.366 38.692 41.331
v 546.315 40.448 40.229
v 546.31 38.686 41.546
v 624.366 38.692 41.331
v 546.31 38.686 41.546
v 624.38 36.724 42.437
v 624.38 36.724 42.437
v 546.31 38.686 41.546
v 546.327 36.719 42.434
v 624.38 36.724 42.437
v 546.327 36.719 42.434
v 624.382 34.747 43.098
v 624.368 32.538 6.376
v 546.345 30.576 5.728
v 546.31 32.53 6.15
v 546.31 32.53 6.15
v 546.345 30.576 5.728
v 507.184 32.534 5.934
v 546.31 32.53 6.15
v 507.184 32.534 5.934
v 507.217 34.756 6.61
v 507.217 34.756 6.61
v 507.184 32.534 5.934
v 468.274 34.735 6.375
v 507.217 34.756 6.61
v 468.274 34.735 6.375
v 468.293 36.727 7.264
v 624.376 17.594 6.16
v 546.346 17.605 5.729
v 624.361 19.782 5.933
v 624.361 19.782 5.933
v 546.346 17.605 5.729
v 546.348 19.805 5.73
v 624.361 19.782 5.933
v 546.348 19.805 5.73
v 624.35 23.952 5.928
v 624.35 23.952 5.928
v 546.348 19.805 5.73
v 546.327 23.968 5.719
v 624.35 23.952 5.928
v 546.327 23.968 5.719
v 624.358 28.354 5.931
v 624.358 28.354 5.931
v 546.327 23.968 5.719
v 546.322 28.361 5.717
v 624.358 28.354 5.931
v 546.322 28.361 5.717
v 624.379 30.567 6.162
v 624.382 34.747 43.098
v 546.327 36.719 42.434
v 546.34 34.749 43.32
v 546.34 34.749 43.32
v 546.327 36.719 42.434
v 507.193 34.739 43.532
v 546.34 34.749 43.32
v 507.193 34.739 43.532
v 507.201 32.547 44.196
v 507.201 32.547 44.196
v 507.193 34.739 43.532
v 468.27 32.754 44.407
v 507.201 32.547 44.196
v 468.27 32.754 44.407
v 468.253 30.543 44.838
v 468.253 30.543 44.838
v 468.27 32.754 44.407
v 429.143 30.559 45.069
v 468.253 30.543 44.838
v 429.143 30.559 45.069
v 468.248 28.342 45.055
v 468.248 28.342 45.055
v 429.143 30.559 45.069
v 390.212 28.568 45.72
v 468.248 28.342 45.055
v 390.212 28.568 45.72
v 390.204 26.364 46.156
v 624.376 23.97 43.974
v 546.341 28.375 44.419
v 546.295 23.945 44.396
v 546.295 23.945 44.396
v 546.341 28.375 44.419
v 468.248 28.342 45.055
v 546.295 23.945 44.396
v 468.248 28.342 45.055
v 468.248 23.944 45.275
v 468.248 23.944 45.275
v 468.248 28.342 45.055
v 390.204 26.364 46.156
v 468.248 23.944 45.275
v 390.204 26.364 46.156
v 390.246 23.975 46.176
v 468.3 34.754 43.542
v 429.164 34.751 43.76
v 429.143 32.758 44.629
v 429.143 32.758 44.629
v 429.164 34.751 43.76
v 390.244 32.768 44.636
v 429.143 32.758 44.629
v 390.244 32.768 44.636
v 390.211 30.766 45.28
v 624.356 34.728 6.81
v 546.31 32.53 6.15
v 546.35 34.756 6.83
v 546.35 34.756 6.83
v 546.31 32.53 6.15
v 507.217 34.756 6.61
v 546.35 34.756 6.83
v 507.217 34.756 6.61
v 546.292 36.694 7.46
v 546.292 36.694 7.46
v 507.217 34.756 6.61
v 468.293 36.727 7.264
v 546.292 36.694 7.46
v 468.293 36.727 7.264
v 546.335 38.703 8.581
v 546.335 38.703 8.581
v 468.293 36.727 7.264
v 468.306 38.495 8.37
v 546.335 38.703 8.581
v 468.306 38.495 8.37
v 546.322 40.452 9.894
v 546.322 40.452 9.894
v 468.306 38.495 8.37
v 468.272 40.23 9.672
v 546.322 40.452 9.894
v 468.272 40.23 9.672
v 546.347 42.009 11.225
v 546.347 42.009 11.225
v 468.272 40.23 9.672
v 468.251 41.754 11.2
v 546.347 42.009 11.225
v 468.251 41.754 11.2
v 546.325 43.533 12.973
v 546.325 43.533 12.973
v 468.251 41.754 11.2
v 468.289 43.1 12.978
v 546.325 43.533 12.973
v 468.289 43.1 12.978
v 546.35 44.869 14.744
v 546.35 44.869 14.744
v 468.289 43.1 12.978
v 468.276 44.409 14.73
v 546.35 44.869 14.744
v 468.276 44.409 14.73
v 546.335 45.958 16.495
v 546.335 45.958 16.495
v 468.276 44.409 14.73
v 468.246 45.268 16.694
v 546.335 45.958 16.495
v 468.246 45.268 16.694
v 546.321 46.608 18.687
v 546.321 46.608 18.687
v 468.246 45.268 16.694
v 468.299 46.185 18.699
v 546.321 46.608 18.687
v 468.299 46.185 18.699
v 546.33 47.274 20.67
v 546.33 47.274 20.67
v 468.299 46.185 18.699
v 468.254 46.593 20.655
v 546.33 47.274 20.67
v 468.254 46.593 20.655
v 546.335 47.717 22.871
v 546.335 47.717 22.871
v 468.254 46.593 20.655
v 468.287 47.056 22.87
v 546.335 47.717 22.871
v 468.287 47.056 22.87
v 546.322 47.707 25.063
v 546.322 47.707 25.063
v 468.287 47.056 22.87
v 468.287 47.056 25.069
v 546.322 47.707 25.063
v 468.287 47.056 25.069
v 546.318 47.705 27.259
v 546.318 47.705 27.259
v 468.287 47.056 25.069
v 468.276 47.048 27.262
v 546.318 47.705 27.259
v 468.276 47.048 27.262
v 546.319 47.266 29.239
v 546.319 47.266 29.239
v 468.276 47.048 27.262
v 468.261 46.598 29.233
v 546.319 47.266 29.239
v 468.261 46.598 29.233
v 546.337 46.619 31.446
v 546.337 46.619 31.446
v 468.261 46.598 29.233
v 468.271 46.165 31.436
v 546.337 46.619 31.446
v 468.271 46.165 31.436
v 546.305 45.937 33.409
v 546.305 45.937 33.409
v 468.271 46.165 31.436
v 468.246 45.268 33.402
v 546.305 45.937 33.409
v 468.246 45.268 33.402
v 546.338 44.861 35.404
v 546.338 44.861 35.404
v 468.246 45.268 33.402
v 468.269 44.405 35.392
v 546.338 44.861 35.404
v 468.269 44.405 35.392
v 546.342 43.545 37.165
v 546.342 43.545 37.165
v 468.269 44.405 35.392
v 468.273 43.089 37.153
v 546.342 43.545 37.165
v 468.273 43.089 37.153
v 546.344 42.007 38.705
v 546.344 42.007 38.705
v 468.273 43.089 37.153
v 468.293 41.784 38.702
v 546.344 42.007 38.705
v 468.293 41.784 38.702
v 546.315 40.448 40.229
v 546.315 40.448 40.229
v 468.293 41.784 38.702
v 468.266 40.225 40.227
v 546.315 40.448 40.229
v 468.266 40.225 40.227
v 546.31 38.686 41.546
v 546.31 38.686 41.546
v 468.266 40.225 40.227
v 468.271 38.47 41.549
v 546.31 38.686 41.546
v 468.271 38.47 41.549
v 546.327 36.719 42.434
v 546.327 36.719 42.434
v 468.271 38.47 41.549
v 468.288 36.724 42.657
v 546.327 36.719 42.434
v 468.288 36.724 42.657
v 507.193 34.739 43.532
v 507.193 34.739 43.532
v 468.288 36.724 42.657
v 468.3 34.754 43.542
v 507.193 34.739 43.532
v 468.3 34.754 43.542
v 468.27 32.754 44.407
v 468.27 32.754 44.407
v 468.3 34.754 43.542
v 429.143 32.758 44.629
v 468.27 32.754 44.407
v 429.143 32.758 44.629
v 429.143 30.559 45.069
v 429.143 30.559 45.069
v 429.143 32.758 44.629
v 390.211 30.766 45.28
v 429.143 30.559 45.069
v 390.211 30.766 45.28
v 390.212 28.568 45.72
v 468.249 30.54 5.263
v 429.134 30.553 4.833
v 429.122 32.743 5.486
v 429.122 32.743 5.486
v 429.134 30.553 4.833
v 390.227 32.756 5.275
v 429.122 32.743 5.486
v 390.227 32.756 5.275
v 390.239 34.743 6.161
v 624.379 30.567 6.162
v 546.322 28.361 5.717
v 546.345 30.576 5.728
v 546.345 30.576 5.728
v 546.322 28.361 5.717
v 507.178 30.552 5.491
v 546.345 30.576 5.728
v 507.178 30.552 5.491
v 507.184 32.534 5.934
v 507.184 32.534 5.934
v 507.178 30.552 5.491
v 468.284 32.763 5.72
v 507.184 32.534 5.934
v 468.284 32.763 5.72
v 468.274 34.735 6.375
v 468.274 34.735 6.375
v 468.284 32.763 5.72
v 429.135 34.731 6.372
v 468.274 34.735 6.375
v 429.135 34.731 6.372
v 468.293 36.727 7.264
v 468.293 36.727 7.264
v 429.135 34.731 6.372
v 390.223 36.491 7.252
v 468.293 36.727 7.264
v 390.223 36.491 7.252
v 468.306 38.495 8.37
v 468.306 38.495 8.37
v 390.223 36.491 7.252
v 390.227 38.252 8.353
v 468.306 38.495 8.37
v 390.227 38.252 8.353
v 468.272 40.23 9.672
v 468.272 40.23 9.672
v 390.227 38.252 8.353
v 390.237 40.018 9.897
v 468.272 40.23 9.672
v 390.237 40.018 9.897
v 468.251 41.754 11.2
v 468.251 41.754 11.2
v 390.237 40.018 9.897
v 390.229 41.551 11.432
v 468.251 41.754 11.2
v 390.229 41.551 11.432
v 468.289 43.1 12.978
v 468.289 43.1 12.978
v 390.229 41.551 11.432
v 390.226 42.648 12.969
v 468.289 43.1 12.978
v 390.226 42.648 12.969
v 468.276 44.409 14.73
v 468.276 44.409 14.73
v 390.226 42.648 12.969
v 390.235 43.973 14.733
v 468.276 44.409 14.73
v 390.235 43.973 14.733
v 468.246 45.268 16.694
v 468.246 45.268 16.694
v 390.235 43.973 14.733
v 390.206 44.833 16.697
v 468.246 45.268 16.694
v 390.206 44.833 16.697
v 468.299 46.185 18.699
v 468.299 46.185 18.699
v 390.206 44.833 16.697
v 390.212 45.496 18.678
v 468.299 46.185 18.699
v 390.212 45.496 18.678
v 468.254 46.593 20.655
v 468.254 46.593 20.655
v 390.212 45.496 18.678
v 390.259 46.188 20.9
v 468.254 46.593 20.655
v 390.259 46.188 20.9
v 468.287 47.056 22.87
v 468.287 47.056 22.87
v 390.259 46.188 20.9
v 390.201 46.368 22.85
v 468.287 47.056 22.87
v 390.201 46.368 22.85
v 468.287 47.056 25.069
v 468.287 47.056 25.069
v 390.201 46.368 22.85
v 390.254 46.625 25.075
v 468.287 47.056 25.069
v 390.254 46.625 25.075
v 468.276 47.048 27.262
v 468.276 47.048 27.262
v 390.254 46.625 25.075
v 390.214 46.377 27.034
v 468.276 47.048 27.262
v 390.214 46.377 27.034
v 468.261 46.598 29.233
v 468.261 46.598 29.233
v 390.214 46.377 27.034
v 390.223 46.164 29.237
v 468.261 46.598 29.233
v 390.223 46.164 29.237
v 468.271 46.165 31.436
v 468.271 46.165 31.436
v 390.223 46.164 29.237
v 390.245 45.52 31.226
v 468.271 46.165 31.436
v 390.245 45.52 31.226
v 468.246 45.268 33.402
v 468.246 45.268 33.402
v 390.245 45.52 31.226
v 390.224 44.845 33.194
v 468.246 45.268 33.402
v 390.224 44.845 33.194
v 468.269 44.405 35.392
v 468.269 44.405 35.392
v 390.224 44.845 33.194
v 390.225 43.966 35.173
v 468.269 44.405 35.392
v 390.225 43.966 35.173
v 468.273 43.089 37.153
v 468.273 43.089 37.153
v 390.225 43.966 35.173
v 390.211 42.638 36.925
v 468.273 43.089 37.153
v 390.211 42.638 36.925
v 468.293 41.784 38.702
v 468.293 41.784 38.702
v 390.211 42.638 36.925
v 390.243 41.561 38.7
v 468.293 41.784 38.702
v 390.243 41.561 38.7
v 468.266 40.225 40.227
v 468.266 40.225 40.227
v 390.243 41.561 38.7
v 390.207 39.996 40.221
v 468.266 40.225 40.227
v 390.207 39.996 40.221
v 468.271 38.47 41.549
v 468.271 38.47 41.549
v 390.207 39.996 40.221
v 390.238 38.26 41.556
v 468.271 38.47 41.549
v 390.238 38.26 41.556
v 468.288 36.724 42.657
v 468.288 36.724 42.657
v 390.238 38.26 41.556
v 390.224 36.491 42.868
v 468.288 36.724 42.657
v 390.224 36.491 42.868
v 429.164 34.751 43.76
v 429.164 34.751 43.76
v 390.224 36.491 42.868
v 390.23 34.736 43.97
v 429.164 34.751 43.76
v 390.23 34.736 43.97
v 390.244 32.768 44.636
v 390.244 21.775 3.965
v 390.24 23.971 3.743
v 468.303 23.983 4.851
v 468.303 23.983 4.851
v 390.24 23.971 3.743
v 390.245 26.393 3.965
v 468.303 23.983 4.851
v 390.245 26.393 3.965
v 468.294 28.374 4.846
v 468.294 28.374 4.846
v 390.245 26.393 3.965
v 390.255 28.598 4.19
v 468.294 28.374 4.846
v 390.255 28.598 4.19
v 429.134 30.553 4.833
v 429.134 30.553 4.833
v 390.255 28.598 4.19
v 390.242 30.788 4.623
v 429.134 30.553 4.833
v 390.242 30.788 4.623
v 390.227 32.756 5.275
v 624.376 17.594 6.16
v 546.327 15.393 6.159
v 546.346 17.605 5.729
v 546.346 17.605 5.729
v 546.327 15.393 6.159
v 507.211 17.604 5.508
v 546.346 17.605 5.729
v 507.211 17.604 5.508
v 546.348 19.805 5.73
v 546.348 19.805 5.73
v 507.211 17.604 5.508
v 468.254 19.551 4.826
v 546.348 19.805 5.73
v 468.254 19.551 4.826
v 546.327 23.968 5.719
v 546.327 23.968 5.719
v 468.254 19.551 4.826
v 468.303 23.983 4.851
v 546.327 23.968 5.719
v 468.303 23.983 4.851
v 546.322 28.361 5.717
v 546.322 28.361 5.717
v 468.303 23.983 4.851
v 468.294 28.374 4.846
v 546.322 28.361 5.717
v 468.294 28.374 4.846
v 507.178 30.552 5.491
v 507.178 30.552 5.491
v 468.294 28.374 4.846
v 468.249 30.54 5.263
v 507.178 30.552 5.491
v 468.249 30.54 5.263
v 468.284 32.763 5.72
v 468.284 32.763 5.72
v 468.249 30.54 5.263
v 429.122 32.743 5.486
v 468.284 32.763 5.72
v 429.122 32.743 5.486
v 429.135 34.731 6.372
v 429.135 34.731 6.372
v 429.122 32.743 5.486
v 390.239 34.743 6.161
v 429.135 34.731 6.372
v 390.239 34.743 6.161
v 390.223 36.491 7.252
v 312.163 2.404 20.875
v 312.184 2.199 22.865
v 234.149 2.646 22.87
v 234.149 2.646 22.87
v 312.184 2.199 22.865
v 234.132 2.415 25.06
v 234.149 2.646 22.87
v 234.132 2.415 25.06
v 156.104 3.526 25.069
v 156.104 3.526 25.069
v 234.132 2.415 25.06
v 156.121 3.538 27.276
v 156.104 3.526 25.069
v 156.121 3.538 27.276
v 78.056 4.404 25.068
v 78.056 4.404 25.068
v 156.121 3.538 27.276
v 78.054 4.622 29.464
v 78.056 4.404 25.068
v 78.054 4.622 29.464
v 0.03 5.297 29.475
v 0.03 5.297 29.475
v 78.054 4.622 29.464
v 78.016 5.035 31.423
v 0.03 5.297 29.475
v 78.016 5.035 31.423
v -0.026 6.137 33.623
v -0.026 6.137 33.623
v 78.016 5.035 31.423
v 78.066 5.73 33.647
v -0.026 6.137 33.623
v 78.066 5.73 33.647
v -0.003 6.814 35.834
v -0.003 6.814 35.834
v 78.066 5.73 33.647
v 78.057 6.384 35.621
v -0.003 6.814 35.834
v 78.057 6.384 35.621
v 0.007 7.7 37.817
v 0.007 7.7 37.817
v 78.057 6.384 35.621
v 78.076 7.276 37.609
v 0.007 7.7 37.817
v 78.076 7.276 37.609
v 0.025 8.592 39.805
v 0.025 8.592 39.805
v 78.076 7.276 37.609
v 78.064 8.367 39.581
v 0.025 8.592 39.805
v 78.064 8.367 39.581
v 0.021 9.908 41.781
v 0.021 9.908 41.781
v 78.064 8.367 39.581
v 78.035 9.446 41.326
v 0.021 9.908 41.781
v 78.035 9.446 41.326
v -0.015 11.202 43.522
v -0.015 11.202 43.522
v 78.035 9.446 41.326
v 78.04 10.768 43.087
v -0.015 11.202 43.522
v 78.04 10.768 43.087
v -0.028 12.512 45.055
v -0.028 12.512 45.055
v 78.04 10.768 43.087
v 78.066 12.326 44.639
v -0.028 12.512 45.055
v 78.066 12.326 44.639
v 0.023 14.306 46.4
v 0.023 14.306 46.4
v 78.066 12.326 44.639
v 78.015 14.049 45.933
v 0.023 14.306 46.4
v 78.015 14.049 45.933
v 0.027 16.068 47.72
v 0.027 16.068 47.72
v 78.015 14.049 45.933
v 78.073 15.848 47.281
v 0.027 16.068 47.72
v 78.073 15.848 47.281
v -0.027 18.009 48.793
v -0.027 18.009 48.793
v 78.073 15.848 47.281
v 78.021 17.791 48.134
v -0.027 18.009 48.793
v 78.021 17.791 48.134
v 0.02 20.02 49.476
v 0.02 20.02 49.476
v 78.021 17.791 48.134
v 78.033 19.997 48.8
v 0.02 20.02 49.476
v 78.033 19.997 48.8
v 0 21.984 49.905
v 0 21.984 49.905
v 78.033 19.997 48.8
v 78.058 21.994 49.252
v 0 21.984 49.905
v 78.058 21.994 49.252
v 0.003 23.965 50.127
v 0.003 23.965 50.127
v 78.058 21.994 49.252
v 78.06 23.973 49.473
v 0.003 23.965 50.127
v 78.06 23.973 49.473
v 0.005 25.946 49.908
v 0.005 25.946 49.908
v 78.06 23.973 49.473
v 78.056 25.949 49.251
v 0.005 25.946 49.908
v 78.056 25.949 49.251
v -0.007 27.916 49.462
v -0.007 27.916 49.462
v 78.056 25.949 49.251
v 78.077 28.162 48.822
v -0.007 27.916 49.462
v 78.077 28.162 48.822
v 0 29.9 48.806
v 0 29.9 48.806
v 78.077 28.162 48.822
v 78.039 30.114 48.143
v 0 29.9 48.806
v 78.039 30.114 48.143
v 0.028 31.897 47.721
v 0.028 31.897 47.721
v 78.039 30.114 48.143
v 78.039 32.093 47.264
v 0.028 31.897 47.721
v 78.039 32.093 47.264
v -0.003 33.634 46.386
v -0.003 33.634 46.386
v 78.039 32.093 47.264
v 78.044 33.855 45.947
v -0.003 33.634 46.386
v 78.044 33.855 45.947
v -0.006 35.391 45.065
v -0.006 35.391 45.065
v 78.044 33.855 45.947
v 78.047 35.616 44.63
v -0.006 35.391 45.065
v 78.047 35.616 44.63
v 0.021 36.949 43.54
v 0.021 36.949 43.54
v 78.047 35.616 44.63
v 78.022 37.137 43.078
v 0.021 36.949 43.54
v 78.022 37.137 43.078
v -0.028 38.234 41.757
v -0.028 38.234 41.757
v 78.022 37.137 43.078
v 78.067 38.488 41.342
v -0.028 38.234 41.757
v 78.067 38.488 41.342
v 0.014 39.362 39.799
v 0.014 39.362 39.799
v 78.067 38.488 41.342
v 78.035 39.785 39.567
v 0.014 39.362 39.799
v 78.035 39.785 39.567
v -0.01 40.225 37.809
v -0.01 40.225 37.809
v 78.035 39.785 39.567
v 78.049 40.674 37.596
v -0.01 40.225 37.809
v 78.049 40.674 37.596
v 0.011 41.119 35.84
v 0.011 41.119 35.84
v 78.049 40.674 37.596
v 78.028 41.538 35.606
v 0.011 41.119 35.84
v 78.028 41.538 35.606
v -0.03 41.75 33.622
v -0.03 41.75 33.622
v 78.028 41.538 35.606
v 78.047 42.431 33.637
v -0.03 41.75 33.622
v 78.047 42.431 33.637
v 78.019 42.851 31.425
v 78.019 42.851 31.425
v 78.047 42.431 33.637
v 156.11 43.103 33.426
v 78.019 42.851 31.425
v 156.11 43.103 33.426
v 156.114 43.765 31.449
v 156.114 43.765 31.449
v 156.11 43.103 33.426
v 234.16 43.985 33.428
v 156.114 43.765 31.449
v 234.16 43.985 33.428
v 234.164 44.647 31.451
v 234.164 44.647 31.451
v 234.16 43.985 33.428
v 312.18 44.406 33.195
v 234.164 44.647 31.451
v 312.18 44.406 33.195
v 312.17 45.059 31.212
v 312.212 45.529 29.254
v 312.214 45.969 27.056
v 234.131 45.504 27.258
v 234.131 45.504 27.258
v 312.214 45.969 27.056
v 234.145 45.514 25.066
v 234.131 45.504 27.258
v 234.145 45.514 25.066
v 156.079 44.62 25.056
v 156.079 44.62 25.056
v 234.145 45.514 25.066
v 156.117 44.427 22.877
v 156.079 44.62 25.056
v 156.117 44.427 22.877
v 78.022 43.513 25.051
v 78.022 43.513 25.051
v 156.117 44.427 22.877
v 78.016 43.289 20.651
v 78.022 43.513 25.051
v 78.016 43.289 20.651
v -0.015 42.64 20.658
v -0.015 42.64 20.658
v 78.016 43.289 20.651
v 78.021 42.853 18.455
v -0.015 42.64 20.658
v 78.021 42.853 18.455
v -0.006 41.767 16.266
v -0.006 41.767 16.266
v 78.021 42.853 18.455
v 78.029 42.419 16.48
v -0.006 41.767 16.266
v 78.029 42.419 16.48
v 0.024 41.128 14.302
v 0.024 41.128 14.302
v 78.029 42.419 16.48
v 78.055 41.558 14.295
v 0.024 41.128 14.302
v 78.055 41.558 14.295
v 0.031 40.254 12.107
v 0.031 40.254 12.107
v 78.055 41.558 14.295
v 78.057 40.679 12.317
v 0.031 40.254 12.107
v 78.057 40.679 12.317
v -0.026 39.335 10.32
v -0.026 39.335 10.32
v 78.057 40.679 12.317
v 78.066 39.806 10.563
v -0.026 39.335 10.32
v 78.066 39.806 10.563
v 0.01 38.26 8.359
v 0.01 38.26 8.359
v 78.066 39.806 10.563
v 78.026 38.459 8.564
v 0.01 38.26 8.359
v 78.026 38.459 8.564
v 0.012 36.943 6.602
v 0.012 36.943 6.602
v 78.026 38.459 8.564
v 78.073 37.173 7.049
v 0.012 36.943 6.602
v 78.073 37.173 7.049
v -0.022 35.38 5.045
v -0.022 35.38 5.045
v 78.073 37.173 7.049
v 78.016 35.594 5.481
v -0.022 35.38 5.045
v 78.016 35.594 5.481
v -0.005 33.633 3.515
v -0.005 33.633 3.515
v 78.016 35.594 5.481
v 78.027 33.843 3.948
v -0.005 33.633 3.515
v 78.027 33.843 3.948
v 0.021 31.893 2.209
v 0.021 31.893 2.209
v 78.027 33.843 3.948
v 78.037 32.091 2.853
v 0.021 31.893 2.209
v 78.037 32.091 2.853
v 0.008 29.905 1.323
v 0.008 29.905 1.323
v 78.037 32.091 2.853
v 78.019 30.1 1.965
v 0.008 29.905 1.323
v 78.019 30.1 1.965
v 0.002 27.922 0.661
v 0.002 27.922 0.661
v 78.019 30.1 1.965
v 78.069 28.157 1.111
v 0.002 27.922 0.661
v 78.069 28.157 1.111
v -0.026 25.924 0.207
v -0.026 25.924 0.207
v 78.069 28.157 1.111
v 78.06 25.952 0.887
v -0.026 25.924 0.207
v 78.06 25.952 0.887
v 0.02 23.977 0.01
v 0.02 23.977 0.01
v 78.06 25.952 0.887
v 78.051 23.967 0.662
v 0.02 23.977 0.01
v 78.051 23.967 0.662
v -0.002 21.983 0.219
v -0.002 21.983 0.219
v 78.051 23.967 0.662
v 78.035 21.977 0.874
v -0.002 21.983 0.219
v 78.035 21.977 0.874
v -0.012 19.998 0.654
v -0.012 19.998 0.654
v 78.035 21.977 0.874
v 78.066 20.02 1.109
v -0.012 19.998 0.654
v 78.066 20.02 1.109
v -0.018 18.015 1.31
v -0.018 18.015 1.31
v 78.066 20.02 1.109
v 78.036 17.801 1.974
v -0.018 18.015 1.31
v 78.036 17.801 1.974
v 0.008 16.055 2.203
v 0.008 16.055 2.203
v 78.036 17.801 1.974
v 78.036 15.822 2.853
v 0.008 16.055 2.203
v 78.036 15.822 2.853
v 0.018 14.303 3.526
v 0.018 14.303 3.526
v 78.036 15.822 2.853
v 78.028 14.058 3.948
v 0.018 14.303 3.526
v 78.028 14.058 3.948
v 0.026 12.55 5.07
v 0.026 12.55 5.07
v 78.028 14.058 3.948
v 78.027 12.298 5.487
v 0.026 12.55 5.07
v 78.027 12.298 5.487
v 0.01 11.219 6.601
v 0.01 11.219 6.601
v 78.027 12.298 5.487
v 78.022 10.756 7.023
v 0.01 11.219 6.601
v 78.022 10.756 7.023
v 0.022 9.908 8.365
v 0.022 9.908 8.365
v 78.022 10.756 7.023
v 78.065 9.467 8.584
v 0.022 9.908 8.365
v 78.065 9.467 8.584
v -0.01 8.567 10.328
v -0.01 8.567 10.328
v 78.065 9.467 8.584
v 78.047 8.355 10.553
v -0.01 8.567 10.328
v 78.047 8.355 10.553
v 0.02 7.709 12.102
v 0.02 7.709 12.102
v 78.047 8.355 10.553
v 78.018 7.235 12.297
v 0.02 7.709 12.102
v 78.018 7.235 12.297
v -0.004 6.812 14.288
v -0.004 6.812 14.288
v 78.018 7.235 12.297
v 78.046 6.376 14.29
v -0.004 6.812 14.288
v 78.046 6.376 14.29
v -0.011 6.148 16.263
v -0.011 6.148 16.263
v 78.046 6.376 14.29
v 78.032 5.706 16.481
v -0.011 6.148 16.263
v 78.032 5.706 16.481
v 78.03 5.045 18.459
v 78.03 5.045 18.459
v 78.032 5.706 16.481
v 156.111 4.85 16.498
v 78.03 5.045 18.459
v 156.111 4.85 16.498
v 156.086 4.173 18.684
v 156.086 4.173 18.684
v 156.111 4.85 16.498
v 234.126 3.949 16.703
v 156.086 4.173 18.684
v 234.126 3.949 16.703
v 234.115 3.282 18.676
v 234.115 3.282 18.676
v 234.126 3.949 16.703
v 312.157 3.499 16.695
v 234.115 3.282 18.676
v 312.157 3.499 16.695
v 312.192 2.864 18.691
v 390.245 26.393 3.965
v 312.209 26.4 3.091
v 390.255 28.598 4.19
v 390.255 28.598 4.19
v 312.209 26.4 3.091
v 312.189 28.584 3.52
v 390.255 28.598 4.19
v 312.189 28.584 3.52
v 390.242 30.788 4.623
v 390.242 30.788 4.623
v 312.189 28.584 3.52
v 312.214 30.8 4.192
v 390.242 30.788 4.623
v 312.214 30.8 4.192
v 390.227 32.756 5.275
v 390.227 32.756 5.275
v 312.214 30.8 4.192
v 312.2 32.769 4.845
v 390.227 32.756 5.275
v 312.2 32.769 4.845
v 390.239 34.743 6.161
v 390.239 34.743 6.161
v 312.2 32.769 4.845
v 312.184 34.736 5.716
v 390.239 34.743 6.161
v 312.184 34.736 5.716
v 390.223 36.491 7.252
v 390.223 36.491 7.252
v 312.184 34.736 5.716
v 312.163 36.48 7.025
v 390.223 36.491 7.252
v 312.163 36.48 7.025
v 390.227 38.252 8.353
v 390.227 38.252 8.353
v 312.163 36.48 7.025
v 312.186 38.255 8.136
v 390.227 38.252 8.353
v 312.186 38.255 8.136
v 390.237 40.018 9.897
v 390.237 40.018 9.897
v 312.186 38.255 8.136
v 312.199 39.803 9.681
v 390.237 40.018 9.897
v 312.199 39.803 9.681
v 390.229 41.551 11.432
v 390.229 41.551 11.432
v 312.199 39.803 9.681
v 312.182 41.111 11.212
v 390.229 41.551 11.432
v 312.182 41.111 11.212
v 390.226 42.648 12.969
v 390.226 42.648 12.969
v 312.182 41.111 11.212
v 312.179 42.427 12.969
v 390.226 42.648 12.969
v 312.179 42.427 12.969
v 390.235 43.973 14.733
v 390.235 43.973 14.733
v 312.179 42.427 12.969
v 312.188 43.533 14.732
v 390.235 43.973 14.733
v 312.188 43.533 14.732
v 390.206 44.833 16.697
v 390.206 44.833 16.697
v 312.188 43.533 14.732
v 312.18 44.407 16.707
v 390.206 44.833 16.697
v 312.18 44.407 16.707
v 390.212 45.496 18.678
v 390.212 45.496 18.678
v 312.18 44.407 16.707
v 312.175 45.063 18.683
v 390.212 45.496 18.678
v 312.175 45.063 18.683
v 390.259 46.188 20.9
v 390.259 46.188 20.9
v 312.175 45.063 18.683
v 312.194 45.516 20.891
v 390.259 46.188 20.9
v 312.194 45.516 20.891
v 390.201 46.368 22.85
v 390.201 46.368 22.85
v 312.194 45.516 20.891
v 312.198 45.958 22.872
v 390.201 46.368 22.85
v 312.198 45.958 22.872
v 390.254 46.625 25.075
v 390.254 46.625 25.075
v 312.198 45.958 22.872
v 312.192 45.954 25.067
v 390.254 46.625 25.075
v 312.192 45.954 25.067
v 390.214 46.377 27.034
v 390.214 46.377 27.034
v 312.192 45.954 25.067
v 312.214 45.969 27.056
v 390.214 46.377 27.034
v 312.214 45.969 27.056
v 390.223 46.164 29.237
v 390.223 46.164 29.237
v 312.214 45.969 27.056
v 312.212 45.529 29.254
v 390.223 46.164 29.237
v 312.212 45.529 29.254
v 390.245 45.52 31.226
v 390.245 45.52 31.226
v 312.212 45.529 29.254
v 312.17 45.059 31.212
v 390.245 45.52 31.226
v 312.17 45.059 31.212
v 390.224 44.845 33.194
v 390.224 44.845 33.194
v 312.17 45.059 31.212
v 312.18 44.406 33.195
v 390.224 44.845 33.194
v 312.18 44.406 33.195
v 390.225 43.966 35.173
v 390.225 43.966 35.173
v 312.18 44.406 33.195
v 312.158 43.512 35.163
v 390.225 43.966 35.173
v 312.158 43.512 35.163
v 390.211 42.638 36.925
v 390.211 42.638 36.925
v 312.158 43.512 35.163
v 312.155 42.411 37.14
v 390.211 42.638 36.925
v 312.155 42.411 37.14
v 390.243 41.561 38.7
v 390.243 41.561 38.7
v 312.155 42.411 37.14
v 312.186 41.114 38.695
v 390.243 41.561 38.7
v 312.186 41.114 38.695
v 390.207 39.996 40.221
v 390.207 39.996 40.221
v 312.186 41.114 38.695
v 312.173 39.785 40.447
v 390.207 39.996 40.221
v 312.173 39.785 40.447
v 390.238 38.26 41.556
v 390.238 38.26 41.556
v 312.173 39.785 40.447
v 312.181 38.252 41.77
v 390.238 38.26 41.556
v 312.181 38.252 41.77
v 390.224 36.491 42.868
v 390.224 36.491 42.868
v 312.181 38.252 41.77
v 312.187 36.497 43.092
v 390.224 36.491 42.868
v 312.187 36.497 43.092
v 390.23 34.736 43.97
v 390.23 34.736 43.97
v 312.187 36.497 43.092
v 312.206 34.751 44.2
v 390.23 34.736 43.97
v 312.206 34.751 44.2
v 390.244 32.768 44.636
v 390.244 32.768 44.636
v 312.206 34.751 44.2
v 312.176 32.752 45.285
v 390.244 32.768 44.636
v 312.176 32.752 45.285
v 390.211 30.766 45.28
v 390.211 30.766 45.28
v 312.176 32.752 45.285
v 312.209 30.797 45.961
v 390.211 30.766 45.28
v 312.209 30.797 45.961
v 390.212 28.568 45.72
v 390.212 28.568 45.72
v 312.209 30.797 45.961
v 312.207 28.596 46.619
v 390.212 28.568 45.72
v 312.207 28.596 46.619
v 390.204 26.364 46.156
v 390.204 26.364 46.156
v 312.207 28.596 46.619
v 312.189 26.386 46.83
v 390.204 26.364 46.156
v 312.189 26.386 46.83
v 390.246 23.975 46.176
v 390.246 23.975 46.176
v 312.189 26.386 46.83
v 312.163 23.949 47.037
v 390.246 23.975 46.176
v 312.163 23.949 47.037
v 390.2 21.745 46.154
v 390.2 21.745 46.154
v 312.163 23.949 47.037
v 312.195 21.553 46.833
v 390.2 21.745 46.154
v 312.195 21.553 46.833
v 390.251 19.361 45.739
v 390.251 19.361 45.739
v 312.195 21.553 46.833
v 312.209 19.364 46.62
v 390.251 19.361 45.739
v 312.209 19.364 46.62
v 390.216 17.358 45.282
v 390.216 17.358 45.282
v 312.209 19.364 46.62
v 312.162 17.133 45.937
v 390.216 17.358 45.282
v 312.162 17.133 45.937
v 390.229 15.169 44.629
v 390.229 15.169 44.629
v 312.162 17.133 45.937
v 312.179 15.167 45.287
v 390.229 15.169 44.629
v 312.179 15.167 45.287
v 390.208 13.176 43.959
v 390.208 13.176 43.959
v 312.179 15.167 45.287
v 312.175 13.185 44.185
v 390.208 13.176 43.959
v 312.175 13.185 44.185
v 390.231 11.433 42.871
v 390.231 11.433 42.871
v 312.175 13.185 44.185
v 312.196 11.441 43.096
v 390.231 11.433 42.871
v 312.196 11.441 43.096
v 390.23 9.674 41.551
v 390.23 9.674 41.551
v 312.196 11.441 43.096
v 312.209 9.911 41.784
v 390.23 9.674 41.551
v 312.209 9.911 41.784
v 390.2 8.114 40.218
v 390.2 8.114 40.218
v 312.209 9.911 41.784
v 312.165 8.121 40.443
v 390.2 8.114 40.218
v 312.165 8.121 40.443
v 390.245 6.606 38.701
v 390.245 6.606 38.701
v 312.165 8.121 40.443
v 312.208 6.832 38.705
v 390.245 6.606 38.701
v 312.208 6.832 38.705
v 390.221 5.271 36.93
v 390.221 5.271 36.93
v 312.208 6.832 38.705
v 312.174 5.49 37.15
v 390.221 5.271 36.93
v 312.174 5.49 37.15
v 390.233 4.18 35.178
v 390.233 4.18 35.178
v 312.174 5.49 37.15
v 312.175 4.611 35.171
v 390.233 4.18 35.178
v 312.175 4.611 35.171
v 390.218 3.07 33.191
v 390.218 3.07 33.191
v 312.175 4.611 35.171
v 312.2 3.529 33.205
v 390.218 3.07 33.191
v 312.2 3.529 33.205
v 390.223 2.414 31.215
v 390.223 2.414 31.215
v 312.2 3.529 33.205
v 312.193 2.865 31.223
v 390.223 2.414 31.215
v 312.193 2.865 31.223
v 390.228 1.978 29.239
v 390.228 1.978 29.239
v 312.193 2.865 31.223
v 312.175 2.412 29.235
v 390.228 1.978 29.239
v 312.175 2.412 29.235
v 390.223 1.535 27.038
v 390.223 1.535 27.038
v 312.175 2.412 29.235
v 312.177 2.194 27.038
v 390.223 1.535 27.038
v 312.177 2.194 27.038
v 390.243 1.549 25.07
v 390.243 1.549 25.07
v 312.177 2.194 27.038
v 312.211 1.998 25.076
v 390.243 1.549 25.07
v 312.211 1.998 25.076
v 390.204 1.521 22.851
v 390.204 1.521 22.851
v 312.211 1.998 25.076
v 312.184 2.199 22.865
v 390.204 1.521 22.851
v 312.184 2.199 22.865
v 390.21 1.965 20.876
v 390.21 1.965 20.876
v 312.184 2.199 22.865
v 312.163 2.404 20.875
v 390.21 1.965 20.876
v 312.163 2.404 20.875
v 390.237 2.424 18.691
v 390.237 2.424 18.691
v 312.163 2.404 20.875
v 312.192 2.864 18.691
v 390.237 2.424 18.691
v 312.192 2.864 18.691
v 390.231 3.079 16.709
v 390.231 3.079 16.709
v 312.192 2.864 18.691
v 312.157 3.499 16.695
v 390.231 3.079 16.709
v 312.157 3.499 16.695
v 390.2 4.157 14.715
v 390.2 4.157 14.715
v 312.157 3.499 16.695
v 312.205 4.632 14.74
v 390.2 4.157 14.715
v 312.205 4.632 14.74
v 390.253 5.293 12.983
v 390.253 5.293 12.983
v 312.205 4.632 14.74
v 312.173 5.489 12.966
v 390.253 5.293 12.983
v 312.173 5.489 12.966
v 390.237 6.601 11.436
v 390.237 6.601 11.436
v 312.173 5.489 12.966
v 312.183 6.815 11.212
v 390.237 6.601 11.436
v 312.183 6.815 11.212
v 390.211 8.122 9.884
v 390.211 8.122 9.884
v 312.183 6.815 11.212
v 312.196 8.143 9.68
v 390.211 8.122 9.884
v 312.196 8.143 9.68
v 390.219 9.666 8.349
v 390.219 9.666 8.349
v 312.196 8.143 9.68
v 312.196 9.902 8.14
v 390.219 9.666 8.349
v 312.196 9.902 8.14
v 390.248 11.445 7.264
v 390.248 11.445 7.264
v 312.196 9.902 8.14
v 312.156 11.413 7.022
v 390.248 11.445 7.264
v 312.156 11.413 7.022
v 390.215 13.181 6.148
v 390.215 13.181 6.148
v 312.156 11.413 7.022
v 312.194 13.199 5.722
v 390.215 13.181 6.148
v 312.194 13.199 5.722
v 390.201 15.15 5.262
v 390.201 15.15 5.262
v 312.194 13.199 5.722
v 312.202 15.183 4.846
v 390.201 15.15 5.262
v 312.202 15.183 4.846
v 390.198 17.346 4.601
v 390.198 17.346 4.601
v 312.202 15.183 4.846
v 312.201 17.161 4.186
v 390.198 17.346 4.601
v 312.201 17.161 4.186
v 390.228 19.345 4.176
v 390.228 19.345 4.176
v 312.201 17.161 4.186
v 312.174 19.34 3.513
v 390.228 19.345 4.176
v 312.174 19.34 3.513
v 390.244 21.775 3.965
v 390.244 21.775 3.965
v 312.174 19.34 3.513
v 312.19 21.549 3.081
v 390.244 21.775 3.965
v 312.19 21.549 3.081
v 390.24 23.971 3.743
v 390.24 23.971 3.743
v 312.19 21.549 3.081
v 312.168 23.953 3.07
v 390.24 23.971 3.743
v 312.168 23.953 3.07
v 390.245 26.393 3.965
v 390.245 26.393 3.965
v 312.168 23.953 3.07
v 312.209 26.4 3.091
f 1 2 3
f 4 5 6
f 7 8 9
f 10 11 12
f 13 14 15
f 16 17 18
f 19 20 21
f 22 23 24
f 25 26 27
f 28 29 30
f 31 32 33
f 34 35 36
f 37 38 39
f 40 41 42
f 43 44 45
f 46 47 48
f 49 50 51
f 52 53 54
f 55 56 57
f 58 59 60
f 61 62 63
f 64 65 66
f 67 68 69
f 70 71 72
f 73 74 75
f 76 77 78
f 79 80 81
f 82 83 84
f 85 86 87
f 88 89 90
f 91 92 93
f 94 95 96
f 97 98 99
f 100 101 102
f 103 104 105
f 106 107 108
f 109 110 111
f 112 113 114
f 115 116 117
f 118 119 120
f 121 122 123
f 124 125 126
f 127 128 129
f 130 131 132
f 133 134 135
f 136 137 138
f 139 140 141
f 142 143 144
f 145 146 147
f 148 149 150
f 151 152 153
f 154 155 156
f 157 158 159
f 160 161 162
f 163 164 165
f 166 167 168
f 169 170 171
f 172 173 174
f 175 176 177
f 178 179 180
f 181 182 183
f 184 185 186
f 187 188 189
f 190 191 192
f 193 194 195
f 196 197 198
f 199 200 201
f 202 203 204
f 205 206 207
f 208 209 210
f 211 212 213
f 214 215 216
f 217 218 219
f 220 221 222
f 223 224 225
f 226 227 228
f 229 230 231
f 232 233 234
f 235 236 237
f 238 239 240
f 241 242 243
f 244 245 246
f 247 248 249
f 250 251 252
f 253 254 255
f 256 257 258
f 259 260 261
f 262 263 264
f 265 266 267
f 268 269 270
f 271 272 273
f 274 275 276
f 277 278 279
f 280 281 282
f 283 284 285
f 286 287 288
f 289 290 291
f 292 293 294
f 295 296 297
f 298 299 300
f 301 302 303
f 304 305 306
f 307 308 309
f 310 311 312
f 313 314 315
f 316 317 318
f 319 320 321
f 322 323 324
f 325 326 327
f 328 329 330
f 331 332 333
f 334 335 336
f 337 338 339
f 340 341 342
f 343 344 345
f 346 347 348
f 349 350 351
f 352 353 354
f 355 356 357
f 358 359 360
f 361 362 363
f 364 365 366
f 367 368 369
f 370 371 372
f 373 374 375
f 376 377 378
f 379 380 381
f 382 383 384
f 385 386 387
f 388 389 390
f 391 392 393
f 394 395 396
f 397 398 399
f 400 401 402
f 403 404 405
f 406 407 408
f 409 410 411
f 412 413 414
f 415 416 417
f 418 419 420
f 421 422 423
f 424 425 426
f 427 428 429
f 430 431 432
f 433 434 435
f 436 437 438
f 439 440 441
f 442 443 444
f 445 446 447
f 448 449 450
f 451 452 453
f 454 455 456
f 457 458 459
f 460 461 462
f 463 464 465
f 466 467 468
f 469 470 471
f 472 473 474
f 475 476 477
f 478 479 480
f 481 482 483
f 484 485 486
f 487 488 489
f 490 491 492
f 493 494 495
f 496 497 498
f 499 500 501
f 502 503 504
f 505 506 507
f 508 509 510
f 511 512 513
f 514 515 516
f 517 518 519
f 520 521 522
f 523 524 525
f 526 527 528
f 529 530 531
f 532 533 534
f 535 536 537
f 538 539 540
f 541 542 543
f 544 545 546
f 547 548 549
f 550 551 552
f 553 554 555
f 556 557 558
f 559 560 561
f 562 563 564
f 565 566 567
f 568 569 570
f 571 572 573
f 574 575 576
f 577 578 579
f 580 581 582
f 583 584 585
f 586 587 588
f 589 590 591
f 592 593 594
f 595 596 597
f 598 599 600
f 601 602 603
f 604 605 606
f 607 608 609
f 610 611 612
f 613 614 615
f 616 617 618
f 619 620 621
f 622 623 624
f 625 626 627
f 628 629 630
f 631 632 633
f 634 635 636
f 637 638 639
f 640 641 642
f 643 644 645
f 646 647 648
f 649 650 651
f 652 653 654
f 655 656 657
f 658 659 660
f 661 662 663
f 664 665 666
f 667 668 669
f 670 671 672
f 673 674 675
f 676 677 678
f 679 680 681
f 682 683 684
f 685 686 687
f 688 689 690
f 691 692 693
f 694 695 696
f 697 698 699
f 700 701 702
f 703 704 705
f 706 707 708
f 709 710 711
f 712 713 714
f 715 716 717
f 718 719 720
f 721 722 723
f 724 725 726
f 727 728 729
f 730 731 732
f 733 734 735
f 736 737 738
f 739 740 741
f 742 743 744
f 745 746 747
f 748 749 750
f 751 752 753
f 754 755 756
f 757 758 759
f 760 761 762
f 763 764 765
f 766 767 768
f 769 770 771
f 772 773 774
f 775 776 777
f 778 779 780
f 781 782 783
f 784 785 786
f 787 788 789
f 790 791 792
f 793 794 795
f 796 797 798
f 799 800 801
f 802 803 804
f 805 806 807
f 808 809 810
f 811 812 813
f 814 815 816
f 817 818 819
f 820 821 822
f 823 824 825
f 826 827 828
f 829 830 831
f 832 833 834
f 835 836 837
f 838 839 840
f 841 842 843
f 844 845 846
f 847 848 849
f 850 851 852
f 853 854 855
f 856 857 858
f 859 860 861
f 862 863 864
f 865 866 867
f 868 869 870
f 871 872 873
f 874 875 876
f 877 878 879
f 880 881 882
f 883 884 885
f 886 887 888
f 889 890 891
f 892 893 894
f 895 896 897
f 898 899 900
f 901 902 903
f 904 905 906
f 907 908 909
f 910 911 912
f 913 914 915
f 916 917 918
f 919 920 921
f 922 923 924
f 925 926 927
f 928 929 930
f 931 932 933
f 934 935 936
f 937 938 939
f 940 941 942
f 943 944 945
f 946 947 948
f 949 950 951
f 952 953 954
f 955 956 957
f 958 959 960
f 961 962 963
f 964 965 966
f 967 968 969
f 970 971 972
f 973 974 975
f 976 977 978
f 979 980 981
f 982 983 984
f 985 986 987
f 988 989 990
f 991 992 993
f 994 995 996
f 997 998 999
f 1000 1001 1002
f 1003 1004 1005
f 1006 1007 1008
f 1009 1010 1011
f 1012 1013 1014
f 1015 1016 1017
f 1018 1019 1020
f 1021 1022 1023
f 1024 1025 1026
f 1027 1028 1029
f 1030 1031 1032
f 1033 1034 1035
f 1036 1037 1038
f 1039 1040 1041
f 1042 1043 1044
f 1045 1046 1047
f 1048 1049 1050
f 1051 1052 1053
f 1054 1055 1056
f 1057 1058 1059
f 1060 1061 1062
f 1063 1064 1065
f 1066 1067 1068
f 1069 1070 1071
f 1072 1073 1074
f 1075 1076 1077
f 1078 1079 1080
f 1081 1082 1083
f 1084 1085 1086
f 1087 1088 1089
f 1090 1091 1092
f 1093 1094 1095
f 1096 1097 1098
f 1099 1100 1101
f 1102 1103 1104
f 1105 1106 1107
f 1108 1109 1110
f 1111 1112 1113
f 1114 1115 1116
f 1117 1118 1119
f 1120 1121 1122
f 1123 1124 1125
f 1126 1127 1128
f 1129 1130 1131
f 1132 1133 1134
f 1135 1136 1137
f 1138 1139 1140
f 1141 1142 1143
f 1144 1145 1146
f 1147 1148 1149
f 1150 1151 1152
f 1153 1154 1155
f 1156 1157 1158
f 1159 1160 1161
f 1162 1163 1164
f 1165 1166 1167
f 1168 1169 1170
f 1171 1172 1173
f 1174 1175 1176
f 1177 1178 1179
f 1180 1181 1182
f 1183 1184 1185
f 1186 1187 1188
f 1189 1190 1191
f 1192 1193 1194
f 1195 1196 1197
f 1198 1199 1200
f 1201 1202 1203
f 1204 1205 1206
f 1207 1208 1209
f 1210 1211 1212
f 1213 1214 1215
f 1216 1217 1218
f 1219 1220 1221
f 1222 1223 1224
f 1225 1226 1227
f 1228 1229 1230
f 1231 1232 1233
f 1234 1235 1236
f 1237 1238 1239
f 1240 1241 1242
f 1243 1244 1245
f 1246 1247 1248
f 1249 1250 1251
f 1252 1253 1254
f 1255 1256 1257
f 1258 1259 1260
f 1261 1262 1263
f 1264 1265 1266
f 1267 1268 1269
f 1270 1271 1272
f 1273 1274 1275
f 1276 1277 1278
f 1279 1280 1281
f 1282 1283 1284
f 1285 1286 1287
f 1288 1289 1290
f 1291 1292 1293
f 1294 1295 1296
f 1297 1298 1299
f 1300 1301 1302
f 1303 1304 1305
f 1306 1307 1308
f 1309 1310 1311
f 1312 1313 1314
f 1315 1316 1317
f 1318 1319 1320
f 1321 1322 1323
f 1324 1325 1326
f 1327 1328 1329
f 1330 1331 1332
f 1333 1334 1335
f 1336 1337 1338
f 1339 1340 1341
f 1342 1343 1344
f 1345 1346 1347
f 1348 1349 1350
f 1351 1352 1353
f 1354 1355 1356
f 1357 1358 1359
f 1360 1361 1362
f 1363 1364 1365
f 1366 1367 1368
f 1369 1370 1371
f 1372 1373 1374
f 1375 1376 1377
f 1378 1379 1380
f 1381 1382 1383
f 1384 1385 1386
f 1387 1388 1389
f 1390 1391 1392
f 1393 1394 1395
f 1396 1397 1398
f 1399 1400 1401
f 1402 1403 1404
f 1405 1406 1407
f 1408 1409 1410
f 1411 1412 1413
f 1414 1415 1416
f 1417 1418 1419
f 1420 1421 1422
f 1423 1424 1425
f 1426 1427 1428
f 1429 1430 1431
f 1432 1433 1434
f 1435 1436 1437
f 1438 1439 1440
f 1441 1442 1443
f 1444 1445 1446
f 1447 1448 1449
f 1450 1451 1452
f 1453 1454 1455
f 1456 1457 1458
f 1459 1460 1461
f 1462 1463 1464
f 1465 1466 1467
f 1468 1469 1470
f 1471 1472 1473
f 1474 1475 1476
f 1477 1478 1479
f 1480 1481 1482
f 1483 1484 1485
f 1486 1487 1488
f 1489 1490 1491
f 1492 1493 1494
f 1495 1496 1497
f 1498 1499 1500
f 1501 1502 1503
f 1504 1505 1506
f 1507 1508 1509
f 1510 1511 1512
f 1513 1514 1515
f 1516 1517 1518
f 1519 1520 1521
f 1522 1523 1524
f 1525 1526 1527
f 1528 1529 1530
f 1531 1532 1533
f 1534 1535 1536
f 1537 1538 1539
f 1540 1541 1542
f 1543 1544 1545
f 1546 1547 1548
f 1549 1550 1551
f 1552 1553 1554
f 1555 1556 1557
f 1558 1559 1560
f 1561 1562 1563
f 1564 1565 1566
f 1567 1568 1569
f 1570 1571 1572
f 1573 1574 1575
f 1576 1577 1578
f 1579 1580 1581
f 1582 1583 1584
f 1585 1586 1587
f 1588 1589 1590
f 1591 1592 1593
f 1594 1595 1596
f 1597 1598 1599
f 1600 1601 1602
f 1603 1604 1605
f 1606 1607 1608
f 1609 1610 1611
f 1612 1613 1614
f 1615 1616 1617
f 1618 1619 1620
f 1621 1622 1623
f 1624 1625 1626
f 1627 1628 1629
f 1630 1631 1632
f 1633 1634 1635
f 1636 1637 1638
f 1639 1640 1641
f 1642 1643 1644
f 1645 1646 1647
f 1648 1649 1650
f 1651 1652 1653
f 1654 1655 1656
f 1657 1658 1659
f 1660 1661 1662
f 1663 1664 1665
f 1666 1667 1668
f 1669 1670 1671
f 1672 1673 1674
f 1675 1676 1677
f 1678 1679 1680
f 1681 1682 1683
f 1684 1685 1686
f 1687 1688 1689
f 1690 1691 1692
f 1693 1694 1695
f 1696 1697 1698
f 1699 1700 1701
f 1702 1703 1704
f 1705 1706 1707
f 1708 1709 1710
f 1711 1712 1713
f 1714 1715 1716
f 1717 1718 1719
f 1720 1721 1722
f 1723 1724 1725
f 1726 1727 1728
f 1729 1730 1731
f 1732 1733 1734
f 1735 1736 1737
f 1738 1739 1740
f 1741 1742 1743
f 1744 1745 1746
f 1747 1748 1749
f 1750 1751 1752
f 1753 1754 1755
f 1756 1757 1758
f 1759 1760 1761
f 1762 1763 1764
f 1765 1766 1767
f 1768 1769 1770
f 1771 1772 1773
f 1774 1775 1776
f 1777 1778 1779
f 1780 1781 1782
f 1783 1784 1785
f 1786 1787 1788
f 1789 1790 1791
f 1792 1793 1794
f 1795 1796 1797
f 1798 1799 1800
f 1801 1802 1803
f 1804 1805 1806
f 1807 1808 1809
f 1810 1811 1812
f 1813 1814 1815
f 1816 1817 1818
f 1819 1820 1821
f 1822 1823 1824
f 1825 1826 1827
f 1828 1829 1830
f 1831 1832 1833
f 1834 1835 1836
f 1837 1838 1839
f 1840 1841 1842
f 1843 1844 1845
f 1846 1847 1848
f 1849 1850 1851
f 1852 1853 1854
f 1855 1856 1857
f 1858 1859 1860
f 1861 1862 1863
f 1864 1865 1866
f 1867 1868 1869
f 1870 1871 1872
f 1873 1874 1875
f 1876 1877 1878
f 1879 1880 1881
f 1882 1883 1884
f 1885 1886 1887
f 1888 1889 1890
f 1891 1892 1893
f 1894 1895 1896
f 1897 1898 1899
f 1900 1901 1902
f 1903 1904 1905
f 1906 1907 1908
f 1909 1910 1911
f 1912 1913 1914
f 1915 1916 1917
f 1918 1919 1920
f 1921 1922 1923
f 1924 1925 1926
f 1927 1928 1929
f 1930 1931 1932
f 1933 1934 1935
f 1936 1937 1938
f 1939 1940 1941
f 1942 1943 1944
f 1945 1946 1947
f 1948 1949 1950
f 1951 1952 1953
f 1954 1955 1956
f 1957 1958 1959
f 1960 1961 1962
f 1963 1964 1965
f 1966 1967 1968
f 1969 1970 1971
f 1972 1973 1974
f 1975 1976 1977
f 1978 1979 1980
f 1981 1982 1983
f 1984 1985 1986
f 1987 1988 1989
f 1990 1991 1992
f 1993 1994 1995
f 1996 1997 1998
f 1999 2000 2001
f 2002 2003 2004
f 2005 2006 2007
f 2008 2009 2010
f 2011 2012 2013
f 2014 2015 2016
f 2017 2018 2019
f 2020 2021 2022
f 2023 2024 2025
f 2026 2027 2028
f 2029 2030 2031
f 2032 2033 2034
f 2035 2036 2037
f 2038 2039 2040
f 2041 2042 2043
f 2044 2045 2046
f 2047 2048 2049
f 2050 2051 2052
f 2053 2054 2055
f 2056 2057 2058
f 2059 2060 2061
f 2062 2063 2064
f 2065 2066 2067
f 2068 2069 2070
f 2071 2072 2073
f 2074 2075 2076
f 2077 2078 2079
f 2080 2081 2082
f 2083 2084 2085
f 2086 2087 2088
f 2089 2090 2091
f 2092 2093 2094
f 2095 2096 2097
f 2098 2099 2100
f 2101 2102 2103
f 2104 2105 2106
f 2107 2108 2109
f 2110 2111 2112
f 2113 2114 2115
f 2116 2117 2118
f 2119 2120 2121
f 2122 2123 2124
f 2125 2126 2127
f 2128 2129 2130
f 2131 2132 2133
f 2134 2135 2136
f 2137 2138 2139
f 2140 2141 2142
f 2143 2144 2145
f 2146 2147 2148
f 2149 2150 2151
f 2152 2153 2154
f 2155 2156 2157
f 2158 2159 2160
f 2161 2162 2163
f 2164 2165 2166
f 2167 2168 2169
f 2170 2171 2172
f 2173 2174 2175
f 2176 2177 2178
f 2179 2180 2181
f 2182 2183 2184
f 2185 2186 2187
f 2188 2189 2190
f 2191 2192 2193
f 2194 2195 2196
f 2197 2198 2199
f 2200 2201 2202
f 2203 2204 2205
f 2206 2207 2208
f 2209 2210 2211
f 2212 2213 2214
f 2215 2216 2217
f 2218 2219 2220
f 2221 2222 2223
f 2224 2225 2226
f 2227 2228 2229
f 2230 2231 2232
f 2233 2234 2235
f 2236 2237 2238
f 2239 2240 2241
f 2242 2243 2244
f 2245 2246 2247
f 2248 2249 2250
f 2251 2252 2253
f 2254 2255 2256
f 2257 2258 2259
f 2260 2261 2262
f 2263 2264 2265
f 2266 2267 2268
f 2269 2270 2271
f 2272 2273 2274
f 2275 2276 2277
f 2278 2279 2280
f 2281 2282 2283
f 2284 2285 2286
f 2287 2288 2289
f 2290 2291 2292
f 2293 2294 2295
f 2296 2297 2298
f 2299 2300 2301
f 2302 2303 2304
f 2305 2306 2307
f 2308 2309 2310
f 2311 2312 2313
f 2314 2315 2316
f 2317 2318 2319
f 2320 2321 2322
f 2323 2324 2325
f 2326 2327 2328
f 2329 2330 2331
f 2332 2333 2334
f 2335 2336 2337
f 2338 2339 2340
f 2341 2342 2343
f 2344 2345 2346
f 2347 2348 2349
f 2350 2351 2352
f 2353 2354 2355
f 2356 2357 2358
f 2359 2360 2361
f 2362 2363 2364
f 2365 2366 2367
f 2368 2369 2370
f 2371 2372 2373
f 2374 2375 2376
f 2377 2378 2379
f 2380 2381 2382
f 2383 2384 2385
f 2386 2387 2388
f 2389 2390 2391
f 2392 2393 2394
f 2395 2396 2397
f 2398 2399 2400
f 2401 2402 2403
f 2404 2405 2406
f 2407 2408 2409
f 2410 2411 2412
f 2413 2414 2415
f 2416 2417 2418
f 2419 2420 2421
f 2422 2423 2424
f 2425 2426 2427
f 2428 2429 2430
f 2431 2432 2433
f 2434 2435 2436
f 2437 2438 2439
f 2440 2441 2442
f 2443 2444 2445
f 2446 2447 2448
f 2449 2450 2451
f 2452 2453 2454
f 2455 2456 2457
f 2458 2459 2460
f 2461 2462 2463
f 2464 2465 2466
f 2467 2468 2469
f 2470 2471 2472
f 2473 2474 2475
f 2476 2477 2478
f 2479 2480 2481
f 2482 2483 2484
f 2485 2486 2487
f 2488 2489 2490
f 2491 2492 2493
f 2494 2495 2496
f 2497 2498 2499
f 2500 2501 2502
f 2503 2504 2505
f 2506 2507 2508
f 2509 2510 2511
f 2512 2513 2514
f 2515 2516 2517
f 2518 2519 2520
f 2521 2522 2523
f 2524 2525 2526
f 2527 2528 2529
f 2530 2531 2532
f 2533 2534 2535
f 2536 2537 2538
f 2539 2540 2541
f 2542 2543 2544
f 2545 2546 2547
f 2548 2549 2550
f 2551 2552 2553
f 2554 2555 2556
f 2557 2558 2559
f 2560 2561 2562
f 2563 2564 2565
f 2566 2567 2568
f 2569 2570 2571
f 2572 2573 2574
f 2575 2576 2577
f 2578 2579 2580
f 2581 2582 2583
f 2584 2585 2586
f 2587 2588 2589
f 2590 2591 2592
f 2593 2594 2595
f 2596 2597 2598
f 2599 2600 2601
f 2602 2603 2604
f 2605 2606 2607
f 2608 2609 2610
f 2611 2612 2613
f 2614 2615 2616
f 2617 2618 2619
f 2620 2621 2622
f 2623 2624 2625
f 2626 2627 2628
f 2629 2630 2631
f 2632 2633 2634
f 2635 2636 2637
f 2638 2639 2640
f 2641 2642 2643
f 2644 2645 2646
f 2647 2648 2649
f 2650 2651 2652
f 2653 2654 2655
f 2656 2657 2658
f 2659 2660 2661
f 2662 2663 2664
f 2665 2666 2667
f 2668 2669 2670
f 2671 2672 2673
f 2674 2675 2676
f 2677 2678 2679
f 2680 2681 2682
f 2683 2684 2685
f 2686 2687 2688
f 2689 2690 2691
f 2692 2693 2694
f 2695 2696 2697
f 2698 2699 2700
f 2701 2702 2703
f 2704 2705 2706
f 2707 2708 2709
f 2710 2711 2712
f 2713 2714 2715
f 2716 2717 2718
f 2719 2720 2721
f 2722 2723 2724
f 2725 2726 2727
f 2728 2729 2730
f 2731 2732 2733
f 2734 2735 2736
f 2737 2738 2739
f 2740 2741 2742
f 2743 2744 2745
f 2746 2747 2748
f 2749 2750 2751
f 2752 2753 2754
f 2755 2756 2757
f 2758 2759 2760
f 2761 2762 2763
f 2764 2765 2766
f 2767 2768 2769
f 2770 2771 2772
f 2773 2774 2775
f 2776 2777 2778
f 2779 2780 2781
f 2782 2783 2784
f 2785 2786 2787
f 2788 2789 2790
f 2791 2792 2793
f 2794 2795 2796
f 2797 2798 2799
f 2800 2801 2802
f 2803 2804 2805
f 2806 2807 2808
f 2809 2810 2811
f 2812 2813 2814
f 2815 2816 2817
f 2818 2819 2820
f 2821 2822 2823
f 2824 2825 2826
f 2827 2828 2829
f 2830 2831 2832
f 2833 2834 2835
f 2836 2837 2838
f 2839 2840 2841
f 2842 2843 2844
f 2845 2846 2847
f 2848 2849 2850
f 2851 2852 2853
f 2854 2855 2856
f 2857 2858 2859
f 2860 2861 2862
f 2863 2864 2865
f 2866 2867 2868
f 2869 2870 2871
f 2872 2873 2874
f 2875 2876 2877
f 2878 2879 2880
f 2881 2882 2883
f 2884 2885 2886
f 2887 2888 2889
f 2890 2891 2892
f 2893 2894 2895
f 2896 2897 2898
f 2899 2900 2901
f 2902 2903 2904
f 2905 2906 2907
f 2908 2909 2910
f 2911 2912 2913
f 2914 2915 2916
f 2917 2918 2919
f 2920 2921 2922
f 2923 2924 2925
f 2926 2927 2928
f 2929 2930 2931
f 2932 2933 2934
f 2935 2936 2937
f 2938 2939 2940
f 2941 2942 2943
f 2944 2945 2946
f 2947 2948 2949
f 2950 2951 2952
f 2953 2954 2955
f 2956 2957 2958
f 2959 2960 2961
f 2962 2963 2964
f 2965 2966 2967
f 2968 2969 2970
f 2971 2972 2973
f 2974 2975 2976
f 2977 2978 2979
f 2980 2981 2982
f 2983 2984 2985
f 2986 2987 2988
f 2989 2990 2991
f 2992 2993 2994
f 2995 2996 2997
f 2998 2999 3000
f 3001 3002 3003
f 3004 3005 3006
f 3007 3008 3009
f 3010 3011 3012
f 3013 3014 3015
f 3016 3017 3018
