# PUBLIC SHELL OBJ - display only, not CAD source
# Precision intentionally degraded; multi-part structure removed
o shell
v 609.937 12.208 34.9
v -0.015 14.333 34.888
v 609.928 14.343 34.895
v 609.928 14.343 34.895
v -0.015 14.333 34.888
v 0.012 16.279 34.902
v 609.928 14.343 34.895
v 0.012 16.279 34.902
v 609.951 16.286 34.907
v 609.951 16.286 34.907
v 0.012 16.279 34.902
v 0.03 18.432 34.268
v 609.951 16.286 34.907
v 0.03 18.432 34.268
v 609.917 18.403 34.248
v 609.917 18.403 34.248
v 0.03 18.432 34.268
v 0.021 20.353 33.408
v 609.917 18.403 34.248
v 0.021 20.353 33.408
v 609.947 20.351 33.406
v 609.947 20.351 33.406
v 0.021 20.353 33.408
v -0.023 22.463 31.887
v 609.947 20.351 33.406
v -0.023 22.463 31.887
v 609.92 22.472 31.894
v 609.92 22.472 31.894
v -0.023 22.463 31.887
v 0.007 24.196 29.975
v 609.92 22.472 31.894
v 0.007 24.196 29.975
v 609.94 24.199 29.977
v 609.94 24.199 29.977
v 0.007 24.196 29.975
v 0.006 25.908 27.62
v 609.94 24.199 29.977
v 0.006 25.908 27.62
v 609.956 25.923 27.631
v 609.956 25.923 27.631
v 0.006 25.908 27.62
v -0.021 27.388 24.609
v 609.956 25.923 27.631
v -0.021 27.388 24.609
v 609.906 27.387 24.608
v 609.906 27.387 24.608
v -0.021 27.388 24.609
v 0.019 28.272 21.204
v 609.906 27.387 24.608
v 0.019 28.272 21.204
v 609.909 28.245 21.184
v 609.909 28.245 21.184
v 0.019 28.272 21.204
v 0.024 28.704 17.567
v 609.909 28.245 21.184
v 0.024 28.704 17.567
v 609.931 28.689 17.556
v 609.931 28.689 17.556
v 0.024 28.704 17.567
v -0.018 28.246 13.906
v 609.931 28.689 17.556
v -0.018 28.246 13.906
v 609.959 28.28 13.93
v 609.959 28.28 13.93
v -0.018 28.246 13.906
v 0.014 27.413 10.283
v 609.959 28.28 13.93
v 0.014 27.413 10.283
v 609.911 27.39 10.267
v 609.911 27.39 10.267
v 0.014 27.413 10.283
v 0.03 25.925 7.508
v 609.911 27.39 10.267
v 0.03 25.925 7.508
v 609.902 25.885 7.479
v 609.902 25.885 7.479
v 0.03 25.925 7.508
v -0.006 24.188 4.921
v 609.902 25.885 7.479
v -0.006 24.188 4.921
v 609.908 24.177 4.913
v 609.908 24.177 4.913
v -0.006 24.188 4.921
v -0.008 22.474 2.993
v 609.908 24.177 4.913
v -0.008 22.474 2.993
v 609.958 22.499 3.012
v 609.958 22.499 3.012
v -0.008 22.474 2.993
v -0.013 20.329 1.706
v 609.958 22.499 3.012
v -0.013 20.329 1.706
v 609.912 20.326 1.704
v 609.912 20.326 1.704
v -0.013 20.329 1.706
v 0.018 18.424 0.651
v 609.912 20.326 1.704
v 0.018 18.424 0.651
v 609.899 18.391 0.627
v 609.899 18.391 0.627
v 0.018 18.424 0.651
v -0.01 16.264 0.209
v 609.899 18.391 0.627
v -0.01 16.264 0.209
v 609.931 16.272 0.215
v 609.931 16.272 0.215
v -0.01 16.264 0.209
v 0.006 14.348 0.003
v 609.931 16.272 0.215
v 0.006 14.348 0.003
v 609.946 14.356 0.009
v 609.946 14.356 0.009
v 0.006 14.348 0.003
v 0.025 12.221 0.227
v 609.946 14.356 0.009
v 0.025 12.221 0.227
v 609.922 12.198 0.211
v 609.922 12.198 0.211
v 0.025 12.221 0.227
v -0.005 10.273 0.64
v 609.922 12.198 0.211
v -0.005 10.273 0.64
v 609.912 10.264 0.634
v 609.912 10.264 0.634
v -0.005 10.273 0.64
v 0.01 8.143 1.718
v 609.912 10.264 0.634
v 0.01 8.143 1.718
v 609.927 8.134 1.712
v 609.927 8.134 1.712
v 0.01 8.143 1.718
v 0.028 6.228 3.011
v 609.927 8.134 1.712
v 0.028 6.228 3.011
v 609.936 6.214 3.001
v 609.936 6.214 3.001
v 0.028 6.228 3.011
v -0.013 4.273 4.918
v 609.936 6.214 3.001
v -0.013 4.273 4.918
v 609.914 4.271 4.916
v 609.914 4.271 4.916
v -0.013 4.273 4.918
v -0.005 2.566 7.491
v 609.914 4.271 4.916
v -0.005 2.566 7.491
v 609.914 2.558 7.485
v 609.914 2.558 7.485
v -0.005 2.566 7.491
v -0.016 1.273 10.268
v 609.914 2.558 7.485
v -0.016 1.273 10.268
v 609.912 1.272 10.268
v 609.912 1.272 10.268
v -0.016 1.273 10.268
v -0.02 0.414 13.906
v 609.912 1.272 10.268
v -0.02 0.414 13.906
v 609.926 0.426 13.914
v 609.926 0.426 13.914
v -0.02 0.414 13.906
v -0.017 -0.012 17.547
v 609.926 0.426 13.914
v -0.017 -0.012 17.547
v 609.957 0.02 17.569
v 609.957 0.02 17.569
v -0.017 -0.012 17.547
v -0.016 0.417 21.186
v 609.957 0.02 17.569
v -0.016 0.417 21.186
v 609.934 0.432 21.197
v 609.934 0.432 21.197
v -0.016 0.417 21.186
v 0 1.285 24.62
v 609.934 0.432 21.197
v 0 1.285 24.62
v 609.946 1.297 24.629
v 609.946 1.297 24.629
v 0 1.285 24.62
v 0.004 2.572 27.619
v 609.946 1.297 24.629
v 0.004 2.572 27.619
v 609.939 2.576 27.622
v 609.939 2.576 27.622
v 0.004 2.572 27.619
v -0.002 4.28 29.971
v 609.939 2.576 27.622
v -0.002 4.28 29.971
v 609.943 4.291 29.979
v 609.943 4.291 29.979
v -0.002 4.28 29.971
v 0.009 6.215 31.903
v 609.943 4.291 29.979
v 0.009 6.215 31.903
v 609.917 6.2 31.893
v 609.917 6.2 31.893
v 0.009 6.215 31.903
v -0.024 8.119 33.386
v 609.917 6.2 31.893
v -0.024 8.119 33.386
v 609.928 8.135 33.397
v 609.928 8.135 33.397
v -0.024 8.119 33.386
v 0.024 10.293 34.265
v 609.928 8.135 33.397
v 0.024 10.293 34.265
v 609.923 10.272 34.251
v 609.923 10.272 34.251
v 0.024 10.293 34.265
v -0.007 12.198 34.892
v 609.923 10.272 34.251
v -0.007 12.198 34.892
v 609.937 12.208 34.9
v 609.937 12.208 34.9
v -0.007 12.198 34.892
v -0.015 14.333 34.888
f 1 2 3
f 4 5 6
f 7 8 9
f 10 11 12
f 13 14 15
f 16 17 18
f 19 20 21
f 22 23 24
f 25 26 27
f 28 29 30
f 31 32 33
f 34 35 36
f 37 38 39
f 40 41 42
f 43 44 45
f 46 47 48
f 49 50 51
f 52 53 54
f 55 56 57
f 58 59 60
f 61 62 63
f 64 65 66
f 67 68 69
f 70 71 72
f 73 74 75
f 76 77 78
f 79 80 81
f 82 83 84
f 85 86 87
f 88 89 90
f 91 92 93
f 94 95 96
f 97 98 99
f 100 101 102
f 103 104 105
f 106 107 108
f 109 110 111
f 112 113 114
f 115 116 117
f 118 119 120
f 121 122 123
f 124 125 126
f 127 128 129
f 130 131 132
f 133 134 135
f 136 137 138
f 139 140 141
f 142 143 144
f 145 146 147
f 148 149 150
f 151 152 153
f 154 155 156
f 157 158 159
f 160 161 162
f 163 164 165
f 166 167 168
f 169 170 171
f 172 173 174
f 175 176 177
f 178 179 180
f 181 182 183
f 184 185 186
f 187 188 189
f 190 191 192
f 193 194 195
f 196 197 198
f 199 200 201
f 202 203 204
f 205 206 207
f 208 209 210
f 211 212 213
f 214 215 216
