# PUBLIC SHELL OBJ - display only, not CAD source
# Precision intentionally degraded; multi-part structure removed
o shell
v 75.073 37.329 18.983
v -0.009 37.945 18.971
v 0.029 37.972 20.677
v 525.017 34.173 27.421
v 600.048 33.731 27.407
v 600.024 34.347 25.919
v 525.005 33.321 28.891
v 600.045 33.096 29.092
v 600.048 33.731 27.407
v -0.009 37.945 18.971
v 75.073 37.329 18.983
v 0.024 37.968 17.301
v 0.024 37.968 17.301
v 75.073 37.329 18.983
v 149.925 36.488 17.298
v 0.024 37.968 17.301
v 149.925 36.488 17.298
v -0.004 37.527 15.6
v 149.914 25.727 2.955
v 75.037 27.394 3.995
v 149.915 27.203 3.588
v 149.915 27.203 3.588
v 75.037 27.394 3.995
v 75.087 28.905 4.863
v 149.915 27.203 3.588
v 75.087 28.905 4.863
v 149.911 28.677 4.429
v 149.911 28.677 4.429
v 75.087 28.905 4.863
v 75.061 30.363 5.694
v 149.911 28.677 4.429
v 75.061 30.363 5.694
v 149.907 30.15 5.482
v 149.907 30.15 5.482
v 75.061 30.363 5.694
v 75.047 31.618 6.741
v 149.907 30.15 5.482
v 75.047 31.618 6.741
v 149.906 31.414 6.746
v 149.906 31.414 6.746
v 75.047 31.618 6.741
v 75.066 32.896 8.015
v 149.906 31.414 6.746
v 75.066 32.896 8.015
v 149.899 32.464 8.008
v 149.899 32.464 8.008
v 75.066 32.896 8.015
v 75.057 33.944 9.276
v 149.899 32.464 8.008
v 75.057 33.944 9.276
v 149.879 33.504 9.263
v 149.879 33.504 9.263
v 75.057 33.944 9.276
v 75.055 34.996 10.75
v 149.879 33.504 9.263
v 75.055 34.996 10.75
v 149.896 34.359 10.747
v 149.896 34.359 10.747
v 75.055 34.996 10.75
v 75.066 35.848 12.232
v 149.896 34.359 10.747
v 75.066 35.848 12.232
v 149.931 35.227 12.24
v 149.931 35.227 12.24
v 75.066 35.848 12.232
v 75.061 36.477 13.916
v 149.931 35.227 12.24
v 75.061 36.477 13.916
v 149.882 35.614 13.903
v 149.882 35.614 13.903
v 75.061 36.477 13.916
v 149.882 36.036 15.59
v 149.925 36.488 17.298
v 149.882 36.036 15.59
v -0.004 37.527 15.6
v -0.004 37.527 15.6
v 149.882 36.036 15.59
v 75.061 36.477 13.916
v -0.004 37.527 15.6
v 75.061 36.477 13.916
v -0.012 37.1 13.91
v -0.012 37.1 13.91
v 75.061 36.477 13.916
v 75.066 35.848 12.232
v -0.012 37.1 13.91
v 75.066 35.848 12.232
v 0.01 36.271 12.234
v 0.01 36.271 12.234
v 75.066 35.848 12.232
v 75.055 34.996 10.75
v 0.01 36.271 12.234
v 75.055 34.996 10.75
v 0.004 35.424 10.755
v 0.004 35.424 10.755
v 75.055 34.996 10.75
v 75.057 33.944 9.276
v 0.004 35.424 10.755
v 75.057 33.944 9.276
v 0.025 34.385 9.29
v 0.025 34.385 9.29
v 75.057 33.944 9.276
v 75.066 32.896 8.015
v 0.025 34.385 9.29
v 75.066 32.896 8.015
v -0.015 33.302 8.004
v -0.015 33.302 8.004
v 75.066 32.896 8.015
v 75.047 31.618 6.741
v -0.015 33.302 8.004
v 75.047 31.618 6.741
v 0.014 32.058 6.965
v 0.014 32.058 6.965
v 75.047 31.618 6.741
v 75.061 30.363 5.694
v 0.014 32.058 6.965
v 75.061 30.363 5.694
v 0 30.572 5.904
v 0 30.572 5.904
v 75.061 30.363 5.694
v 75.087 28.905 4.863
v 0 30.572 5.904
v 75.087 28.905 4.863
v 0.025 29.113 5.073
v 0.025 29.113 5.073
v 75.087 28.905 4.863
v 75.037 27.394 3.995
v 149.932 1.915 15.614
v 75.074 1.697 13.923
v 149.913 2.323 13.918
v 149.913 2.323 13.918
v 75.074 1.697 13.923
v 75.054 2.316 12.226
v 149.913 2.323 13.918
v 75.054 2.316 12.226
v 149.913 2.956 12.231
v 149.913 2.956 12.231
v 75.054 2.316 12.226
v 75.056 2.949 10.751
v 149.913 2.956 12.231
v 75.056 2.949 10.751
v 149.9 3.579 10.749
v 149.9 3.579 10.749
v 75.056 2.949 10.751
v 75.077 4.018 9.286
v 149.9 3.579 10.749
v 75.077 4.018 9.286
v 149.878 4.407 9.262
v 149.878 4.407 9.262
v 75.077 4.018 9.286
v 75.054 5.057 8.01
v 149.878 4.407 9.262
v 75.054 5.057 8.01
v 149.907 5.481 8.012
v 149.907 5.481 8.012
v 75.054 5.057 8.01
v 75.055 6.322 6.745
v 149.907 5.481 8.012
v 75.055 6.322 6.745
v 149.884 6.73 6.735
v 149.884 6.73 6.735
v 75.055 6.322 6.745
v 75.084 7.608 5.705
v 149.884 6.73 6.735
v 75.084 7.608 5.705
v 149.91 8.013 5.483
v 149.91 8.013 5.483
v 75.084 7.608 5.705
v 75.032 9.047 4.836
v 149.91 8.013 5.483
v 75.032 9.047 4.836
v 149.895 9.268 4.421
v 149.895 9.268 4.421
v 75.032 9.047 4.836
v 75.087 10.562 4.02
v 149.895 9.268 4.421
v 75.087 10.562 4.02
v 149.915 10.758 3.588
v -0.026 12.21 3.571
v 75.087 10.562 4.02
v 0.012 10.55 4.223
v 0.012 10.55 4.223
v 75.087 10.562 4.02
v 75.032 9.047 4.836
v 0.012 10.55 4.223
v 75.032 9.047 4.836
v -0.011 8.847 5.055
v -0.011 8.847 5.055
v 75.032 9.047 4.836
v 75.084 7.608 5.705
v -0.011 8.847 5.055
v 75.084 7.608 5.705
v 0.005 7.383 5.906
v 0.005 7.383 5.906
v 75.084 7.608 5.705
v 75.055 6.322 6.745
v 0.005 7.383 5.906
v 75.055 6.322 6.745
v 0.022 6.13 6.969
v 0.022 6.13 6.969
v 75.055 6.322 6.745
v 75.054 5.057 8.01
v 0.022 6.13 6.969
v 75.054 5.057 8.01
v -0.015 4.628 8.004
v -0.015 4.628 8.004
v 75.054 5.057 8.01
v 75.077 4.018 9.286
v -0.015 4.628 8.004
v 75.077 4.018 9.286
v -0.019 3.571 9.268
v -0.019 3.571 9.268
v 75.077 4.018 9.286
v 75.056 2.949 10.751
v -0.019 3.571 9.268
v 75.056 2.949 10.751
v -0.012 2.522 10.747
v -0.012 2.522 10.747
v 75.056 2.949 10.751
v 75.054 2.316 12.226
v -0.012 2.522 10.747
v 75.054 2.316 12.226
v -0.018 1.674 12.22
v -0.018 1.674 12.22
v 75.054 2.316 12.226
v 75.074 1.697 13.923
v 149.915 10.758 3.588
v 75.087 10.562 4.02
v 149.902 12.225 2.949
v 149.902 12.225 2.949
v 75.087 10.562 4.02
v -0.026 12.21 3.571
v 149.902 12.225 2.949
v -0.026 12.21 3.571
v 149.903 13.912 2.317
v 149.903 13.912 2.317
v -0.026 12.21 3.571
v 0.004 13.918 3.165
v 149.903 13.912 2.317
v 0.004 13.918 3.165
v 149.888 15.589 1.888
v 149.888 15.589 1.888
v 0.004 13.918 3.165
v 0.026 15.62 2.754
v 149.888 15.589 1.888
v 0.026 15.62 2.754
v 149.927 17.302 1.696
v 149.927 17.302 1.696
v 0.026 15.62 2.754
v -0.007 17.284 2.527
v 149.927 17.302 1.696
v -0.007 17.284 2.527
v 149.884 18.959 1.464
v 149.884 18.959 1.464
v -0.007 17.284 2.527
v -0.002 18.974 2.529
v 149.884 18.959 1.464
v -0.002 18.974 2.529
v 149.887 20.648 1.676
v 149.887 20.648 1.676
v -0.002 18.974 2.529
v 0.007 20.668 2.534
v 149.887 20.648 1.676
v 0.007 20.668 2.534
v 149.878 22.329 1.883
v 149.878 22.329 1.883
v 0.007 20.668 2.534
v 0.007 22.565 2.744
v 149.878 22.329 1.883
v 0.007 22.565 2.744
v 149.889 24.023 2.31
v 149.889 24.023 2.31
v 0.007 22.565 2.744
v 0.009 24.253 3.167
v 149.889 24.023 2.31
v 0.009 24.253 3.167
v 149.914 25.727 2.955
v 149.914 25.727 2.955
v 0.009 24.253 3.167
v 0.026 25.951 3.597
v 149.914 25.727 2.955
v 0.026 25.951 3.597
v 75.037 27.394 3.995
v 75.037 27.394 3.995
v 0.026 25.951 3.597
v 0.007 27.414 4.22
v 75.037 27.394 3.995
v 0.007 27.414 4.22
v 0.025 29.113 5.073
v 300.025 2.319 24.035
v 149.898 2.313 24.031
v 300.042 1.908 22.357
v 300.042 1.908 22.357
v 149.898 2.313 24.031
v 149.909 1.898 22.35
v 300.042 1.908 22.357
v 149.909 1.898 22.35
v 300.005 1.672 20.652
v 300.005 1.672 20.652
v 149.909 1.898 22.35
v 149.899 1.681 20.658
v 300.005 1.672 20.652
v 149.899 1.681 20.658
v 300.016 1.469 18.971
v 300.016 1.469 18.971
v 149.899 1.681 20.658
v 149.901 1.471 18.972
v 300.016 1.469 18.971
v 149.901 1.471 18.972
v 300.001 1.669 17.276
v 300.001 1.669 17.276
v 149.901 1.471 18.972
v 149.91 1.689 17.29
v 300.001 1.669 17.276
v 149.91 1.689 17.29
v 300.005 1.882 15.591
v 300.005 1.882 15.591
v 149.91 1.689 17.29
v 149.932 1.915 15.614
v 300.005 1.882 15.591
v 149.932 1.915 15.614
v 300.021 2.316 13.913
v 300.021 2.316 13.913
v 149.932 1.915 15.614
v 149.913 2.323 13.918
v 300.021 2.316 13.913
v 149.913 2.323 13.918
v 300.021 2.948 12.226
v 300.021 2.948 12.226
v 149.913 2.323 13.918
v 149.913 2.956 12.231
v 300.021 2.948 12.226
v 149.913 2.956 12.231
v 300.014 3.576 10.747
v 300.014 3.576 10.747
v 149.913 2.956 12.231
v 149.9 3.579 10.749
v 300.014 3.576 10.747
v 149.9 3.579 10.749
v 300.002 4.411 9.265
v 300.002 4.411 9.265
v 149.9 3.579 10.749
v 149.878 4.407 9.262
v 300.002 4.411 9.265
v 149.878 4.407 9.262
v 300.046 5.496 8.022
v 300.046 5.496 8.022
v 149.878 4.407 9.262
v 149.907 5.481 8.012
v 300.046 5.496 8.022
v 149.907 5.481 8.012
v 300.021 6.744 6.745
v 300.021 6.744 6.745
v 149.907 5.481 8.012
v 149.884 6.73 6.735
v 300.021 6.744 6.745
v 149.884 6.73 6.735
v 300.031 8.015 5.484
v 300.031 8.015 5.484
v 149.884 6.73 6.735
v 149.91 8.013 5.483
v 300.031 8.015 5.484
v 149.91 8.013 5.483
v 300.043 9.289 4.436
v 300.043 9.289 4.436
v 149.91 8.013 5.483
v 149.895 9.268 4.421
v 300.043 9.289 4.436
v 149.895 9.268 4.421
v 300.003 10.736 3.573
v 300.003 10.736 3.573
v 149.895 9.268 4.421
v 149.915 10.758 3.588
v 300.003 10.736 3.573
v 149.915 10.758 3.588
v 300.045 12.242 2.961
v 300.045 12.242 2.961
v 149.915 10.758 3.588
v 149.902 12.225 2.949
v 300.045 12.242 2.961
v 149.902 12.225 2.949
v 299.998 13.896 2.305
v 299.998 13.896 2.305
v 149.902 12.225 2.949
v 149.903 13.912 2.317
v 299.998 13.896 2.305
v 149.903 13.912 2.317
v 300.023 15.6 1.896
v 300.023 15.6 1.896
v 149.903 13.912 2.317
v 149.888 15.589 1.888
v 300.023 15.6 1.896
v 149.888 15.589 1.888
v 300 17.271 1.674
v 300 17.271 1.674
v 149.888 15.589 1.888
v 149.927 17.302 1.696
v 300 17.271 1.674
v 149.927 17.302 1.696
v 300.041 18.986 1.483
v 300.041 18.986 1.483
v 149.927 17.302 1.696
v 149.884 18.959 1.464
v 300.041 18.986 1.483
v 149.884 18.959 1.464
v 300.056 20.683 1.701
v 300.056 20.683 1.701
v 149.884 18.959 1.464
v 149.887 20.648 1.676
v 300.056 20.683 1.701
v 149.887 20.648 1.676
v 300.032 22.353 1.901
v 300.032 22.353 1.901
v 149.887 20.648 1.676
v 149.878 22.329 1.883
v 300.032 22.353 1.901
v 149.878 22.329 1.883
v 300.036 24.043 2.324
v 300.036 24.043 2.324
v 149.878 22.329 1.883
v 149.889 24.023 2.31
v 300.036 24.043 2.324
v 149.889 24.023 2.31
v 300.042 25.733 2.96
v 300.042 25.733 2.96
v 149.889 24.023 2.31
v 149.914 25.727 2.955
v 300.042 25.733 2.96
v 149.914 25.727 2.955
v 300.025 27.198 3.584
v 300.025 27.198 3.584
v 149.914 25.727 2.955
v 149.915 27.203 3.588
v 300.025 27.198 3.584
v 149.915 27.203 3.588
v 300.05 28.691 4.439
v 300.05 28.691 4.439
v 149.915 27.203 3.588
v 149.911 28.677 4.429
v 300.05 28.691 4.439
v 149.911 28.677 4.429
v 300.013 30.141 5.475
v 300.013 30.141 5.475
v 149.911 28.677 4.429
v 149.907 30.15 5.482
v 300.013 30.141 5.475
v 149.907 30.15 5.482
v 300.053 31.434 6.76
v 300.053 31.434 6.76
v 149.907 30.15 5.482
v 149.906 31.414 6.746
v 300.053 31.434 6.76
v 149.906 31.414 6.746
v 300.022 32.466 8.01
v 300.022 32.466 8.01
v 149.906 31.414 6.746
v 149.899 32.464 8.008
v 300.022 32.466 8.01
v 149.899 32.464 8.008
v 299.999 33.504 9.263
v 299.999 33.504 9.263
v 149.899 32.464 8.008
v 149.879 33.504 9.263
v 299.999 33.504 9.263
v 149.879 33.504 9.263
v 300.045 34.38 10.762
v 300.045 34.38 10.762
v 149.879 33.504 9.263
v 149.896 34.359 10.747
v 300.045 34.38 10.762
v 149.896 34.359 10.747
v 300.022 35.207 12.226
v 300.022 35.207 12.226
v 149.896 34.359 10.747
v 149.931 35.227 12.24
v 300.022 35.207 12.226
v 149.931 35.227 12.24
v 300.05 35.648 13.927
v 300.05 35.648 13.927
v 149.931 35.227 12.24
v 149.882 35.614 13.903
v 300.05 35.648 13.927
v 149.882 35.614 13.903
v 300.011 36.043 15.595
v 300.011 36.043 15.595
v 149.882 35.614 13.903
v 149.882 36.036 15.59
v 300.011 36.043 15.595
v 149.882 36.036 15.59
v 299.999 36.246 17.276
v 299.999 36.246 17.276
v 149.882 36.036 15.59
v 149.925 36.488 17.298
v 299.999 36.246 17.276
v 149.925 36.488 17.298
v 300.056 36.496 18.991
v 300.012 5.472 30.143
v 149.883 5.464 30.138
v 300.043 4.439 28.682
v 300.043 4.439 28.682
v 149.883 5.464 30.138
v 149.885 4.412 28.663
v 300.043 4.439 28.682
v 149.885 4.412 28.663
v 300.011 3.574 27.191
v 300.011 3.574 27.191
v 149.885 4.412 28.663
v 149.937 3.605 27.213
v 300.011 3.574 27.191
v 149.937 3.605 27.213
v 300.048 2.967 25.733
v 300.048 2.967 25.733
v 149.937 3.605 27.213
v 149.919 2.96 25.728
v 300.048 2.967 25.733
v 149.919 2.96 25.728
v 300.025 2.319 24.035
v 300.008 36.041 22.34
v 149.893 36.043 22.342
v 300.045 35.645 24.045
v 300.045 35.645 24.045
v 149.893 36.043 22.342
v 149.894 35.622 24.029
v 300.045 35.645 24.045
v 149.894 35.622 24.029
v 300.026 35.21 25.723
v 300.026 35.21 25.723
v 149.894 35.622 24.029
v 149.932 35.227 25.735
v 300.026 35.21 25.723
v 149.932 35.227 25.735
v 300.047 34.381 27.209
v 300.047 34.381 27.209
v 149.932 35.227 25.735
v 149.933 34.384 27.211
v 300.013 33.515 28.668
v 149.913 33.528 28.677
v 300.029 32.471 30.151
v 300.029 32.471 30.151
v 149.913 33.528 28.677
v 149.879 32.45 30.136
v 300.029 32.471 30.151
v 149.879 32.45 30.136
v 300.056 31.436 31.43
v 300.056 31.436 31.43
v 149.879 32.45 30.136
v 149.885 31.399 31.404
v 300.056 31.436 31.43
v 149.885 31.399 31.404
v 300.019 30.145 32.466
v 300.019 30.145 32.466
v 149.885 31.399 31.404
v 149.882 30.132 32.456
v 300.019 30.145 32.466
v 149.882 30.132 32.456
v 300.026 28.674 33.523
v 300.026 28.674 33.523
v 149.882 30.132 32.456
v 149.885 28.659 33.513
v 300.026 28.674 33.523
v 149.885 28.659 33.513
v 300.055 27.219 34.381
v 300.055 27.219 34.381
v 149.936 27.219 34.381
v 300.023 25.72 35.209
v 300.023 25.72 35.209
v 149.936 27.219 34.381
v 149.928 25.737 35.22
v 300.023 25.72 35.209
v 149.928 25.737 35.22
v 300.023 24.033 35.63
v 300.023 24.033 35.63
v 149.928 25.737 35.22
v 149.885 24.02 35.621
v 300.023 24.033 35.63
v 149.885 24.02 35.621
v 300.038 22.357 36.06
v 300.038 22.357 36.06
v 149.885 24.02 35.621
v 149.923 22.36 36.061
v 300.038 22.357 36.06
v 149.923 22.36 36.061
v 300.02 20.658 36.261
v 300.02 20.658 36.261
v 149.923 22.36 36.061
v 149.895 20.654 36.258
v 300.02 20.658 36.261
v 149.895 20.654 36.258
v 300.035 18.982 36.48
v 300.035 18.982 36.48
v 149.895 20.654 36.258
v 149.915 18.981 36.479
v 300.035 18.982 36.48
v 149.915 18.981 36.479
v 300.053 17.307 36.278
v 300.053 17.307 36.278
v 149.915 18.981 36.479
v 149.905 17.287 36.263
v 300.053 17.307 36.278
v 149.905 17.287 36.263
v 300.032 15.606 36.057
v 300.032 15.606 36.057
v 149.905 17.287 36.263
v 149.882 15.584 36.041
v 300.032 15.606 36.057
v 149.882 15.584 36.041
v 300.023 13.913 35.63
v 300.023 13.913 35.63
v 149.882 15.584 36.041
v 149.888 13.901 35.622
v 300.023 13.913 35.63
v 149.888 13.901 35.622
v 300.056 12.249 35.225
v 300.056 12.249 35.225
v 149.888 13.901 35.622
v 149.919 12.236 35.216
v 300.056 12.249 35.225
v 149.919 12.236 35.216
v 300.018 10.747 34.363
v 300.018 10.747 34.363
v 149.919 12.236 35.216
v 149.906 10.752 34.366
v 300.018 10.747 34.363
v 149.906 10.752 34.366
v 300.02 9.273 33.521
v 300.02 9.273 33.521
v 149.906 10.752 34.366
v 149.891 9.266 33.515
v 300.02 9.273 33.521
v 149.891 9.266 33.515
v 300.025 8.011 32.469
v 300.025 8.011 32.469
v 149.891 9.266 33.515
v 149.938 8.033 32.485
v 300.025 8.011 32.469
v 149.938 8.033 32.485
v 300.046 6.761 31.425
v 300.046 6.761 31.425
v 149.938 8.033 32.485
v 149.903 6.744 31.413
v 149.883 5.464 30.138
v 75.033 3.987 28.661
v 149.885 4.412 28.663
v 149.885 4.412 28.663
v 75.033 3.987 28.661
v 75.033 2.933 27.185
v 149.885 4.412 28.663
v 75.033 2.933 27.185
v 149.937 3.605 27.213
v 149.937 3.605 27.213
v 75.033 2.933 27.185
v 75.067 2.325 25.727
v 149.937 3.605 27.213
v 75.067 2.325 25.727
v 149.919 2.96 25.728
v 149.919 2.96 25.728
v 75.067 2.325 25.727
v 75.087 1.706 24.05
v -0.02 0.407 22.55
v 75.087 1.706 24.05
v 0.01 0.85 24.041
v 0.01 0.85 24.041
v 75.087 1.706 24.05
v 75.067 2.325 25.727
v 0.01 0.85 24.041
v 75.067 2.325 25.727
v 0.002 1.688 25.724
v 0.002 1.688 25.724
v 75.067 2.325 25.727
v 75.033 2.933 27.185
v 0.002 1.688 25.724
v 75.033 2.933 27.185
v 0.014 2.54 27.206
v 0.014 2.54 27.206
v 75.033 2.933 27.185
v 75.033 3.987 28.661
v 149.919 12.236 35.216
v 75.041 10.529 34.147
v 149.906 10.752 34.366
v 149.906 10.752 34.366
v 75.041 10.529 34.147
v 75.032 9.047 33.299
v 149.906 10.752 34.366
v 75.032 9.047 33.299
v 149.891 9.266 33.515
v 149.891 9.266 33.515
v 75.032 9.047 33.299
v 75.08 7.605 32.269
v 149.891 9.266 33.515
v 75.08 7.605 32.269
v 149.938 8.033 32.485
v 149.938 8.033 32.485
v 75.08 7.605 32.269
v 75.066 6.33 31.208
v 149.938 8.033 32.485
v 75.066 6.33 31.208
v 149.903 6.744 31.413
v 149.903 6.744 31.413
v 75.066 6.33 31.208
v 75.032 5.041 29.926
v -0.014 3.575 28.668
v 75.032 5.041 29.926
v -0.023 4.623 29.928
v -0.023 4.623 29.928
v 75.032 5.041 29.926
v 75.066 6.33 31.208
v -0.023 4.623 29.928
v 75.066 6.33 31.208
v 0 6.114 30.994
v 0 6.114 30.994
v 75.066 6.33 31.208
v 75.08 7.605 32.269
v 0 6.114 30.994
v 75.08 7.605 32.269
v 0.027 7.399 32.061
v 0.027 7.399 32.061
v 75.08 7.605 32.269
v 75.032 9.047 33.299
v 0.027 7.399 32.061
v 75.032 9.047 33.299
v -0.017 8.843 33.093
v -0.017 8.843 33.093
v 75.032 9.047 33.299
v 75.041 10.529 34.147
v 149.913 33.528 28.677
v 75.081 32.906 29.95
v 149.879 32.45 30.136
v 149.879 32.45 30.136
v 75.081 32.906 29.95
v 75.054 31.622 31.202
v 149.879 32.45 30.136
v 75.054 31.622 31.202
v 149.885 31.399 31.404
v 149.885 31.399 31.404
v 75.054 31.622 31.202
v 75.04 30.347 32.249
v 149.885 31.399 31.404
v 75.04 30.347 32.249
v 149.882 30.132 32.456
v 149.882 30.132 32.456
v 75.04 30.347 32.249
v 75.065 28.889 33.316
v 149.882 30.132 32.456
v 75.065 28.889 33.316
v 149.885 28.659 33.513
v 149.885 28.659 33.513
v 75.065 28.889 33.316
v 75.063 27.412 34.158
v 149.893 36.043 22.342
v 75.058 36.475 24.035
v 149.894 35.622 24.029
v 149.894 35.622 24.029
v 75.058 36.475 24.035
v 75.047 35.835 25.717
v 149.894 35.622 24.029
v 75.047 35.835 25.717
v 149.932 35.227 25.735
v 149.932 35.227 25.735
v 75.047 35.835 25.717
v 75.065 35.003 27.201
v 149.932 35.227 25.735
v 75.065 35.003 27.201
v 149.933 34.384 27.211
v 149.933 34.384 27.211
v 75.065 35.003 27.201
v 75.086 33.964 28.688
v -0.028 33.293 29.925
v 75.086 33.964 28.688
v 0.005 34.37 28.677
v 0.005 34.37 28.677
v 75.086 33.964 28.688
v 75.065 35.003 27.201
v 0.005 34.37 28.677
v 75.065 35.003 27.201
v 0.022 35.436 27.209
v 0.022 35.436 27.209
v 75.065 35.003 27.201
v 75.047 35.835 25.717
v 0.022 35.436 27.209
v 75.047 35.835 25.717
v -0.024 36.248 25.711
v -0.024 36.248 25.711
v 75.047 35.835 25.717
v 75.058 36.475 24.035
v -0.025 25.916 34.354
v 75.063 27.412 34.158
v 0.008 27.415 33.738
v 0.008 27.415 33.738
v 75.063 27.412 34.158
v 75.065 28.889 33.316
v 0.008 27.415 33.738
v 75.065 28.889 33.316
v 0.006 29.1 33.105
v 0.006 29.1 33.105
v 75.065 28.889 33.316
v 75.04 30.347 32.249
v 0.006 29.1 33.105
v 75.04 30.347 32.249
v 0.007 30.577 32.051
v 0.007 30.577 32.051
v 75.04 30.347 32.249
v 75.054 31.622 31.202
v 0.007 30.577 32.051
v 75.054 31.622 31.202
v -0.029 32.027 30.979
v -0.029 32.027 30.979
v 75.054 31.622 31.202
v 75.081 32.906 29.95
v -0.029 32.027 30.979
v 75.081 32.906 29.95
v -0.028 33.293 29.925
v 300.055 27.219 34.381
v 149.885 28.659 33.513
v 149.936 27.219 34.381
v 149.936 27.219 34.381
v 149.885 28.659 33.513
v 75.063 27.412 34.158
v 149.936 27.219 34.381
v 75.063 27.412 34.158
v 149.928 25.737 35.22
v 149.928 25.737 35.22
v 75.063 27.412 34.158
v -0.025 25.916 34.354
v 149.928 25.737 35.22
v -0.025 25.916 34.354
v 149.885 24.02 35.621
v 149.885 24.02 35.621
v -0.025 25.916 34.354
v -0.018 24.234 34.78
v 149.885 24.02 35.621
v -0.018 24.234 34.78
v 149.923 22.36 36.061
v 149.923 22.36 36.061
v -0.018 24.234 34.78
v 0.011 22.567 35.216
v 149.923 22.36 36.061
v 0.011 22.567 35.216
v 149.895 20.654 36.258
v 149.895 20.654 36.258
v 0.011 22.567 35.216
v -0.024 20.645 35.409
v 149.895 20.654 36.258
v -0.024 20.645 35.409
v 149.915 18.981 36.479
v 149.915 18.981 36.479
v -0.024 20.645 35.409
v -0.018 18.963 35.412
v 149.915 18.981 36.479
v -0.018 18.963 35.412
v 149.905 17.287 36.263
v 149.905 17.287 36.263
v -0.018 18.963 35.412
v -0.019 17.276 35.412
v 149.905 17.287 36.263
v -0.019 17.276 35.412
v 149.882 15.584 36.041
v 149.882 15.584 36.041
v -0.019 17.276 35.412
v 0.014 15.612 35.217
v 149.882 15.584 36.041
v 0.014 15.612 35.217
v 149.888 13.901 35.622
v 149.888 13.901 35.622
v 0.014 15.612 35.217
v -0.01 13.909 34.784
v 149.888 13.901 35.622
v -0.01 13.909 34.784
v 149.919 12.236 35.216
v 149.919 12.236 35.216
v -0.01 13.909 34.784
v -0.013 12.219 34.36
v 149.919 12.236 35.216
v -0.013 12.219 34.36
v 75.041 10.529 34.147
v 75.041 10.529 34.147
v -0.013 12.219 34.36
v -0.029 10.522 33.72
v 75.041 10.529 34.147
v -0.029 10.522 33.72
v -0.017 8.843 33.093
v 600.037 2.519 18.968
v 600.024 2.51 20.648
v 449.936 1.688 20.663
v 449.936 1.688 20.663
v 600.024 2.51 20.648
v 449.919 1.887 22.341
v 449.919 1.887 22.341
v 600.024 2.51 20.648
v 600.029 2.724 22.548
v 449.919 1.887 22.341
v 600.029 2.724 22.548
v 449.938 2.322 24.038
v 449.938 2.322 24.038
v 600.029 2.724 22.548
v 600.061 3.168 24.251
v 449.938 2.322 24.038
v 600.061 3.168 24.251
v 449.918 2.94 25.714
v 600.082 15.623 37.544
v 524.999 13.919 36.478
v 600.067 13.926 37.115
v 600.067 13.926 37.115
v 524.999 13.919 36.478
v 524.98 12.219 35.836
v 600.067 13.926 37.115
v 524.98 12.219 35.836
v 600.032 12.215 36.255
v 600.032 12.215 36.255
v 524.98 12.219 35.836
v 525.002 10.759 35.004
v 600.032 12.215 36.255
v 525.002 10.759 35.004
v 600.07 10.765 35.43
v 600.07 10.765 35.43
v 525.002 10.759 35.004
v 525.009 9.288 33.953
v 600.07 10.765 35.43
v 525.009 9.288 33.953
v 600.035 9.265 34.358
v 600.035 9.265 34.358
v 525.009 9.288 33.953
v 524.986 8.007 32.887
v 600.035 9.265 34.358
v 524.986 8.007 32.887
v 600.05 8.01 33.312
v 600.05 8.01 33.312
v 524.986 8.007 32.887
v 525.015 6.762 31.637
v 600.05 8.01 33.312
v 525.015 6.762 31.637
v 600.027 6.94 32.035
v 600.027 6.94 32.035
v 525.015 6.762 31.637
v 524.999 5.696 30.364
v 600.027 6.94 32.035
v 524.999 5.696 30.364
v 600.077 5.921 30.584
v 600.077 5.921 30.584
v 524.999 5.696 30.364
v 525.009 4.86 28.893
v 600.077 5.921 30.584
v 525.009 4.86 28.893
v 600.081 5.08 29.11
v 600.081 5.08 29.11
v 525.009 4.86 28.893
v 525.022 4.026 27.424
v 600.081 5.08 29.11
v 525.022 4.026 27.424
v 600.038 4.207 27.402
v 600.038 4.207 27.402
v 525.022 4.026 27.424
v 600.047 3.581 25.931
v 600.061 3.168 24.251
v 600.047 3.581 25.931
v 449.918 2.94 25.714
v 449.918 2.94 25.714
v 600.047 3.581 25.931
v 525.022 4.026 27.424
v 449.918 2.94 25.714
v 525.022 4.026 27.424
v 449.953 3.597 27.208
v 449.953 3.597 27.208
v 525.022 4.026 27.424
v 525.009 4.86 28.893
v 449.953 3.597 27.208
v 525.009 4.86 28.893
v 449.906 4.408 28.66
v 449.906 4.408 28.66
v 525.009 4.86 28.893
v 524.999 5.696 30.364
v 449.906 4.408 28.66
v 524.999 5.696 30.364
v 449.928 5.478 30.147
v 449.928 5.478 30.147
v 524.999 5.696 30.364
v 525.015 6.762 31.637
v 449.928 5.478 30.147
v 525.015 6.762 31.637
v 449.911 6.731 31.404
v 449.911 6.731 31.404
v 525.015 6.762 31.637
v 524.986 8.007 32.887
v 449.911 6.731 31.404
v 524.986 8.007 32.887
v 449.918 8.001 32.462
v 449.918 8.001 32.462
v 524.986 8.007 32.887
v 525.009 9.288 33.953
v 449.918 8.001 32.462
v 525.009 9.288 33.953
v 449.95 9.288 33.532
v 449.95 9.288 33.532
v 525.009 9.288 33.953
v 525.002 10.759 35.004
v 449.95 9.288 33.532
v 525.002 10.759 35.004
v 449.937 10.755 34.368
v 449.937 10.755 34.368
v 525.002 10.759 35.004
v 524.98 12.219 35.836
v 449.937 10.755 34.368
v 524.98 12.219 35.836
v 449.942 12.234 35.214
v 449.942 12.234 35.214
v 524.98 12.219 35.836
v 524.999 13.919 36.478
v 449.942 12.234 35.214
v 524.999 13.919 36.478
v 449.95 13.927 35.64
v 449.95 13.927 35.64
v 524.999 13.919 36.478
v 449.935 15.603 36.054
v 449.935 15.603 36.054
v 524.999 13.919 36.478
v 600.082 15.623 37.544
v 449.935 15.603 36.054
v 600.082 15.623 37.544
v 449.923 17.281 36.47
v 449.923 17.281 36.47
v 600.082 15.623 37.544
v 600.04 17.28 37.945
v 449.923 17.281 36.47
v 600.04 17.28 37.945
v 449.915 18.963 36.466
v 449.915 18.963 36.466
v 600.04 17.28 37.945
v 600.082 18.996 37.966
v 449.915 18.963 36.466
v 600.082 18.996 37.966
v 449.912 20.647 36.464
v 449.912 20.647 36.464
v 600.082 18.996 37.966
v 600.07 20.675 37.96
v 449.912 20.647 36.464
v 600.07 20.675 37.96
v 449.929 22.346 36.051
v 600.045 33.096 29.092
v 525.012 32.272 30.371
v 600.049 32.045 30.57
v 600.049 32.045 30.57
v 525.012 32.272 30.371
v 524.967 31.186 31.613
v 600.049 32.045 30.57
v 524.967 31.186 31.613
v 600.07 31.006 32.057
v 600.07 31.006 32.057
v 524.967 31.186 31.613
v 524.968 29.922 32.879
v 600.07 31.006 32.057
v 524.968 29.922 32.879
v 600.048 29.936 33.31
v 600.048 29.936 33.31
v 524.968 29.922 32.879
v 524.981 28.666 33.939
v 600.048 29.936 33.31
v 524.981 28.666 33.939
v 600.053 28.675 34.367
v 600.053 28.675 34.367
v 524.981 28.666 33.939
v 524.99 27.196 34.998
v 600.053 28.675 34.367
v 524.99 27.196 34.998
v 600.042 27.191 35.416
v 600.042 27.191 35.416
v 524.99 27.196 34.998
v 525.022 25.743 35.857
v 600.042 27.191 35.416
v 525.022 25.743 35.857
v 600.043 25.716 36.26
v 600.043 25.716 36.26
v 525.022 25.743 35.857
v 525.017 24.053 36.487
v 600.043 25.716 36.26
v 525.017 24.053 36.487
v 600.073 24.05 37.118
v 600.073 24.05 37.118
v 525.017 24.053 36.487
v 600.026 22.541 37.516
v 600.048 33.731 27.407
v 525.017 34.173 27.421
v 525.005 33.321 28.891
v 525.005 33.321 28.891
v 525.017 34.173 27.421
v 449.953 33.537 28.684
v 525.005 33.321 28.891
v 449.953 33.537 28.684
v 449.939 32.473 30.153
v 600.07 20.675 37.96
v 600.026 22.541 37.516
v 449.929 22.346 36.051
v 449.929 22.346 36.051
v 600.026 22.541 37.516
v 525.017 24.053 36.487
v 449.929 22.346 36.051
v 525.017 24.053 36.487
v 449.937 24.038 35.633
v 449.937 24.038 35.633
v 525.017 24.053 36.487
v 525.022 25.743 35.857
v 449.937 24.038 35.633
v 525.022 25.743 35.857
v 449.941 25.727 35.214
v 449.941 25.727 35.214
v 525.022 25.743 35.857
v 524.99 27.196 34.998
v 449.941 25.727 35.214
v 524.99 27.196 34.998
v 449.923 27.19 34.361
v 449.923 27.19 34.361
v 524.99 27.196 34.998
v 524.981 28.666 33.939
v 449.923 27.19 34.361
v 524.981 28.666 33.939
v 449.952 28.687 33.533
v 449.952 28.687 33.533
v 524.981 28.666 33.939
v 524.968 29.922 32.879
v 449.952 28.687 33.533
v 524.968 29.922 32.879
v 449.935 30.151 32.47
v 449.935 30.151 32.47
v 524.968 29.922 32.879
v 524.967 31.186 31.613
v 449.935 30.151 32.47
v 524.967 31.186 31.613
v 449.948 31.425 31.422
v 449.948 31.425 31.422
v 524.967 31.186 31.613
v 525.012 32.272 30.371
v 300.047 34.381 27.209
v 449.945 34.375 27.204
v 300.026 35.21 25.723
v 300.026 35.21 25.723
v 449.945 34.375 27.204
v 449.952 35.223 25.732
v 300.026 35.21 25.723
v 449.952 35.223 25.732
v 300.045 35.645 24.045
v 300.045 35.645 24.045
v 449.952 35.223 25.732
v 449.905 35.612 24.021
v 300.045 35.645 24.045
v 449.905 35.612 24.021
v 300.008 36.041 22.34
v 300.008 36.041 22.34
v 449.905 35.612 24.021
v 449.954 36.068 22.359
v 300.008 36.041 22.34
v 449.954 36.068 22.359
v 375.105 36.278 20.672
v 375.105 36.278 20.672
v 449.954 36.068 22.359
v 449.929 36.261 20.66
v 375.105 36.278 20.672
v 449.929 36.261 20.66
v 449.961 36.494 18.989
v 449.953 33.537 28.684
v 300.013 33.515 28.668
v 449.939 32.473 30.153
v 449.939 32.473 30.153
v 300.013 33.515 28.668
v 300.029 32.471 30.151
v 449.939 32.473 30.153
v 300.029 32.471 30.151
v 375.089 31.417 31.417
v 375.089 31.417 31.417
v 300.029 32.471 30.151
v 300.056 31.436 31.43
v 375.089 31.417 31.417
v 300.056 31.436 31.43
v 375.073 30.141 32.463
v 375.073 30.141 32.463
v 300.056 31.436 31.43
v 300.019 30.145 32.466
v 375.073 30.141 32.463
v 300.019 30.145 32.466
v 375.065 28.66 33.513
v 375.065 28.66 33.513
v 300.019 30.145 32.466
v 300.026 28.674 33.523
v 375.065 28.66 33.513
v 300.026 28.674 33.523
v 375.06 27.181 34.354
v 375.06 27.181 34.354
v 300.026 28.674 33.523
v 300.055 27.219 34.381
v 375.06 27.181 34.354
v 300.055 27.219 34.381
v 375.114 25.743 35.225
v 375.114 25.743 35.225
v 300.055 27.219 34.381
v 300.023 25.72 35.209
v 375.114 25.743 35.225
v 300.023 25.72 35.209
v 375.074 24.028 35.627
v 375.074 24.028 35.627
v 300.023 25.72 35.209
v 300.023 24.033 35.63
v 375.074 24.028 35.627
v 300.023 24.033 35.63
v 375.057 22.329 36.039
v 375.057 22.329 36.039
v 300.023 24.033 35.63
v 300.038 22.357 36.06
v 375.057 22.329 36.039
v 300.038 22.357 36.06
v 375.088 20.664 36.266
v 375.088 20.664 36.266
v 300.038 22.357 36.06
v 300.02 20.658 36.261
v 375.088 20.664 36.266
v 300.02 20.658 36.261
v 375.07 18.965 36.467
v 375.07 18.965 36.467
v 300.02 20.658 36.261
v 300.035 18.982 36.48
v 375.07 18.965 36.467
v 300.035 18.982 36.48
v 375.063 17.273 36.253
v 375.063 17.273 36.253
v 300.035 18.982 36.48
v 300.053 17.307 36.278
v 375.063 17.273 36.253
v 300.053 17.307 36.278
v 375.095 15.609 36.058
v 375.095 15.609 36.058
v 300.053 17.307 36.278
v 300.032 15.606 36.057
v 375.095 15.609 36.058
v 300.032 15.606 36.057
v 375.096 13.923 35.638
v 375.096 13.923 35.638
v 300.032 15.606 36.057
v 300.023 13.913 35.63
v 375.096 13.923 35.638
v 300.023 13.913 35.63
v 375.087 12.23 35.211
v 375.087 12.23 35.211
v 300.023 13.913 35.63
v 300.056 12.249 35.225
v 375.087 12.23 35.211
v 300.056 12.249 35.225
v 375.063 10.737 34.356
v 375.063 10.737 34.356
v 300.056 12.249 35.225
v 300.018 10.747 34.363
v 375.063 10.737 34.356
v 300.018 10.747 34.363
v 375.101 9.288 33.531
v 375.101 9.288 33.531
v 300.018 10.747 34.363
v 300.02 9.273 33.521
v 375.101 9.288 33.531
v 300.02 9.273 33.521
v 375.058 7.993 32.456
v 375.058 7.993 32.456
v 300.02 9.273 33.521
v 300.025 8.011 32.469
v 375.058 7.993 32.456
v 300.025 8.011 32.469
v 375.112 6.765 31.428
v 375.112 6.765 31.428
v 300.025 8.011 32.469
v 300.046 6.761 31.425
v 375.112 6.765 31.428
v 300.046 6.761 31.425
v 300.012 5.472 30.143
v 300.012 5.472 30.143
v 300.046 6.761 31.425
v 149.903 6.744 31.413
v 300.012 5.472 30.143
v 149.903 6.744 31.413
v 149.883 5.464 30.138
v 149.883 5.464 30.138
v 149.903 6.744 31.413
v 75.032 5.041 29.926
v 149.883 5.464 30.138
v 75.032 5.041 29.926
v 75.033 3.987 28.661
v 75.033 3.987 28.661
v 75.032 5.041 29.926
v -0.014 3.575 28.668
v 75.033 3.987 28.661
v -0.014 3.575 28.668
v 0.014 2.54 27.206
v -0.028 33.293 29.925
v 75.081 32.906 29.95
v 75.086 33.964 28.688
v 75.086 33.964 28.688
v 75.081 32.906 29.95
v 149.913 33.528 28.677
v 75.086 33.964 28.688
v 149.913 33.528 28.677
v 149.933 34.384 27.211
v 149.933 34.384 27.211
v 149.913 33.528 28.677
v 300.013 33.515 28.668
v 149.933 34.384 27.211
v 300.013 33.515 28.668
v 300.047 34.381 27.209
v 300.047 34.381 27.209
v 300.013 33.515 28.668
v 449.953 33.537 28.684
v 300.047 34.381 27.209
v 449.953 33.537 28.684
v 449.945 34.375 27.204
v 449.945 34.375 27.204
v 449.953 33.537 28.684
v 525.017 34.173 27.421
v 449.945 34.375 27.204
v 525.017 34.173 27.421
v 449.952 35.223 25.732
v 449.952 35.223 25.732
v 525.017 34.173 27.421
v 600.024 34.347 25.919
v 449.952 35.223 25.732
v 600.024 34.347 25.919
v 449.905 35.612 24.021
v 449.905 35.612 24.021
v 600.024 34.347 25.919
v 600.08 34.808 24.261
v 449.905 35.612 24.021
v 600.08 34.808 24.261
v 449.954 36.068 22.359
v 449.954 36.068 22.359
v 600.08 34.808 24.261
v 600.073 35.225 22.57
v 449.954 36.068 22.359
v 600.073 35.225 22.57
v 449.929 36.261 20.66
v 449.929 36.261 20.66
v 600.073 35.225 22.57
v 600.057 35.425 20.665
v 449.929 36.261 20.66
v 600.057 35.425 20.665
v 449.961 36.494 18.989
v 449.961 36.494 18.989
v 600.057 35.425 20.665
v 600.036 35.41 18.967
v 449.961 36.494 18.989
v 600.036 35.41 18.967
v 449.955 36.28 17.3
v 449.955 36.28 17.3
v 600.036 35.41 18.967
v 600.066 35.431 17.296
v 449.955 36.28 17.3
v 600.066 35.431 17.296
v 449.954 36.068 15.612
v 449.954 36.068 15.612
v 600.066 35.431 17.296
v 600.056 35.213 15.604
v 449.954 36.068 15.612
v 600.056 35.213 15.604
v 449.962 35.651 13.929
v 449.962 35.651 13.929
v 600.056 35.213 15.604
v 600.037 34.778 13.908
v 449.962 35.651 13.929
v 600.037 34.778 13.908
v 449.943 35.217 12.233
v 600.065 22.568 0.428
v 524.977 24.025 1.679
v 600.078 24.054 0.856
v 600.078 24.054 0.856
v 524.977 24.025 1.679
v 525.003 25.729 2.324
v 600.078 24.054 0.856
v 525.003 25.729 2.324
v 600.026 25.704 1.674
v 600.026 25.704 1.674
v 525.003 25.729 2.324
v 525.007 27.208 2.959
v 600.026 25.704 1.674
v 525.007 27.208 2.959
v 600.064 27.206 2.536
v 600.064 27.206 2.536
v 525.007 27.208 2.959
v 525.01 28.686 4.014
v 600.064 27.206 2.536
v 525.01 28.686 4.014
v 600.065 28.683 3.59
v 600.065 28.683 3.59
v 525.01 28.686 4.014
v 525.02 29.958 5.073
v 600.065 28.683 3.59
v 525.02 29.958 5.073
v 600.024 29.92 4.624
v 600.024 29.92 4.624
v 525.02 29.958 5.073
v 524.974 31.191 6.315
v 600.024 29.92 4.624
v 524.974 31.191 6.315
v 600.06 30.999 6.118
v 600.06 30.999 6.118
v 524.974 31.191 6.315
v 525.002 32.265 7.595
v 600.06 30.999 6.118
v 525.002 32.265 7.595
v 600.068 32.059 7.387
v 600.068 32.059 7.387
v 525.002 32.265 7.595
v 524.996 33.315 9.067
v 600.068 32.059 7.387
v 524.996 33.315 9.067
v 600.057 33.105 8.858
v 600.057 33.105 8.858
v 524.996 33.315 9.067
v 525.019 34.174 10.555
v 600.057 33.105 8.858
v 525.019 34.174 10.555
v 600.076 33.751 10.554
v 600.076 33.751 10.554
v 525.019 34.174 10.555
v 600.042 34.359 12.223
v 600.037 34.778 13.908
v 600.042 34.359 12.223
v 449.943 35.217 12.233
v 449.943 35.217 12.233
v 600.042 34.359 12.223
v 525.019 34.174 10.555
v 449.943 35.217 12.233
v 525.019 34.174 10.555
v 449.943 34.373 10.757
v 449.943 34.373 10.757
v 525.019 34.174 10.555
v 524.996 33.315 9.067
v 449.943 34.373 10.757
v 524.996 33.315 9.067
v 449.94 33.528 9.28
v 449.94 33.528 9.28
v 524.996 33.315 9.067
v 525.002 32.265 7.595
v 449.94 33.528 9.28
v 525.002 32.265 7.595
v 449.961 32.488 8.026
v 449.961 32.488 8.026
v 525.002 32.265 7.595
v 524.974 31.191 6.315
v 449.961 32.488 8.026
v 524.974 31.191 6.315
v 449.94 31.42 6.75
v 449.94 31.42 6.75
v 524.974 31.191 6.315
v 525.02 29.958 5.073
v 449.94 31.42 6.75
v 525.02 29.958 5.073
v 449.936 30.152 5.483
v 449.936 30.152 5.483
v 525.02 29.958 5.073
v 525.01 28.686 4.014
v 449.936 30.152 5.483
v 525.01 28.686 4.014
v 449.932 28.673 4.427
v 449.932 28.673 4.427
v 525.01 28.686 4.014
v 525.007 27.208 2.959
v 449.932 28.673 4.427
v 525.007 27.208 2.959
v 449.955 27.213 3.595
v 449.955 27.213 3.595
v 525.007 27.208 2.959
v 525.003 25.729 2.324
v 449.955 27.213 3.595
v 525.003 25.729 2.324
v 449.946 25.731 2.958
v 449.946 25.731 2.958
v 525.003 25.729 2.324
v 524.977 24.025 1.679
v 600.061 3.59 12.233
v 525.013 4.02 10.552
v 600.07 4.229 10.551
v 600.07 4.229 10.551
v 525.013 4.02 10.552
v 525.009 4.86 9.074
v 600.07 4.229 10.551
v 525.009 4.86 9.074
v 600.079 5.078 8.868
v 600.079 5.078 8.868
v 525.009 4.86 9.074
v 524.979 5.682 7.583
v 600.079 5.078 8.868
v 524.979 5.682 7.583
v 600.061 5.909 7.384
v 600.061 5.909 7.384
v 524.979 5.682 7.583
v 524.974 6.734 6.316
v 600.061 5.909 7.384
v 524.974 6.734 6.316
v 600.062 6.965 6.119
v 600.062 6.965 6.119
v 524.974 6.734 6.316
v 524.975 7.999 5.051
v 600.062 6.965 6.119
v 524.975 7.999 5.051
v 600.073 8.026 4.649
v 600.073 8.026 4.649
v 524.975 7.999 5.051
v 524.965 9.257 3.992
v 600.073 8.026 4.649
v 524.965 9.257 3.992
v 600.072 9.291 3.594
v 600.072 9.291 3.594
v 524.965 9.257 3.992
v 524.986 10.748 2.948
v 600.072 9.291 3.594
v 524.986 10.748 2.948
v 600.067 10.763 2.537
v 600.067 10.763 2.537
v 524.986 10.748 2.948
v 524.996 12.231 2.321
v 600.067 10.763 2.537
v 524.996 12.231 2.321
v 600.025 12.21 1.673
v 600.025 12.21 1.673
v 524.996 12.231 2.321
v 524.963 13.894 1.672
v 600.025 12.21 1.673
v 524.963 13.894 1.672
v 600.051 13.914 0.843
v 449.96 15.62 1.91
v 524.963 13.894 1.672
v 449.934 13.915 2.319
v 449.934 13.915 2.319
v 524.963 13.894 1.672
v 524.996 12.231 2.321
v 449.934 13.915 2.319
v 524.996 12.231 2.321
v 449.906 12.209 2.938
v 449.906 12.209 2.938
v 524.996 12.231 2.321
v 524.986 10.748 2.948
v 449.906 12.209 2.938
v 524.986 10.748 2.948
v 449.936 10.754 3.585
v 449.936 10.754 3.585
v 524.986 10.748 2.948
v 524.965 9.257 3.992
v 449.936 10.754 3.585
v 524.965 9.257 3.992
v 449.941 9.282 4.431
v 449.941 9.282 4.431
v 524.965 9.257 3.992
v 524.975 7.999 5.051
v 449.941 9.282 4.431
v 524.975 7.999 5.051
v 449.927 8.007 5.478
v 449.927 8.007 5.478
v 524.975 7.999 5.051
v 524.974 6.734 6.316
v 449.927 8.007 5.478
v 524.974 6.734 6.316
v 449.908 6.729 6.734
v 449.908 6.729 6.734
v 524.974 6.734 6.316
v 524.979 5.682 7.583
v 449.908 6.729 6.734
v 524.979 5.682 7.583
v 449.936 5.484 8.013
v 449.936 5.484 8.013
v 524.979 5.682 7.583
v 525.009 4.86 9.074
v 449.936 5.484 8.013
v 525.009 4.86 9.074
v 449.936 4.429 9.278
v 449.936 4.429 9.278
v 525.009 4.86 9.074
v 525.013 4.02 10.552
v 600.051 13.914 0.843
v 524.963 13.894 1.672
v 600.038 15.592 0.414
v 600.038 15.592 0.414
v 524.963 13.894 1.672
v 449.96 15.62 1.91
v 600.038 15.592 0.414
v 449.96 15.62 1.91
v 600.077 17.306 0.223
v 600.077 17.306 0.223
v 449.96 15.62 1.91
v 449.928 17.285 1.684
v 600.077 17.306 0.223
v 449.928 17.285 1.684
v 600.052 18.975 0
v 600.052 18.975 0
v 449.928 17.285 1.684
v 449.916 18.963 1.467
v 600.052 18.975 0
v 449.916 18.963 1.467
v 600.026 20.644 0.198
v 600.026 20.644 0.198
v 449.916 18.963 1.467
v 449.926 20.657 1.683
v 600.026 20.644 0.198
v 449.926 20.657 1.683
v 600.065 22.568 0.428
v 600.065 22.568 0.428
v 449.926 20.657 1.683
v 449.916 22.336 1.888
v 600.065 22.568 0.428
v 449.916 22.336 1.888
v 524.977 24.025 1.679
v 524.977 24.025 1.679
v 449.916 22.336 1.888
v 449.923 24.028 2.314
v 524.977 24.025 1.679
v 449.923 24.028 2.314
v 449.946 25.731 2.958
v 600.037 2.519 18.968
v 449.914 1.462 18.966
v 600.047 2.526 17.286
v 600.047 2.526 17.286
v 449.914 1.462 18.966
v 449.957 1.703 17.3
v 600.047 2.526 17.286
v 449.957 1.703 17.3
v 600.062 2.748 15.607
v 600.062 2.748 15.607
v 449.957 1.703 17.3
v 449.915 1.884 15.592
v 600.062 2.748 15.607
v 449.915 1.884 15.592
v 600.074 3.177 13.926
v 600.074 3.177 13.926
v 449.915 1.884 15.592
v 449.94 2.323 13.918
v 600.074 3.177 13.926
v 449.94 2.323 13.918
v 600.061 3.59 12.233
v 600.061 3.59 12.233
v 449.94 2.323 13.918
v 449.929 2.949 12.226
v 600.061 3.59 12.233
v 449.929 2.949 12.226
v 525.013 4.02 10.552
v 525.013 4.02 10.552
v 449.929 2.949 12.226
v 449.918 3.573 10.745
v 525.013 4.02 10.552
v 449.918 3.573 10.745
v 449.936 4.429 9.278
v 300.056 36.496 18.991
v 149.925 36.488 17.298
v 149.892 36.464 18.968
v 149.892 36.464 18.968
v 149.925 36.488 17.298
v 75.073 37.329 18.983
v 149.892 36.464 18.968
v 75.073 37.329 18.983
v 75.03 37.087 20.648
v 75.03 37.087 20.648
v 75.073 37.329 18.983
v 0.029 37.972 20.677
v 75.03 37.087 20.648
v 0.029 37.972 20.677
v 0.018 37.542 22.569
v 300.025 2.319 24.035
v 149.919 2.96 25.728
v 149.898 2.313 24.031
v 149.898 2.313 24.031
v 149.919 2.96 25.728
v 75.087 1.706 24.05
v 149.898 2.313 24.031
v 75.087 1.706 24.05
v 149.909 1.898 22.35
v 149.909 1.898 22.35
v 75.087 1.706 24.05
v -0.02 0.407 22.55
v 149.909 1.898 22.35
v -0.02 0.407 22.55
v 149.899 1.681 20.658
v 149.899 1.681 20.658
v -0.02 0.407 22.55
v -0.008 0.205 20.658
v 149.899 1.681 20.658
v -0.008 0.205 20.658
v 149.901 1.471 18.972
v 149.901 1.471 18.972
v -0.008 0.205 20.658
v 0.003 0.002 18.977
v 149.901 1.471 18.972
v 0.003 0.002 18.977
v 149.91 1.689 17.29
v 149.91 1.689 17.29
v 0.003 0.002 18.977
v -0.008 0.205 17.285
v 149.91 1.689 17.29
v -0.008 0.205 17.285
v 149.932 1.915 15.614
v 149.932 1.915 15.614
v -0.008 0.205 17.285
v 0.006 0.426 15.605
v 149.932 1.915 15.614
v 0.006 0.426 15.605
v 75.074 1.697 13.923
v 75.074 1.697 13.923
v 0.006 0.426 15.605
v 0.015 0.854 13.923
v 75.074 1.697 13.923
v 0.015 0.854 13.923
v -0.018 1.674 12.22
v 600.037 2.519 18.968
v 449.936 1.688 20.663
v 449.914 1.462 18.966
v 449.914 1.462 18.966
v 449.936 1.688 20.663
v 375.079 1.471 18.972
v 449.914 1.462 18.966
v 375.079 1.471 18.972
v 449.957 1.703 17.3
v 449.957 1.703 17.3
v 375.079 1.471 18.972
v 375.11 1.704 17.301
v 449.957 1.703 17.3
v 375.11 1.704 17.301
v 449.915 1.884 15.592
v 449.915 1.884 15.592
v 375.11 1.704 17.301
v 375.098 1.906 15.609
v 449.915 1.884 15.592
v 375.098 1.906 15.609
v 449.94 2.323 13.918
v 449.94 2.323 13.918
v 375.098 1.906 15.609
v 375.076 2.313 13.911
v 449.94 2.323 13.918
v 375.076 2.313 13.911
v 449.929 2.949 12.226
v 449.929 2.949 12.226
v 375.076 2.313 13.911
v 375.071 2.942 12.222
v 449.929 2.949 12.226
v 375.071 2.942 12.222
v 449.918 3.573 10.745
v 449.918 3.573 10.745
v 375.071 2.942 12.222
v 375.089 3.587 10.755
v 449.918 3.573 10.745
v 375.089 3.587 10.755
v 449.936 4.429 9.278
v 449.936 4.429 9.278
v 375.089 3.587 10.755
v 375.062 4.411 9.265
v 449.936 4.429 9.278
v 375.062 4.411 9.265
v 449.936 5.484 8.013
v 449.936 5.484 8.013
v 375.062 4.411 9.265
v 375.089 5.485 8.014
v 449.936 5.484 8.013
v 375.089 5.485 8.014
v 449.908 6.729 6.734
v 449.908 6.729 6.734
v 375.089 5.485 8.014
v 375.115 6.768 6.762
v 449.908 6.729 6.734
v 375.115 6.768 6.762
v 449.927 8.007 5.478
v 449.927 8.007 5.478
v 375.115 6.768 6.762
v 375.086 8.012 5.482
v 449.927 8.007 5.478
v 375.086 8.012 5.482
v 449.941 9.282 4.431
v 449.941 9.282 4.431
v 375.086 8.012 5.482
v 375.111 9.295 4.441
v 449.941 9.282 4.431
v 375.111 9.295 4.441
v 449.936 10.754 3.585
v 449.936 10.754 3.585
v 375.111 9.295 4.441
v 375.115 10.773 3.599
v 449.936 10.754 3.585
v 375.115 10.773 3.599
v 449.906 12.209 2.938
v 449.906 12.209 2.938
v 375.115 10.773 3.599
v 375.065 12.215 2.942
v 449.906 12.209 2.938
v 375.065 12.215 2.942
v 449.934 13.915 2.319
v 449.934 13.915 2.319
v 375.065 12.215 2.942
v 375.085 13.915 2.319
v 449.934 13.915 2.319
v 375.085 13.915 2.319
v 449.96 15.62 1.91
v 449.96 15.62 1.91
v 375.085 13.915 2.319
v 375.069 15.591 1.889
v 449.96 15.62 1.91
v 375.069 15.591 1.889
v 449.928 17.285 1.684
v 449.928 17.285 1.684
v 375.069 15.591 1.889
v 375.097 17.297 1.692
v 449.928 17.285 1.684
v 375.097 17.297 1.692
v 449.916 18.963 1.467
v 449.916 18.963 1.467
v 375.097 17.297 1.692
v 375.097 18.984 1.482
v 449.916 18.963 1.467
v 375.097 18.984 1.482
v 449.926 20.657 1.683
v 449.926 20.657 1.683
v 375.097 18.984 1.482
v 375.07 20.652 1.679
v 449.926 20.657 1.683
v 375.07 20.652 1.679
v 449.916 22.336 1.888
v 449.916 22.336 1.888
v 375.07 20.652 1.679
v 375.111 22.367 1.91
v 449.916 22.336 1.888
v 375.111 22.367 1.91
v 449.923 24.028 2.314
v 449.923 24.028 2.314
v 375.111 22.367 1.91
v 375.085 24.035 2.319
v 449.923 24.028 2.314
v 375.085 24.035 2.319
v 449.946 25.731 2.958
v 449.946 25.731 2.958
v 375.085 24.035 2.319
v 375.074 25.714 2.946
v 449.946 25.731 2.958
v 375.074 25.714 2.946
v 449.955 27.213 3.595
v 449.955 27.213 3.595
v 375.074 25.714 2.946
v 375.085 27.198 3.584
v 449.955 27.213 3.595
v 375.085 27.198 3.584
v 449.932 28.673 4.427
v 449.932 28.673 4.427
v 375.085 27.198 3.584
v 375.106 28.688 4.438
v 449.932 28.673 4.427
v 375.106 28.688 4.438
v 449.936 30.152 5.483
v 449.936 30.152 5.483
v 375.106 28.688 4.438
v 375.083 30.149 5.481
v 449.936 30.152 5.483
v 375.083 30.149 5.481
v 449.94 31.42 6.75
v 449.94 31.42 6.75
v 375.083 30.149 5.481
v 375.064 31.4 6.736
v 449.94 31.42 6.75
v 375.064 31.4 6.736
v 449.961 32.488 8.026
v 449.961 32.488 8.026
v 375.064 31.4 6.736
v 375.075 32.462 8.007
v 449.961 32.488 8.026
v 375.075 32.462 8.007
v 449.94 33.528 9.28
v 449.94 33.528 9.28
v 375.075 32.462 8.007
v 375.065 33.51 9.267
v 449.94 33.528 9.28
v 375.065 33.51 9.267
v 449.943 34.373 10.757
v 449.943 34.373 10.757
v 375.065 33.51 9.267
v 375.074 34.359 10.747
v 449.943 34.373 10.757
v 375.074 34.359 10.747
v 449.943 35.217 12.233
v 449.943 35.217 12.233
v 375.074 34.359 10.747
v 375.113 35.23 12.243
v 449.943 35.217 12.233
v 375.113 35.23 12.243
v 449.962 35.651 13.929
v 449.962 35.651 13.929
v 375.113 35.23 12.243
v 375.087 35.633 13.916
v 449.962 35.651 13.929
v 375.087 35.633 13.916
v 449.954 36.068 15.612
v 449.954 36.068 15.612
v 375.087 35.633 13.916
v 375.099 36.063 15.609
v 449.954 36.068 15.612
v 375.099 36.063 15.609
v 449.955 36.28 17.3
v 449.955 36.28 17.3
v 375.099 36.063 15.609
v 375.081 36.261 17.286
v 449.955 36.28 17.3
v 375.081 36.261 17.286
v 449.961 36.494 18.989
v 449.961 36.494 18.989
v 375.081 36.261 17.286
v 375.09 36.479 18.978
v 449.961 36.494 18.989
v 375.09 36.479 18.978
v 375.105 36.278 20.672
v 375.105 36.278 20.672
v 375.09 36.479 18.978
v 300.022 36.262 20.66
v 375.105 36.278 20.672
v 300.022 36.262 20.66
v 300.008 36.041 22.34
v 300.008 36.041 22.34
v 300.022 36.262 20.66
v 149.924 36.487 20.671
v 300.008 36.041 22.34
v 149.924 36.487 20.671
v 149.893 36.043 22.342
v 600.045 33.096 29.092
v 525.005 33.321 28.891
v 525.012 32.272 30.371
v 525.012 32.272 30.371
v 525.005 33.321 28.891
v 449.939 32.473 30.153
v 525.012 32.272 30.371
v 449.939 32.473 30.153
v 449.948 31.425 31.422
v 449.948 31.425 31.422
v 449.939 32.473 30.153
v 375.089 31.417 31.417
v 449.948 31.425 31.422
v 375.089 31.417 31.417
v 449.935 30.151 32.47
v 449.935 30.151 32.47
v 375.089 31.417 31.417
v 375.073 30.141 32.463
v 449.935 30.151 32.47
v 375.073 30.141 32.463
v 449.952 28.687 33.533
v 449.952 28.687 33.533
v 375.073 30.141 32.463
v 375.065 28.66 33.513
v 449.952 28.687 33.533
v 375.065 28.66 33.513
v 449.923 27.19 34.361
v 449.923 27.19 34.361
v 375.065 28.66 33.513
v 375.06 27.181 34.354
v 449.923 27.19 34.361
v 375.06 27.181 34.354
v 449.941 25.727 35.214
v 449.941 25.727 35.214
v 375.06 27.181 34.354
v 375.114 25.743 35.225
v 449.941 25.727 35.214
v 375.114 25.743 35.225
v 449.937 24.038 35.633
v 449.937 24.038 35.633
v 375.114 25.743 35.225
v 375.074 24.028 35.627
v 449.937 24.038 35.633
v 375.074 24.028 35.627
v 449.929 22.346 36.051
v 449.929 22.346 36.051
v 375.074 24.028 35.627
v 375.057 22.329 36.039
v 449.929 22.346 36.051
v 375.057 22.329 36.039
v 449.912 20.647 36.464
v 449.912 20.647 36.464
v 375.057 22.329 36.039
v 375.088 20.664 36.266
v 449.912 20.647 36.464
v 375.088 20.664 36.266
v 449.915 18.963 36.466
v 449.915 18.963 36.466
v 375.088 20.664 36.266
v 375.07 18.965 36.467
v 449.915 18.963 36.466
v 375.07 18.965 36.467
v 449.923 17.281 36.47
v 449.923 17.281 36.47
v 375.07 18.965 36.467
v 375.063 17.273 36.253
v 449.923 17.281 36.47
v 375.063 17.273 36.253
v 449.935 15.603 36.054
v 449.935 15.603 36.054
v 375.063 17.273 36.253
v 375.095 15.609 36.058
v 449.935 15.603 36.054
v 375.095 15.609 36.058
v 449.95 13.927 35.64
v 449.95 13.927 35.64
v 375.095 15.609 36.058
v 375.096 13.923 35.638
v 449.95 13.927 35.64
v 375.096 13.923 35.638
v 449.942 12.234 35.214
v 449.942 12.234 35.214
v 375.096 13.923 35.638
v 375.087 12.23 35.211
v 449.942 12.234 35.214
v 375.087 12.23 35.211
v 449.937 10.755 34.368
v 449.937 10.755 34.368
v 375.087 12.23 35.211
v 375.063 10.737 34.356
v 449.937 10.755 34.368
v 375.063 10.737 34.356
v 449.95 9.288 33.532
v 449.95 9.288 33.532
v 375.063 10.737 34.356
v 375.101 9.288 33.531
v 449.95 9.288 33.532
v 375.101 9.288 33.531
v 449.918 8.001 32.462
v 449.918 8.001 32.462
v 375.101 9.288 33.531
v 375.058 7.993 32.456
v 449.918 8.001 32.462
v 375.058 7.993 32.456
v 449.911 6.731 31.404
v 449.911 6.731 31.404
v 375.058 7.993 32.456
v 375.112 6.765 31.428
v 449.911 6.731 31.404
v 375.112 6.765 31.428
v 449.928 5.478 30.147
v 449.928 5.478 30.147
v 375.112 6.765 31.428
v 300.012 5.472 30.143
v 449.928 5.478 30.147
v 300.012 5.472 30.143
v 449.906 4.408 28.66
v 449.906 4.408 28.66
v 300.012 5.472 30.143
v 300.043 4.439 28.682
v 449.906 4.408 28.66
v 300.043 4.439 28.682
v 449.953 3.597 27.208
v 449.953 3.597 27.208
v 300.043 4.439 28.682
v 300.011 3.574 27.191
v 449.953 3.597 27.208
v 300.011 3.574 27.191
v 449.918 2.94 25.714
v 449.918 2.94 25.714
v 300.011 3.574 27.191
v 300.048 2.967 25.733
v 449.918 2.94 25.714
v 300.048 2.967 25.733
v 449.938 2.322 24.038
v 449.938 2.322 24.038
v 300.048 2.967 25.733
v 300.025 2.319 24.035
v 449.938 2.322 24.038
v 300.025 2.319 24.035
v 449.919 1.887 22.341
v 449.919 1.887 22.341
v 300.025 2.319 24.035
v 300.042 1.908 22.357
v 449.919 1.887 22.341
v 300.042 1.908 22.357
v 449.936 1.688 20.663
v 449.936 1.688 20.663
v 300.042 1.908 22.357
v 300.005 1.672 20.652
v 449.936 1.688 20.663
v 300.005 1.672 20.652
v 375.079 1.471 18.972
v 375.079 1.471 18.972
v 300.005 1.672 20.652
v 300.016 1.469 18.971
v 375.079 1.471 18.972
v 300.016 1.469 18.971
v 375.11 1.704 17.301
v 375.11 1.704 17.301
v 300.016 1.469 18.971
v 300.001 1.669 17.276
v 375.11 1.704 17.301
v 300.001 1.669 17.276
v 375.098 1.906 15.609
v 375.098 1.906 15.609
v 300.001 1.669 17.276
v 300.005 1.882 15.591
v 375.098 1.906 15.609
v 300.005 1.882 15.591
v 375.076 2.313 13.911
v 375.076 2.313 13.911
v 300.005 1.882 15.591
v 300.021 2.316 13.913
v 375.076 2.313 13.911
v 300.021 2.316 13.913
v 375.071 2.942 12.222
v 375.071 2.942 12.222
v 300.021 2.316 13.913
v 300.021 2.948 12.226
v 375.071 2.942 12.222
v 300.021 2.948 12.226
v 375.089 3.587 10.755
v 375.089 3.587 10.755
v 300.021 2.948 12.226
v 300.014 3.576 10.747
v 375.089 3.587 10.755
v 300.014 3.576 10.747
v 375.062 4.411 9.265
v 375.062 4.411 9.265
v 300.014 3.576 10.747
v 300.002 4.411 9.265
v 375.062 4.411 9.265
v 300.002 4.411 9.265
v 375.089 5.485 8.014
v 375.089 5.485 8.014
v 300.002 4.411 9.265
v 300.046 5.496 8.022
v 375.089 5.485 8.014
v 300.046 5.496 8.022
v 375.115 6.768 6.762
v 375.115 6.768 6.762
v 300.046 5.496 8.022
v 300.021 6.744 6.745
v 375.115 6.768 6.762
v 300.021 6.744 6.745
v 375.086 8.012 5.482
v 375.086 8.012 5.482
v 300.021 6.744 6.745
v 300.031 8.015 5.484
v 375.086 8.012 5.482
v 300.031 8.015 5.484
v 375.111 9.295 4.441
v 375.111 9.295 4.441
v 300.031 8.015 5.484
v 300.043 9.289 4.436
v 375.111 9.295 4.441
v 300.043 9.289 4.436
v 375.115 10.773 3.599
v 375.115 10.773 3.599
v 300.043 9.289 4.436
v 300.003 10.736 3.573
v 375.115 10.773 3.599
v 300.003 10.736 3.573
v 375.065 12.215 2.942
v 375.065 12.215 2.942
v 300.003 10.736 3.573
v 300.045 12.242 2.961
v 375.065 12.215 2.942
v 300.045 12.242 2.961
v 375.085 13.915 2.319
v 375.085 13.915 2.319
v 300.045 12.242 2.961
v 299.998 13.896 2.305
v 375.085 13.915 2.319
v 299.998 13.896 2.305
v 375.069 15.591 1.889
v 375.069 15.591 1.889
v 299.998 13.896 2.305
v 300.023 15.6 1.896
v 375.069 15.591 1.889
v 300.023 15.6 1.896
v 375.097 17.297 1.692
v 375.097 17.297 1.692
v 300.023 15.6 1.896
v 300 17.271 1.674
v 375.097 17.297 1.692
v 300 17.271 1.674
v 375.097 18.984 1.482
v 375.097 18.984 1.482
v 300 17.271 1.674
v 300.041 18.986 1.483
v 375.097 18.984 1.482
v 300.041 18.986 1.483
v 375.07 20.652 1.679
v 375.07 20.652 1.679
v 300.041 18.986 1.483
v 300.056 20.683 1.701
v 375.07 20.652 1.679
v 300.056 20.683 1.701
v 375.111 22.367 1.91
v 375.111 22.367 1.91
v 300.056 20.683 1.701
v 300.032 22.353 1.901
v 375.111 22.367 1.91
v 300.032 22.353 1.901
v 375.085 24.035 2.319
v 375.085 24.035 2.319
v 300.032 22.353 1.901
v 300.036 24.043 2.324
v 375.085 24.035 2.319
v 300.036 24.043 2.324
v 375.074 25.714 2.946
v 375.074 25.714 2.946
v 300.036 24.043 2.324
v 300.042 25.733 2.96
v 375.074 25.714 2.946
v 300.042 25.733 2.96
v 375.085 27.198 3.584
v 375.085 27.198 3.584
v 300.042 25.733 2.96
v 300.025 27.198 3.584
v 375.085 27.198 3.584
v 300.025 27.198 3.584
v 375.106 28.688 4.438
v 375.106 28.688 4.438
v 300.025 27.198 3.584
v 300.05 28.691 4.439
v 375.106 28.688 4.438
v 300.05 28.691 4.439
v 375.083 30.149 5.481
v 375.083 30.149 5.481
v 300.05 28.691 4.439
v 300.013 30.141 5.475
v 375.083 30.149 5.481
v 300.013 30.141 5.475
v 375.064 31.4 6.736
v 375.064 31.4 6.736
v 300.013 30.141 5.475
v 300.053 31.434 6.76
v 375.064 31.4 6.736
v 300.053 31.434 6.76
v 375.075 32.462 8.007
v 375.075 32.462 8.007
v 300.053 31.434 6.76
v 300.022 32.466 8.01
v 375.075 32.462 8.007
v 300.022 32.466 8.01
v 375.065 33.51 9.267
v 375.065 33.51 9.267
v 300.022 32.466 8.01
v 299.999 33.504 9.263
v 375.065 33.51 9.267
v 299.999 33.504 9.263
v 375.074 34.359 10.747
v 375.074 34.359 10.747
v 299.999 33.504 9.263
v 300.045 34.38 10.762
v 375.074 34.359 10.747
v 300.045 34.38 10.762
v 375.113 35.23 12.243
v 375.113 35.23 12.243
v 300.045 34.38 10.762
v 300.022 35.207 12.226
v 375.113 35.23 12.243
v 300.022 35.207 12.226
v 375.087 35.633 13.916
v 375.087 35.633 13.916
v 300.022 35.207 12.226
v 300.05 35.648 13.927
v 375.087 35.633 13.916
v 300.05 35.648 13.927
v 375.099 36.063 15.609
v 375.099 36.063 15.609
v 300.05 35.648 13.927
v 300.011 36.043 15.595
v 375.099 36.063 15.609
v 300.011 36.043 15.595
v 375.081 36.261 17.286
v 375.081 36.261 17.286
v 300.011 36.043 15.595
v 299.999 36.246 17.276
v 375.081 36.261 17.286
v 299.999 36.246 17.276
v 375.09 36.479 18.978
v 375.09 36.479 18.978
v 299.999 36.246 17.276
v 300.056 36.496 18.991
v 375.09 36.479 18.978
v 300.056 36.496 18.991
v 300.022 36.262 20.66
v 300.022 36.262 20.66
v 300.056 36.496 18.991
v 149.892 36.464 18.968
v 300.022 36.262 20.66
v 149.892 36.464 18.968
v 149.924 36.487 20.671
v 149.924 36.487 20.671
v 149.892 36.464 18.968
v 75.03 37.087 20.648
v 149.924 36.487 20.671
v 75.03 37.087 20.648
v 149.893 36.043 22.342
v 149.893 36.043 22.342
v 75.03 37.087 20.648
v 0.018 37.542 22.569
v 149.893 36.043 22.342
v 0.018 37.542 22.569
v 75.058 36.475 24.035
v 75.058 36.475 24.035
v 0.018 37.542 22.569
v -0.027 37.089 24.022
v 75.058 36.475 24.035
v -0.027 37.089 24.022
v -0.024 36.248 25.711
f 1 2 3
f 4 5 6
f 7 8 9
f 10 11 12
f 13 14 15
f 16 17 18
f 19 20 21
f 22 23 24
f 25 26 27
f 28 29 30
f 31 32 33
f 34 35 36
f 37 38 39
f 40 41 42
f 43 44 45
f 46 47 48
f 49 50 51
f 52 53 54
f 55 56 57
f 58 59 60
f 61 62 63
f 64 65 66
f 67 68 69
f 70 71 72
f 73 74 75
f 76 77 78
f 79 80 81
f 82 83 84
f 85 86 87
f 88 89 90
f 91 92 93
f 94 95 96
f 97 98 99
f 100 101 102
f 103 104 105
f 106 107 108
f 109 110 111
f 112 113 114
f 115 116 117
f 118 119 120
f 121 122 123
f 124 125 126
f 127 128 129
f 130 131 132
f 133 134 135
f 136 137 138
f 139 140 141
f 142 143 144
f 145 146 147
f 148 149 150
f 151 152 153
f 154 155 156
f 157 158 159
f 160 161 162
f 163 164 165
f 166 167 168
f 169 170 171
f 172 173 174
f 175 176 177
f 178 179 180
f 181 182 183
f 184 185 186
f 187 188 189
f 190 191 192
f 193 194 195
f 196 197 198
f 199 200 201
f 202 203 204
f 205 206 207
f 208 209 210
f 211 212 213
f 214 215 216
f 217 218 219
f 220 221 222
f 223 224 225
f 226 227 228
f 229 230 231
f 232 233 234
f 235 236 237
f 238 239 240
f 241 242 243
f 244 245 246
f 247 248 249
f 250 251 252
f 253 254 255
f 256 257 258
f 259 260 261
f 262 263 264
f 265 266 267
f 268 269 270
f 271 272 273
f 274 275 276
f 277 278 279
f 280 281 282
f 283 284 285
f 286 287 288
f 289 290 291
f 292 293 294
f 295 296 297
f 298 299 300
f 301 302 303
f 304 305 306
f 307 308 309
f 310 311 312
f 313 314 315
f 316 317 318
f 319 320 321
f 322 323 324
f 325 326 327
f 328 329 330
f 331 332 333
f 334 335 336
f 337 338 339
f 340 341 342
f 343 344 345
f 346 347 348
f 349 350 351
f 352 353 354
f 355 356 357
f 358 359 360
f 361 362 363
f 364 365 366
f 367 368 369
f 370 371 372
f 373 374 375
f 376 377 378
f 379 380 381
f 382 383 384
f 385 386 387
f 388 389 390
f 391 392 393
f 394 395 396
f 397 398 399
f 400 401 402
f 403 404 405
f 406 407 408
f 409 410 411
f 412 413 414
f 415 416 417
f 418 419 420
f 421 422 423
f 424 425 426
f 427 428 429
f 430 431 432
f 433 434 435
f 436 437 438
f 439 440 441
f 442 443 444
f 445 446 447
f 448 449 450
f 451 452 453
f 454 455 456
f 457 458 459
f 460 461 462
f 463 464 465
f 466 467 468
f 469 470 471
f 472 473 474
f 475 476 477
f 478 479 480
f 481 482 483
f 484 485 486
f 487 488 489
f 490 491 492
f 493 494 495
f 496 497 498
f 499 500 501
f 502 503 504
f 505 506 507
f 508 509 510
f 511 512 513
f 514 515 516
f 517 518 519
f 520 521 522
f 523 524 525
f 526 527 528
f 529 530 531
f 532 533 534
f 535 536 537
f 538 539 540
f 541 542 543
f 544 545 546
f 547 548 549
f 550 551 552
f 553 554 555
f 556 557 558
f 559 560 561
f 562 563 564
f 565 566 567
f 568 569 570
f 571 572 573
f 574 575 576
f 577 578 579
f 580 581 582
f 583 584 585
f 586 587 588
f 589 590 591
f 592 593 594
f 595 596 597
f 598 599 600
f 601 602 603
f 604 605 606
f 607 608 609
f 610 611 612
f 613 614 615
f 616 617 618
f 619 620 621
f 622 623 624
f 625 626 627
f 628 629 630
f 631 632 633
f 634 635 636
f 637 638 639
f 640 641 642
f 643 644 645
f 646 647 648
f 649 650 651
f 652 653 654
f 655 656 657
f 658 659 660
f 661 662 663
f 664 665 666
f 667 668 669
f 670 671 672
f 673 674 675
f 676 677 678
f 679 680 681
f 682 683 684
f 685 686 687
f 688 689 690
f 691 692 693
f 694 695 696
f 697 698 699
f 700 701 702
f 703 704 705
f 706 707 708
f 709 710 711
f 712 713 714
f 715 716 717
f 718 719 720
f 721 722 723
f 724 725 726
f 727 728 729
f 730 731 732
f 733 734 735
f 736 737 738
f 739 740 741
f 742 743 744
f 745 746 747
f 748 749 750
f 751 752 753
f 754 755 756
f 757 758 759
f 760 761 762
f 763 764 765
f 766 767 768
f 769 770 771
f 772 773 774
f 775 776 777
f 778 779 780
f 781 782 783
f 784 785 786
f 787 788 789
f 790 791 792
f 793 794 795
f 796 797 798
f 799 800 801
f 802 803 804
f 805 806 807
f 808 809 810
f 811 812 813
f 814 815 816
f 817 818 819
f 820 821 822
f 823 824 825
f 826 827 828
f 829 830 831
f 832 833 834
f 835 836 837
f 838 839 840
f 841 842 843
f 844 845 846
f 847 848 849
f 850 851 852
f 853 854 855
f 856 857 858
f 859 860 861
f 862 863 864
f 865 866 867
f 868 869 870
f 871 872 873
f 874 875 876
f 877 878 879
f 880 881 882
f 883 884 885
f 886 887 888
f 889 890 891
f 892 893 894
f 895 896 897
f 898 899 900
f 901 902 903
f 904 905 906
f 907 908 909
f 910 911 912
f 913 914 915
f 916 917 918
f 919 920 921
f 922 923 924
f 925 926 927
f 928 929 930
f 931 932 933
f 934 935 936
f 937 938 939
f 940 941 942
f 943 944 945
f 946 947 948
f 949 950 951
f 952 953 954
f 955 956 957
f 958 959 960
f 961 962 963
f 964 965 966
f 967 968 969
f 970 971 972
f 973 974 975
f 976 977 978
f 979 980 981
f 982 983 984
f 985 986 987
f 988 989 990
f 991 992 993
f 994 995 996
f 997 998 999
f 1000 1001 1002
f 1003 1004 1005
f 1006 1007 1008
f 1009 1010 1011
f 1012 1013 1014
f 1015 1016 1017
f 1018 1019 1020
f 1021 1022 1023
f 1024 1025 1026
f 1027 1028 1029
f 1030 1031 1032
f 1033 1034 1035
f 1036 1037 1038
f 1039 1040 1041
f 1042 1043 1044
f 1045 1046 1047
f 1048 1049 1050
f 1051 1052 1053
f 1054 1055 1056
f 1057 1058 1059
f 1060 1061 1062
f 1063 1064 1065
f 1066 1067 1068
f 1069 1070 1071
f 1072 1073 1074
f 1075 1076 1077
f 1078 1079 1080
f 1081 1082 1083
f 1084 1085 1086
f 1087 1088 1089
f 1090 1091 1092
f 1093 1094 1095
f 1096 1097 1098
f 1099 1100 1101
f 1102 1103 1104
f 1105 1106 1107
f 1108 1109 1110
f 1111 1112 1113
f 1114 1115 1116
f 1117 1118 1119
f 1120 1121 1122
f 1123 1124 1125
f 1126 1127 1128
f 1129 1130 1131
f 1132 1133 1134
f 1135 1136 1137
f 1138 1139 1140
f 1141 1142 1143
f 1144 1145 1146
f 1147 1148 1149
f 1150 1151 1152
f 1153 1154 1155
f 1156 1157 1158
f 1159 1160 1161
f 1162 1163 1164
f 1165 1166 1167
f 1168 1169 1170
f 1171 1172 1173
f 1174 1175 1176
f 1177 1178 1179
f 1180 1181 1182
f 1183 1184 1185
f 1186 1187 1188
f 1189 1190 1191
f 1192 1193 1194
f 1195 1196 1197
f 1198 1199 1200
f 1201 1202 1203
f 1204 1205 1206
f 1207 1208 1209
f 1210 1211 1212
f 1213 1214 1215
f 1216 1217 1218
f 1219 1220 1221
f 1222 1223 1224
f 1225 1226 1227
f 1228 1229 1230
f 1231 1232 1233
f 1234 1235 1236
f 1237 1238 1239
f 1240 1241 1242
f 1243 1244 1245
f 1246 1247 1248
f 1249 1250 1251
f 1252 1253 1254
f 1255 1256 1257
f 1258 1259 1260
f 1261 1262 1263
f 1264 1265 1266
f 1267 1268 1269
f 1270 1271 1272
f 1273 1274 1275
f 1276 1277 1278
f 1279 1280 1281
f 1282 1283 1284
f 1285 1286 1287
f 1288 1289 1290
f 1291 1292 1293
f 1294 1295 1296
f 1297 1298 1299
f 1300 1301 1302
f 1303 1304 1305
f 1306 1307 1308
f 1309 1310 1311
f 1312 1313 1314
f 1315 1316 1317
f 1318 1319 1320
f 1321 1322 1323
f 1324 1325 1326
f 1327 1328 1329
f 1330 1331 1332
f 1333 1334 1335
f 1336 1337 1338
f 1339 1340 1341
f 1342 1343 1344
f 1345 1346 1347
f 1348 1349 1350
f 1351 1352 1353
f 1354 1355 1356
f 1357 1358 1359
f 1360 1361 1362
f 1363 1364 1365
f 1366 1367 1368
f 1369 1370 1371
f 1372 1373 1374
f 1375 1376 1377
f 1378 1379 1380
f 1381 1382 1383
f 1384 1385 1386
f 1387 1388 1389
f 1390 1391 1392
f 1393 1394 1395
f 1396 1397 1398
f 1399 1400 1401
f 1402 1403 1404
f 1405 1406 1407
f 1408 1409 1410
f 1411 1412 1413
f 1414 1415 1416
f 1417 1418 1419
f 1420 1421 1422
f 1423 1424 1425
f 1426 1427 1428
f 1429 1430 1431
f 1432 1433 1434
f 1435 1436 1437
f 1438 1439 1440
f 1441 1442 1443
f 1444 1445 1446
f 1447 1448 1449
f 1450 1451 1452
f 1453 1454 1455
f 1456 1457 1458
f 1459 1460 1461
f 1462 1463 1464
f 1465 1466 1467
f 1468 1469 1470
f 1471 1472 1473
f 1474 1475 1476
f 1477 1478 1479
f 1480 1481 1482
f 1483 1484 1485
f 1486 1487 1488
f 1489 1490 1491
f 1492 1493 1494
f 1495 1496 1497
f 1498 1499 1500
f 1501 1502 1503
f 1504 1505 1506
f 1507 1508 1509
f 1510 1511 1512
f 1513 1514 1515
f 1516 1517 1518
f 1519 1520 1521
f 1522 1523 1524
f 1525 1526 1527
f 1528 1529 1530
f 1531 1532 1533
f 1534 1535 1536
f 1537 1538 1539
f 1540 1541 1542
f 1543 1544 1545
f 1546 1547 1548
f 1549 1550 1551
f 1552 1553 1554
f 1555 1556 1557
f 1558 1559 1560
f 1561 1562 1563
f 1564 1565 1566
f 1567 1568 1569
f 1570 1571 1572
f 1573 1574 1575
f 1576 1577 1578
f 1579 1580 1581
f 1582 1583 1584
f 1585 1586 1587
f 1588 1589 1590
f 1591 1592 1593
f 1594 1595 1596
f 1597 1598 1599
f 1600 1601 1602
f 1603 1604 1605
f 1606 1607 1608
f 1609 1610 1611
f 1612 1613 1614
f 1615 1616 1617
f 1618 1619 1620
f 1621 1622 1623
f 1624 1625 1626
f 1627 1628 1629
f 1630 1631 1632
f 1633 1634 1635
f 1636 1637 1638
f 1639 1640 1641
f 1642 1643 1644
f 1645 1646 1647
f 1648 1649 1650
f 1651 1652 1653
f 1654 1655 1656
f 1657 1658 1659
f 1660 1661 1662
f 1663 1664 1665
f 1666 1667 1668
f 1669 1670 1671
f 1672 1673 1674
f 1675 1676 1677
f 1678 1679 1680
f 1681 1682 1683
f 1684 1685 1686
f 1687 1688 1689
f 1690 1691 1692
f 1693 1694 1695
f 1696 1697 1698
f 1699 1700 1701
f 1702 1703 1704
f 1705 1706 1707
f 1708 1709 1710
f 1711 1712 1713
f 1714 1715 1716
f 1717 1718 1719
f 1720 1721 1722
f 1723 1724 1725
f 1726 1727 1728
f 1729 1730 1731
f 1732 1733 1734
f 1735 1736 1737
f 1738 1739 1740
f 1741 1742 1743
f 1744 1745 1746
f 1747 1748 1749
f 1750 1751 1752
f 1753 1754 1755
f 1756 1757 1758
f 1759 1760 1761
f 1762 1763 1764
f 1765 1766 1767
f 1768 1769 1770
f 1771 1772 1773
f 1774 1775 1776
f 1777 1778 1779
f 1780 1781 1782
f 1783 1784 1785
f 1786 1787 1788
f 1789 1790 1791
f 1792 1793 1794
f 1795 1796 1797
f 1798 1799 1800
f 1801 1802 1803
f 1804 1805 1806
f 1807 1808 1809
f 1810 1811 1812
f 1813 1814 1815
f 1816 1817 1818
f 1819 1820 1821
f 1822 1823 1824
f 1825 1826 1827
f 1828 1829 1830
f 1831 1832 1833
f 1834 1835 1836
f 1837 1838 1839
f 1840 1841 1842
f 1843 1844 1845
f 1846 1847 1848
f 1849 1850 1851
f 1852 1853 1854
f 1855 1856 1857
f 1858 1859 1860
f 1861 1862 1863
f 1864 1865 1866
f 1867 1868 1869
f 1870 1871 1872
f 1873 1874 1875
f 1876 1877 1878
f 1879 1880 1881
f 1882 1883 1884
f 1885 1886 1887
f 1888 1889 1890
f 1891 1892 1893
f 1894 1895 1896
f 1897 1898 1899
f 1900 1901 1902
f 1903 1904 1905
f 1906 1907 1908
f 1909 1910 1911
f 1912 1913 1914
f 1915 1916 1917
f 1918 1919 1920
f 1921 1922 1923
f 1924 1925 1926
f 1927 1928 1929
f 1930 1931 1932
f 1933 1934 1935
f 1936 1937 1938
f 1939 1940 1941
f 1942 1943 1944
f 1945 1946 1947
f 1948 1949 1950
f 1951 1952 1953
f 1954 1955 1956
f 1957 1958 1959
f 1960 1961 1962
f 1963 1964 1965
f 1966 1967 1968
f 1969 1970 1971
f 1972 1973 1974
f 1975 1976 1977
f 1978 1979 1980
f 1981 1982 1983
f 1984 1985 1986
f 1987 1988 1989
f 1990 1991 1992
f 1993 1994 1995
f 1996 1997 1998
f 1999 2000 2001
f 2002 2003 2004
f 2005 2006 2007
f 2008 2009 2010
f 2011 2012 2013
f 2014 2015 2016
f 2017 2018 2019
f 2020 2021 2022
f 2023 2024 2025
f 2026 2027 2028
f 2029 2030 2031
f 2032 2033 2034
f 2035 2036 2037
f 2038 2039 2040
f 2041 2042 2043
f 2044 2045 2046
f 2047 2048 2049
f 2050 2051 2052
f 2053 2054 2055
f 2056 2057 2058
f 2059 2060 2061
f 2062 2063 2064
f 2065 2066 2067
f 2068 2069 2070
f 2071 2072 2073
f 2074 2075 2076
f 2077 2078 2079
f 2080 2081 2082
f 2083 2084 2085
f 2086 2087 2088
f 2089 2090 2091
f 2092 2093 2094
f 2095 2096 2097
f 2098 2099 2100
f 2101 2102 2103
f 2104 2105 2106
f 2107 2108 2109
f 2110 2111 2112
f 2113 2114 2115
f 2116 2117 2118
f 2119 2120 2121
f 2122 2123 2124
f 2125 2126 2127
f 2128 2129 2130
f 2131 2132 2133
f 2134 2135 2136
f 2137 2138 2139
f 2140 2141 2142
f 2143 2144 2145
f 2146 2147 2148
f 2149 2150 2151
f 2152 2153 2154
f 2155 2156 2157
f 2158 2159 2160
f 2161 2162 2163
f 2164 2165 2166
f 2167 2168 2169
f 2170 2171 2172
f 2173 2174 2175
f 2176 2177 2178
f 2179 2180 2181
f 2182 2183 2184
f 2185 2186 2187
f 2188 2189 2190
f 2191 2192 2193
f 2194 2195 2196
f 2197 2198 2199
f 2200 2201 2202
f 2203 2204 2205
f 2206 2207 2208
f 2209 2210 2211
f 2212 2213 2214
f 2215 2216 2217
f 2218 2219 2220
f 2221 2222 2223
f 2224 2225 2226
f 2227 2228 2229
f 2230 2231 2232
f 2233 2234 2235
f 2236 2237 2238
f 2239 2240 2241
f 2242 2243 2244
f 2245 2246 2247
f 2248 2249 2250
f 2251 2252 2253
f 2254 2255 2256
f 2257 2258 2259
f 2260 2261 2262
f 2263 2264 2265
f 2266 2267 2268
f 2269 2270 2271
f 2272 2273 2274
f 2275 2276 2277
f 2278 2279 2280
f 2281 2282 2283
f 2284 2285 2286
