# PUBLIC SHELL OBJ - display only, not CAD source
# Precision intentionally degraded; multi-part structure removed
o shell
v 656.194 1.048 14.205
v 750.15 0.277 15.007
v 750.154 0.016 17.114
v 656.235 1.603 11.594
v 750.151 0.803 12.639
v 750.15 0.277 15.007
v 468.828 5.763 4.981
v 562.518 4.726 6.045
v 562.51 4.194 6.83
v 374.9 12.343 1.035
v 374.933 13.681 0.789
v 562.546 12.639 2.112
v 656.233 25.545 3.963
v 562.563 24.228 3.173
v 562.51 25.243 3.409
v 656.233 25.545 3.963
v 750.109 26.822 4.725
v 750.148 25.797 4.481
v 750.13 31.836 10.787
v 750.157 31.592 10.012
v 656.2 30.521 8.683
v 562.512 32.086 16.303
v 562.552 32.377 19.48
v 750.104 33.133 19.457
v 750.104 33.133 19.457
v 562.552 32.377 19.48
v 750.104 33.133 21.825
v 468.895 27.385 33.957
v 562.559 28.435 32.902
v 562.557 28.96 32.112
v 374.923 20.778 37.883
v 374.921 19.461 38.145
v 562.503 20.765 36.821
v 656.234 7.654 35.011
v 562.496 8.921 36.028
v 562.558 8.174 35.533
v 656.234 7.654 35.011
v 750.131 6.578 34.205
v 750.163 7.39 34.747
v 750.109 1.3 28.405
v 750.134 1.581 28.944
v 656.227 2.65 30.271
v 656.178 1.037 24.722
v 750.168 0.289 23.962
v 750.099 0.767 26.295
v 374.922 27.618 5.519
v 374.913 27.086 4.725
v 281.288 26.59 3.958
v 281.253 23.145 1.572
v 281.241 24.452 2.355
v 374.955 24.485 2.642
v 281.271 25.788 3.423
v 374.901 26.551 4.193
v 281.292 25.277 2.907
v 281.292 25.277 2.907
v 374.901 26.551 4.193
v 374.971 26.074 3.702
v 281.292 25.277 2.907
v 374.971 26.074 3.702
v 281.241 24.452 2.355
v 281.241 24.452 2.355
v 374.971 26.074 3.702
v 374.919 25.249 3.15
v 281.241 24.452 2.355
v 374.919 25.249 3.15
v 374.955 24.485 2.642
v 374.941 20.791 1.056
v 281.232 20.236 0.509
v 374.945 21.583 1.321
v 374.945 21.583 1.321
v 281.232 20.236 0.509
v 281.266 21.838 0.789
v 374.955 24.485 2.642
v 374.907 23.925 2.092
v 281.253 23.145 1.572
v 281.253 23.145 1.572
v 374.907 23.925 2.092
v 374.966 23.176 1.858
v 281.253 23.145 1.572
v 374.966 23.176 1.858
v 281.266 21.838 0.789
v 281.266 21.838 0.789
v 374.966 23.176 1.858
v 374.914 22.35 1.569
v 281.266 21.838 0.789
v 374.914 22.35 1.569
v 374.945 21.583 1.321
v 374.922 27.618 5.519
v 281.288 26.59 3.958
v 281.237 27.08 4.722
v 281.237 27.08 4.722
v 281.288 26.59 3.958
v 187.634 26.073 3.701
v 281.237 27.08 4.722
v 187.634 26.073 3.701
v 187.601 26.839 4.474
v 281.232 20.236 0.509
v 187.623 20.014 0.276
v 281.266 21.838 0.789
v 281.266 21.838 0.789
v 187.623 20.014 0.276
v 187.57 21.555 0.512
v 281.266 21.838 0.789
v 187.57 21.555 0.512
v 281.253 23.145 1.572
v 281.253 23.145 1.572
v 187.57 21.555 0.512
v 187.6 22.892 1.316
v 281.253 23.145 1.572
v 187.6 22.892 1.316
v 281.241 24.452 2.355
v 281.241 24.452 2.355
v 187.6 22.892 1.316
v 187.61 24.215 2.111
v 281.241 24.452 2.355
v 187.61 24.215 2.111
v 281.292 25.277 2.907
v 281.292 25.277 2.907
v 187.61 24.215 2.111
v 187.6 24.997 2.632
v 281.292 25.277 2.907
v 187.6 24.997 2.632
v 281.271 25.788 3.423
v 281.271 25.788 3.423
v 187.6 24.997 2.632
v 187.608 25.529 3.162
v 281.273 8.687 2.371
v 281.261 9.995 1.576
v 374.919 9.199 2.098
v 374.926 6.046 4.732
v 281.255 6.833 3.941
v 374.963 6.598 4.225
v 374.963 6.598 4.225
v 281.255 6.833 3.941
v 281.277 7.374 3.426
v 374.963 6.598 4.225
v 281.277 7.374 3.426
v 374.911 7.351 3.672
v 374.911 7.351 3.672
v 281.277 7.374 3.426
v 281.248 7.881 2.885
v 374.911 7.351 3.672
v 281.248 7.881 2.885
v 374.898 7.869 3.14
v 374.898 7.869 3.14
v 281.248 7.881 2.885
v 281.273 8.687 2.371
v 374.898 7.869 3.14
v 281.273 8.687 2.371
v 374.921 8.674 2.625
v 374.921 8.674 2.625
v 281.273 8.687 2.371
v 374.919 9.199 2.098
v 281.233 18.921 0.247
v 374.944 19.478 0.795
v 281.243 16.56 0.251
v 281.243 16.56 0.251
v 374.944 19.478 0.795
v 374.955 16.591 0.8
v 281.243 16.56 0.251
v 374.955 16.591 0.8
v 281.3 14.232 0.28
v 281.3 14.232 0.28
v 374.955 16.591 0.8
v 374.933 13.681 0.789
v 281.3 14.232 0.28
v 374.933 13.681 0.789
v 281.261 12.889 0.524
v 281.261 12.889 0.524
v 374.933 13.681 0.789
v 374.9 12.343 1.035
v 281.261 12.889 0.524
v 374.9 12.343 1.035
v 281.283 11.325 0.798
v 281.255 6.833 3.941
v 187.593 7.1 3.681
v 281.277 7.374 3.426
v 281.277 7.374 3.426
v 187.593 7.1 3.681
v 187.576 7.615 3.146
v 281.277 7.374 3.426
v 187.576 7.615 3.146
v 281.248 7.881 2.885
v 281.248 7.881 2.885
v 187.576 7.615 3.146
v 187.566 8.134 2.615
v 281.248 7.881 2.885
v 187.566 8.134 2.615
v 281.273 8.687 2.371
v 281.273 8.687 2.371
v 187.566 8.134 2.615
v 187.584 8.936 2.098
v 281.273 8.687 2.371
v 187.584 8.936 2.098
v 281.261 9.995 1.576
v 281.261 9.995 1.576
v 187.584 8.936 2.098
v 187.577 10.247 1.305
v 281.261 9.995 1.576
v 187.577 10.247 1.305
v 281.283 11.325 0.798
v 281.283 11.325 0.798
v 187.577 10.247 1.305
v 187.575 11.824 0.515
v 281.283 11.325 0.798
v 187.575 11.824 0.515
v 281.261 12.889 0.524
v 281.261 12.889 0.524
v 187.575 11.824 0.515
v 187.579 13.142 0.253
v 281.261 12.889 0.524
v 187.579 13.142 0.253
v 281.3 14.232 0.28
v 281.3 14.232 0.28
v 187.579 13.142 0.253
v 187.571 14.452 -0.014
v 281.3 14.232 0.28
v 187.571 14.452 -0.014
v 281.243 16.56 0.251
v 281.243 16.56 0.251
v 187.571 14.452 -0.014
v 187.62 16.591 0.011
v 281.243 16.56 0.251
v 187.62 16.591 0.011
v 281.233 18.921 0.247
v 281.233 18.921 0.247
v 187.62 16.591 0.011
v 187.576 18.928 -0.011
v 374.949 3.957 30.265
v 281.268 4.474 31.048
v 374.931 2.892 26.836
v 374.931 2.892 26.836
v 281.268 4.474 31.048
v 281.264 3.156 27.362
v 374.931 2.892 26.836
v 281.264 3.156 27.362
v 374.945 2.113 23.16
v 374.945 2.113 23.16
v 281.264 3.156 27.362
v 281.239 2.349 23.403
v 374.945 2.113 23.16
v 281.239 2.349 23.403
v 374.901 1.819 19.454
v 374.901 1.819 19.454
v 281.239 2.349 23.403
v 281.27 2.108 19.472
v 374.901 1.819 19.454
v 281.27 2.108 19.472
v 374.952 2.117 15.796
v 374.952 2.117 15.796
v 281.27 2.108 19.472
v 281.285 2.381 15.533
v 374.952 2.117 15.796
v 281.285 2.381 15.533
v 374.943 2.901 12.108
v 374.943 2.901 12.108
v 281.285 2.381 15.533
v 281.299 3.18 11.593
v 374.943 2.901 12.108
v 281.299 3.18 11.593
v 374.927 3.942 8.679
v 374.927 3.942 8.679
v 281.299 3.18 11.593
v 281.297 4.494 7.909
v 374.927 3.942 8.679
v 281.297 4.494 7.909
v 374.937 4.738 7.105
v 374.937 4.738 7.105
v 281.297 4.494 7.909
v 281.273 5.267 6.318
v 281.268 4.474 31.048
v 187.593 4.732 31.308
v 281.264 3.156 27.362
v 281.264 3.156 27.362
v 187.593 4.732 31.308
v 187.591 3.415 27.623
v 281.264 3.156 27.362
v 187.591 3.415 27.623
v 281.239 2.349 23.403
v 281.239 2.349 23.403
v 187.591 3.415 27.623
v 187.579 2.618 23.407
v 281.239 2.349 23.403
v 187.579 2.618 23.407
v 281.27 2.108 19.472
v 281.27 2.108 19.472
v 187.579 2.618 23.407
v 187.565 2.345 19.454
v 281.27 2.108 19.472
v 187.565 2.345 19.454
v 281.285 2.381 15.533
v 281.285 2.381 15.533
v 187.565 2.345 19.454
v 187.609 2.638 15.529
v 281.285 2.381 15.533
v 187.609 2.638 15.529
v 281.299 3.18 11.593
v 281.299 3.18 11.593
v 187.609 2.638 15.529
v 187.589 3.414 11.572
v 281.299 3.18 11.593
v 187.589 3.414 11.572
v 281.297 4.494 7.909
v 281.297 4.494 7.909
v 187.589 3.414 11.572
v 187.604 4.74 7.633
v 281.297 4.494 7.909
v 187.604 4.74 7.633
v 281.273 5.267 6.318
v 281.273 5.267 6.318
v 187.604 4.74 7.633
v 187.622 5.542 6.063
v 374.948 5.536 33.423
v 374.936 6.053 34.205
v 281.255 6.833 34.988
v 281.279 10.007 37.631
v 281.276 8.69 36.577
v 374.96 8.701 36.585
v 281.298 7.389 35.536
v 374.898 6.553 34.713
v 281.286 7.908 36.32
v 281.286 7.908 36.32
v 374.898 6.553 34.713
v 374.934 7.367 35.52
v 281.286 7.908 36.32
v 374.934 7.367 35.52
v 281.276 8.69 36.577
v 281.276 8.69 36.577
v 374.934 7.367 35.52
v 374.948 7.903 36.053
v 281.276 8.69 36.577
v 374.948 7.903 36.053
v 374.96 8.701 36.585
v 374.905 12.346 37.874
v 281.232 12.868 38.397
v 374.964 11.598 37.64
v 374.964 11.598 37.64
v 281.232 12.868 38.397
v 281.284 11.326 38.16
v 374.96 8.701 36.585
v 374.928 9.205 36.833
v 281.279 10.007 37.631
v 281.279 10.007 37.631
v 374.928 9.205 36.833
v 374.934 9.999 37.099
v 281.279 10.007 37.631
v 374.934 9.999 37.099
v 281.284 11.326 38.16
v 281.284 11.326 38.16
v 374.934 9.999 37.099
v 374.908 10.769 37.349
v 281.284 11.326 38.16
v 374.908 10.769 37.349
v 374.964 11.598 37.64
v 374.948 5.536 33.423
v 281.255 6.833 34.988
v 281.249 6.303 34.196
v 281.249 6.303 34.196
v 281.255 6.833 34.988
v 187.574 7.087 35.245
v 281.249 6.303 34.196
v 187.574 7.087 35.245
v 187.61 6.586 34.474
v 281.232 12.868 38.397
v 187.584 13.145 38.67
v 281.284 11.326 38.16
v 281.284 11.326 38.16
v 187.584 13.145 38.67
v 187.598 11.84 38.414
v 281.284 11.326 38.16
v 187.598 11.84 38.414
v 281.279 10.007 37.631
v 281.279 10.007 37.631
v 187.598 11.84 38.414
v 187.627 10.281 37.902
v 281.279 10.007 37.631
v 187.627 10.281 37.902
v 281.276 8.69 36.577
v 281.276 8.69 36.577
v 187.627 10.281 37.902
v 187.59 8.94 37.095
v 281.276 8.69 36.577
v 187.59 8.94 37.095
v 281.286 7.908 36.32
v 281.286 7.908 36.32
v 187.59 8.94 37.095
v 187.619 8.171 36.583
v 281.286 7.908 36.32
v 187.619 8.171 36.583
v 281.298 7.389 35.536
v 281.298 7.389 35.536
v 187.619 8.171 36.583
v 187.63 7.652 35.799
v 281.251 24.459 36.565
v 281.245 23.139 37.615
v 374.919 23.933 36.828
v 374.967 27.123 34.221
v 281.235 26.552 34.978
v 374.918 26.563 34.723
v 374.918 26.563 34.723
v 281.235 26.552 34.978
v 281.256 25.778 35.515
v 374.918 26.563 34.723
v 281.256 25.778 35.515
v 374.951 26.06 35.529
v 374.951 26.06 35.529
v 281.256 25.778 35.515
v 281.277 25.266 36.315
v 374.951 26.06 35.529
v 281.277 25.266 36.315
v 374.946 25.268 36.053
v 374.946 25.268 36.053
v 281.277 25.266 36.315
v 281.251 24.459 36.565
v 374.946 25.268 36.053
v 281.251 24.459 36.565
v 374.929 24.466 36.57
v 374.929 24.466 36.57
v 281.251 24.459 36.565
v 374.919 23.933 36.828
v 281.29 14.225 38.689
v 374.944 13.689 38.157
v 281.238 16.557 38.927
v 281.238 16.557 38.927
v 374.944 13.689 38.157
v 374.937 16.579 38.153
v 281.238 16.557 38.927
v 374.937 16.579 38.153
v 281.242 18.927 38.665
v 281.242 18.927 38.665
v 374.937 16.579 38.153
v 374.921 19.461 38.145
v 281.242 18.927 38.665
v 374.921 19.461 38.145
v 281.234 20.237 38.398
v 281.234 20.237 38.398
v 374.921 19.461 38.145
v 374.923 20.778 37.883
v 281.234 20.237 38.398
v 374.923 20.778 37.883
v 281.281 21.848 38.158
v 374.919 29.195 8.675
v 281.255 28.671 7.888
v 374.92 30.511 12.096
v 374.92 30.511 12.096
v 281.255 28.671 7.888
v 281.286 30.009 11.587
v 374.92 30.511 12.096
v 281.286 30.009 11.587
v 374.961 31.329 15.8
v 374.961 31.329 15.8
v 281.286 30.009 11.587
v 281.257 30.778 15.519
v 374.961 31.329 15.8
v 281.257 30.778 15.519
v 374.936 31.312 19.471
v 374.936 31.312 19.471
v 281.257 30.778 15.519
v 281.26 31.043 19.467
v 374.936 31.312 19.471
v 281.26 31.043 19.467
v 374.903 31.289 23.138
v 374.903 31.289 23.138
v 281.26 31.043 19.467
v 281.264 30.782 23.416
v 374.903 31.289 23.138
v 281.264 30.782 23.416
v 374.948 30.531 26.845
v 374.948 30.531 26.845
v 281.264 30.782 23.416
v 281.285 30.008 27.373
v 374.948 30.531 26.845
v 281.285 30.008 27.373
v 374.962 29.225 30.272
v 374.962 29.225 30.272
v 281.285 30.008 27.373
v 281.266 28.679 31.047
v 374.962 29.225 30.272
v 281.266 28.679 31.047
v 374.954 28.43 32.11
v 374.954 28.43 32.11
v 281.266 28.679 31.047
v 281.295 27.91 32.64
v 281.235 26.552 34.978
v 187.626 26.067 35.271
v 281.256 25.778 35.515
v 281.256 25.778 35.515
v 187.626 26.067 35.271
v 187.563 25.497 35.765
v 281.256 25.778 35.515
v 187.563 25.497 35.765
v 281.277 25.266 36.315
v 281.277 25.266 36.315
v 187.563 25.497 35.765
v 187.58 24.982 36.563
v 281.277 25.266 36.315
v 187.58 24.982 36.563
v 281.251 24.459 36.565
v 281.251 24.459 36.565
v 187.58 24.982 36.563
v 187.596 24.205 37.097
v 281.251 24.459 36.565
v 187.596 24.205 37.097
v 281.245 23.139 37.615
v 281.245 23.139 37.615
v 187.596 24.205 37.097
v 187.598 22.89 37.888
v 281.245 23.139 37.615
v 187.598 22.89 37.888
v 281.281 21.848 38.158
v 281.281 21.848 38.158
v 187.598 22.89 37.888
v 187.608 21.581 38.419
v 281.281 21.848 38.158
v 187.608 21.581 38.419
v 281.234 20.237 38.398
v 281.234 20.237 38.398
v 187.608 21.581 38.419
v 187.633 20.021 38.695
v 281.234 20.237 38.398
v 187.633 20.021 38.695
v 281.242 18.927 38.665
v 281.242 18.927 38.665
v 187.633 20.021 38.695
v 187.635 18.97 38.959
v 281.242 18.927 38.665
v 187.635 18.97 38.959
v 281.238 16.557 38.927
v 281.238 16.557 38.927
v 187.635 18.97 38.959
v 187.582 16.565 38.932
v 281.238 16.557 38.927
v 187.582 16.565 38.932
v 281.29 14.225 38.689
v 281.29 14.225 38.689
v 187.582 16.565 38.932
v 187.587 14.463 38.935
v 281.255 28.671 7.888
v 187.592 28.411 7.627
v 281.286 30.009 11.587
v 281.286 30.009 11.587
v 187.592 28.411 7.627
v 187.562 29.706 11.558
v 281.286 30.009 11.587
v 187.562 29.706 11.558
v 281.257 30.778 15.519
v 281.257 30.778 15.519
v 187.562 29.706 11.558
v 187.589 30.514 15.519
v 281.257 30.778 15.519
v 187.589 30.514 15.519
v 281.26 31.043 19.467
v 281.26 31.043 19.467
v 187.589 30.514 15.519
v 187.617 30.797 19.48
v 281.26 31.043 19.467
v 187.617 30.797 19.48
v 281.264 30.782 23.416
v 281.264 30.782 23.416
v 187.617 30.797 19.48
v 187.609 30.528 23.422
v 281.264 30.782 23.416
v 187.609 30.528 23.422
v 281.285 30.008 27.373
v 281.285 30.008 27.373
v 187.609 30.528 23.422
v 187.606 29.737 27.63
v 281.285 30.008 27.373
v 187.606 29.737 27.63
v 281.266 28.679 31.047
v 281.266 28.679 31.047
v 187.606 29.737 27.63
v 187.61 28.424 31.316
v 281.266 28.679 31.047
v 187.61 28.424 31.316
v 281.295 27.91 32.64
v 281.295 27.91 32.64
v 187.61 28.424 31.316
v 187.57 27.607 32.875
v 750.167 1.078 27.645
v 750.109 1.3 28.405
v 656.175 2.35 29.456
v 562.54 1.058 22.632
v 656.178 1.037 24.722
v 562.527 1.575 25.519
v 562.527 1.575 25.519
v 656.178 1.037 24.722
v 656.182 1.567 27.355
v 562.527 1.575 25.519
v 656.182 1.567 27.355
v 562.556 2.648 28.691
v 562.556 2.648 28.691
v 656.182 1.567 27.355
v 656.168 2.083 28.926
v 562.556 2.648 28.691
v 656.168 2.083 28.926
v 562.528 3.155 29.993
v 656.178 1.037 24.722
v 750.099 0.767 26.295
v 656.182 1.567 27.355
v 656.182 1.567 27.355
v 750.099 0.767 26.295
v 750.167 1.078 27.645
v 656.182 1.567 27.355
v 750.167 1.078 27.645
v 656.168 2.083 28.926
v 656.168 2.083 28.926
v 750.167 1.078 27.645
v 656.175 2.35 29.456
v 656.168 2.083 28.926
v 656.175 2.35 29.456
v 562.528 3.155 29.993
v 562.512 4.722 32.879
v 562.542 4.217 32.105
v 656.207 3.162 31.051
v 750.131 6.578 34.205
v 656.177 6.825 34.719
v 750.132 5.526 33.679
v 750.132 5.526 33.679
v 656.177 6.825 34.719
v 656.187 6.043 34.198
v 750.132 5.526 33.679
v 656.187 6.043 34.198
v 750.127 4.734 33.15
v 750.127 4.734 33.15
v 656.187 6.043 34.198
v 656.175 5.245 33.666
v 750.127 4.734 33.15
v 656.175 5.245 33.666
v 750.152 3.962 32.636
v 750.152 3.962 32.636
v 656.175 5.245 33.666
v 656.234 4.76 32.906
v 750.152 3.962 32.636
v 656.234 4.76 32.906
v 750.097 3.397 31.82
v 750.097 3.397 31.82
v 656.234 4.76 32.906
v 656.197 3.945 32.361
v 750.097 3.397 31.82
v 656.197 3.945 32.361
v 750.166 2.919 31.065
v 750.166 2.919 31.065
v 656.197 3.945 32.361
v 656.199 3.42 31.573
v 750.166 2.919 31.065
v 656.199 3.42 31.573
v 750.12 2.361 30.516
v 750.12 2.361 30.516
v 656.199 3.42 31.573
v 750.149 1.855 29.741
v 750.134 1.581 28.944
v 750.149 1.855 29.741
v 656.207 3.162 31.051
v 656.207 3.162 31.051
v 750.149 1.855 29.741
v 656.199 3.42 31.573
v 656.207 3.162 31.051
v 656.199 3.42 31.573
v 562.512 4.722 32.879
v 562.512 4.722 32.879
v 656.199 3.42 31.573
v 656.197 3.945 32.361
v 562.512 4.722 32.879
v 656.197 3.945 32.361
v 562.522 5.255 33.41
v 562.522 5.255 33.41
v 656.197 3.945 32.361
v 656.234 4.76 32.906
v 562.522 5.255 33.41
v 656.234 4.76 32.906
v 562.5 5.766 34.188
v 562.5 5.766 34.188
v 656.234 4.76 32.906
v 656.175 5.245 33.666
v 562.5 5.766 34.188
v 656.175 5.245 33.666
v 562.499 6.555 34.714
v 562.499 6.555 34.714
v 656.175 5.245 33.666
v 656.187 6.043 34.198
v 562.499 6.555 34.714
v 656.187 6.043 34.198
v 562.524 7.361 35.253
v 562.524 7.361 35.253
v 656.187 6.043 34.198
v 656.177 6.825 34.719
v 562.496 8.921 36.028
v 656.234 7.654 35.011
v 562.527 9.732 36.307
v 562.527 9.732 36.307
v 656.234 7.654 35.011
v 750.163 7.39 34.747
v 562.527 9.732 36.307
v 750.163 7.39 34.747
v 562.559 10.543 36.586
v 750.131 6.578 34.205
v 656.234 7.654 35.011
v 656.177 6.825 34.719
v 656.177 6.825 34.719
v 656.234 7.654 35.011
v 562.558 8.174 35.533
v 656.177 6.825 34.719
v 562.558 8.174 35.533
v 562.524 7.361 35.253
v 562.524 7.361 35.253
v 562.558 8.174 35.533
v 468.87 8.423 36.049
v 562.524 7.361 35.253
v 468.87 8.423 36.049
v 562.499 6.555 34.714
v 562.499 6.555 34.714
v 468.87 8.423 36.049
v 468.881 7.642 35.528
v 562.499 6.555 34.714
v 468.881 7.642 35.528
v 562.5 5.766 34.188
v 562.5 5.766 34.188
v 468.881 7.642 35.528
v 468.894 7.125 35.009
v 562.5 5.766 34.188
v 468.894 7.125 35.009
v 562.522 5.255 33.41
v 562.522 5.255 33.41
v 468.894 7.125 35.009
v 468.859 6.311 34.465
v 562.522 5.255 33.41
v 468.859 6.311 34.465
v 562.512 4.722 32.879
v 562.512 4.722 32.879
v 468.859 6.311 34.465
v 468.872 5.794 33.945
v 562.512 4.722 32.879
v 468.872 5.794 33.945
v 562.542 4.217 32.105
v 562.542 4.217 32.105
v 468.872 5.794 33.945
v 374.936 6.053 34.205
v 562.542 4.217 32.105
v 374.936 6.053 34.205
v 468.874 4.743 32.631
v 468.874 4.743 32.631
v 374.936 6.053 34.205
v 374.948 5.536 33.423
v 468.874 4.743 32.631
v 374.948 5.536 33.423
v 374.92 4.726 32.093
v 374.92 4.726 32.093
v 374.948 5.536 33.423
v 281.249 6.303 34.196
v 374.92 4.726 32.093
v 281.249 6.303 34.196
v 281.25 5.251 32.618
v 281.25 5.251 32.618
v 281.249 6.303 34.196
v 187.61 6.586 34.474
v 281.25 5.251 32.618
v 187.61 6.586 34.474
v 187.58 5.513 32.88
v 562.559 10.543 36.586
v 374.944 13.689 38.157
v 374.905 12.346 37.874
v 374.905 12.346 37.874
v 374.944 13.689 38.157
v 281.29 14.225 38.689
v 374.905 12.346 37.874
v 281.29 14.225 38.689
v 281.232 12.868 38.397
v 281.232 12.868 38.397
v 281.29 14.225 38.689
v 187.587 14.463 38.935
v 281.232 12.868 38.397
v 187.587 14.463 38.935
v 187.584 13.145 38.67
v 562.559 10.543 36.586
v 374.905 12.346 37.874
v 562.527 9.732 36.307
v 562.527 9.732 36.307
v 374.905 12.346 37.874
v 374.964 11.598 37.64
v 562.527 9.732 36.307
v 374.964 11.598 37.64
v 562.496 8.921 36.028
v 562.496 8.921 36.028
v 374.964 11.598 37.64
v 374.908 10.769 37.349
v 562.496 8.921 36.028
v 374.908 10.769 37.349
v 562.558 8.174 35.533
v 562.558 8.174 35.533
v 374.908 10.769 37.349
v 374.934 9.999 37.099
v 562.558 8.174 35.533
v 374.934 9.999 37.099
v 468.87 8.423 36.049
v 468.87 8.423 36.049
v 374.934 9.999 37.099
v 374.928 9.205 36.833
v 468.87 8.423 36.049
v 374.928 9.205 36.833
v 468.881 7.642 35.528
v 468.881 7.642 35.528
v 374.928 9.205 36.833
v 374.96 8.701 36.585
v 468.881 7.642 35.528
v 374.96 8.701 36.585
v 468.894 7.125 35.009
v 468.894 7.125 35.009
v 374.96 8.701 36.585
v 374.948 7.903 36.053
v 468.894 7.125 35.009
v 374.948 7.903 36.053
v 468.859 6.311 34.465
v 468.859 6.311 34.465
v 374.948 7.903 36.053
v 374.934 7.367 35.52
v 468.859 6.311 34.465
v 374.934 7.367 35.52
v 468.872 5.794 33.945
v 468.872 5.794 33.945
v 374.934 7.367 35.52
v 374.898 6.553 34.713
v 468.872 5.794 33.945
v 374.898 6.553 34.713
v 374.936 6.053 34.205
v 374.936 6.053 34.205
v 374.898 6.553 34.713
v 281.298 7.389 35.536
v 374.936 6.053 34.205
v 281.298 7.389 35.536
v 281.255 6.833 34.988
v 281.255 6.833 34.988
v 281.298 7.389 35.536
v 187.63 7.652 35.799
v 281.255 6.833 34.988
v 187.63 7.652 35.799
v 187.574 7.087 35.245
v 750.134 1.581 28.944
v 656.207 3.162 31.051
v 656.227 2.65 30.271
v 656.227 2.65 30.271
v 656.207 3.162 31.051
v 562.542 4.217 32.105
v 656.227 2.65 30.271
v 562.542 4.217 32.105
v 562.5 3.661 31.557
v 562.5 3.661 31.557
v 562.542 4.217 32.105
v 468.874 4.743 32.631
v 562.5 3.661 31.557
v 468.874 4.743 32.631
v 468.836 3.927 31.033
v 468.836 3.927 31.033
v 468.874 4.743 32.631
v 374.92 4.726 32.093
v 468.836 3.927 31.033
v 374.92 4.726 32.093
v 374.949 3.957 30.265
v 374.949 3.957 30.265
v 374.92 4.726 32.093
v 281.25 5.251 32.618
v 374.949 3.957 30.265
v 281.25 5.251 32.618
v 281.268 4.474 31.048
v 281.268 4.474 31.048
v 281.25 5.251 32.618
v 187.58 5.513 32.88
v 281.268 4.474 31.048
v 187.58 5.513 32.88
v 187.593 4.732 31.308
v 750.143 19.479 36.052
v 562.569 18.706 37.117
v 750.149 16.589 36.055
v 750.149 16.589 36.055
v 562.569 18.706 37.117
v 562.525 16.571 37.095
v 750.149 16.589 36.055
v 562.525 16.571 37.095
v 750.095 13.657 36.028
v 750.095 13.657 36.028
v 562.525 16.571 37.095
v 562.514 14.459 37.09
v 750.095 13.657 36.028
v 562.514 14.459 37.09
v 750.147 10.799 35.528
v 750.147 10.799 35.528
v 562.514 14.459 37.09
v 562.553 12.644 36.846
v 750.147 10.799 35.528
v 562.553 12.644 36.846
v 750.142 8.428 34.999
v 562.503 20.765 36.821
v 750.095 22.339 35.502
v 562.556 22.644 36.585
v 562.556 22.644 36.585
v 750.095 22.339 35.502
v 750.101 24.712 34.979
v 562.556 22.644 36.585
v 750.101 24.712 34.979
v 562.551 23.43 36.319
v 750.111 31.559 28.932
v 656.227 30.54 30.271
v 750.163 31.333 29.748
v 750.163 31.333 29.748
v 656.227 30.54 30.271
v 656.171 29.974 31.033
v 750.163 31.333 29.748
v 656.171 29.974 31.033
v 750.115 30.773 30.513
v 656.171 29.974 31.033
v 656.237 29.757 31.592
v 750.115 30.773 30.513
v 750.115 30.773 30.513
v 656.237 29.757 31.592
v 656.231 29.227 32.378
v 750.115 30.773 30.513
v 656.231 29.227 32.378
v 750.164 30.544 31.064
v 750.164 30.544 31.064
v 656.231 29.227 32.378
v 656.236 28.705 32.907
v 750.164 30.544 31.064
v 656.236 28.705 32.907
v 750.128 29.73 31.835
v 750.128 29.73 31.835
v 656.236 28.705 32.907
v 656.232 27.912 33.694
v 750.128 29.73 31.835
v 656.232 27.912 33.694
v 750.137 29.21 32.629
v 750.137 29.21 32.629
v 656.232 27.912 33.694
v 656.164 27.075 34.186
v 750.137 29.21 32.629
v 656.164 27.075 34.186
v 750.163 28.439 33.168
v 750.163 28.439 33.168
v 656.164 27.075 34.186
v 656.176 26.295 34.719
v 750.163 28.439 33.168
v 656.176 26.295 34.719
v 750.138 27.632 33.682
v 750.138 27.632 33.682
v 656.176 26.295 34.719
v 656.198 25.52 34.993
v 750.138 27.632 33.682
v 656.198 25.52 34.993
v 750.142 26.845 34.21
v 750.142 26.845 34.21
v 656.198 25.52 34.993
v 750.132 25.786 34.731
v 750.101 24.712 34.979
v 750.132 25.786 34.731
v 562.551 23.43 36.319
v 562.551 23.43 36.319
v 750.132 25.786 34.731
v 656.198 25.52 34.993
v 562.551 23.43 36.319
v 656.198 25.52 34.993
v 562.541 24.213 36.051
v 562.541 24.213 36.051
v 656.198 25.52 34.993
v 656.176 26.295 34.719
v 562.541 24.213 36.051
v 656.176 26.295 34.719
v 562.526 25.254 35.517
v 562.526 25.254 35.517
v 656.176 26.295 34.719
v 656.164 27.075 34.186
v 562.526 25.254 35.517
v 656.164 27.075 34.186
v 562.539 25.79 35.26
v 562.539 25.79 35.26
v 656.164 27.075 34.186
v 656.232 27.912 33.694
v 562.539 25.79 35.26
v 656.232 27.912 33.694
v 562.558 26.592 34.744
v 562.558 26.592 34.744
v 656.232 27.912 33.694
v 656.236 28.705 32.907
v 562.558 26.592 34.744
v 656.236 28.705 32.907
v 562.558 27.381 34.217
v 562.558 27.381 34.217
v 656.236 28.705 32.907
v 656.231 29.227 32.378
v 562.558 27.381 34.217
v 656.231 29.227 32.378
v 562.551 27.903 33.424
v 562.551 27.903 33.424
v 656.231 29.227 32.378
v 656.237 29.757 31.592
v 562.551 27.903 33.424
v 468.835 26.816 34.453
v 562.558 27.381 34.217
v 562.558 27.381 34.217
v 468.835 26.816 34.453
v 468.865 26.312 34.994
v 562.558 27.381 34.217
v 468.865 26.312 34.994
v 562.558 26.592 34.744
v 562.558 26.592 34.744
v 468.865 26.312 34.994
v 468.901 25.548 35.538
v 562.558 26.592 34.744
v 468.901 25.548 35.538
v 562.539 25.79 35.26
v 562.539 25.79 35.26
v 468.901 25.548 35.538
v 468.855 24.726 36.042
v 562.539 25.79 35.26
v 468.855 24.726 36.042
v 562.526 25.254 35.517
v 562.526 25.254 35.517
v 468.855 24.726 36.042
v 374.929 23.151 37.097
v 562.526 25.254 35.517
v 374.929 23.151 37.097
v 562.541 24.213 36.051
v 562.541 24.213 36.051
v 374.929 23.151 37.097
v 374.952 22.377 37.371
v 562.541 24.213 36.051
v 374.952 22.377 37.371
v 562.551 23.43 36.319
v 562.551 23.43 36.319
v 374.952 22.377 37.371
v 374.959 21.593 37.638
v 562.551 23.43 36.319
v 374.959 21.593 37.638
v 562.556 22.644 36.585
v 750.111 31.559 28.932
v 750.133 31.838 28.417
v 656.215 30.794 29.476
v 750.111 31.559 28.932
v 656.215 30.794 29.476
v 656.227 30.54 30.271
v 656.227 30.54 30.271
v 656.215 30.794 29.476
v 562.553 29.483 31.584
v 656.227 30.54 30.271
v 562.553 29.483 31.584
v 656.171 29.974 31.033
v 656.171 29.974 31.033
v 562.553 29.483 31.584
v 562.557 28.96 32.112
v 656.171 29.974 31.033
v 562.557 28.96 32.112
v 656.237 29.757 31.592
v 656.237 29.757 31.592
v 562.557 28.96 32.112
v 562.559 28.435 32.902
v 656.237 29.757 31.592
v 562.559 28.435 32.902
v 562.551 27.903 33.424
v 562.551 27.903 33.424
v 562.559 28.435 32.902
v 468.895 27.385 33.957
v 562.551 27.903 33.424
v 468.895 27.385 33.957
v 468.835 26.816 34.453
v 562.55 30.007 30.003
v 656.166 31.023 28.925
v 656.204 31.577 27.366
v 562.533 32.1 22.628
v 562.523 31.567 25.517
v 656.194 32.096 24.73
v 656.194 32.096 24.73
v 562.523 31.567 25.517
v 562.522 30.777 28.674
v 656.194 32.096 24.73
v 562.522 30.777 28.674
v 656.204 31.577 27.366
v 656.204 31.577 27.366
v 562.522 30.777 28.674
v 562.55 30.007 30.003
v 562.55 30.007 30.003
v 562.522 30.777 28.674
v 468.867 29.207 31.049
v 562.55 30.007 30.003
v 468.867 29.207 31.049
v 468.834 28.395 32.61
v 468.834 28.395 32.61
v 468.867 29.207 31.049
v 374.967 27.65 33.432
v 468.834 28.395 32.61
v 374.967 27.65 33.432
v 374.967 27.123 34.221
v 374.967 27.123 34.221
v 374.967 27.65 33.432
v 281.238 27.081 34.191
v 374.967 27.123 34.221
v 281.238 27.081 34.191
v 281.235 26.552 34.978
v 281.235 26.552 34.978
v 281.238 27.081 34.191
v 187.607 26.843 34.472
v 281.235 26.552 34.978
v 187.607 26.843 34.472
v 187.626 26.067 35.271
v 562.552 32.377 19.48
v 562.533 32.1 22.628
v 750.104 33.133 21.825
v 750.104 33.133 21.825
v 562.533 32.1 22.628
v 656.194 32.096 24.73
v 750.104 33.133 21.825
v 656.194 32.096 24.73
v 750.11 32.875 23.933
v 750.11 32.875 23.933
v 656.194 32.096 24.73
v 656.204 31.577 27.366
v 750.11 32.875 23.933
v 656.204 31.577 27.366
v 750.124 32.358 26.308
v 750.124 32.358 26.308
v 656.204 31.577 27.366
v 656.166 31.023 28.925
v 750.124 32.358 26.308
v 656.166 31.023 28.925
v 750.116 32.09 27.62
v 562.503 20.765 36.821
v 562.556 22.644 36.585
v 374.923 20.778 37.883
v 374.923 20.778 37.883
v 562.556 22.644 36.585
v 374.959 21.593 37.638
v 374.923 20.778 37.883
v 374.959 21.593 37.638
v 281.281 21.848 38.158
v 281.281 21.848 38.158
v 374.959 21.593 37.638
v 374.952 22.377 37.371
v 281.281 21.848 38.158
v 374.952 22.377 37.371
v 281.245 23.139 37.615
v 281.245 23.139 37.615
v 374.952 22.377 37.371
v 374.929 23.151 37.097
v 281.245 23.139 37.615
v 374.929 23.151 37.097
v 374.919 23.933 36.828
v 374.919 23.933 36.828
v 374.929 23.151 37.097
v 468.855 24.726 36.042
v 374.919 23.933 36.828
v 468.855 24.726 36.042
v 374.929 24.466 36.57
v 374.929 24.466 36.57
v 468.855 24.726 36.042
v 468.901 25.548 35.538
v 374.929 24.466 36.57
v 468.901 25.548 35.538
v 374.946 25.268 36.053
v 374.946 25.268 36.053
v 468.901 25.548 35.538
v 468.865 26.312 34.994
v 374.946 25.268 36.053
v 468.865 26.312 34.994
v 374.951 26.06 35.529
v 374.951 26.06 35.529
v 468.865 26.312 34.994
v 468.835 26.816 34.453
v 374.951 26.06 35.529
v 468.835 26.816 34.453
v 374.918 26.563 34.723
v 374.918 26.563 34.723
v 468.835 26.816 34.453
v 468.895 27.385 33.957
v 374.918 26.563 34.723
v 468.895 27.385 33.957
v 374.967 27.123 34.221
v 374.967 27.123 34.221
v 468.895 27.385 33.957
v 562.557 28.96 32.112
v 374.967 27.123 34.221
v 562.557 28.96 32.112
v 468.834 28.395 32.61
v 468.834 28.395 32.61
v 562.557 28.96 32.112
v 562.553 29.483 31.584
v 468.834 28.395 32.61
v 562.553 29.483 31.584
v 562.55 30.007 30.003
v 562.55 30.007 30.003
v 562.553 29.483 31.584
v 656.215 30.794 29.476
v 562.55 30.007 30.003
v 656.215 30.794 29.476
v 656.166 31.023 28.925
v 656.166 31.023 28.925
v 656.215 30.794 29.476
v 750.133 31.838 28.417
v 656.166 31.023 28.925
v 750.133 31.838 28.417
v 750.116 32.09 27.62
v 750.163 7.39 34.747
v 750.142 8.428 34.999
v 562.559 10.543 36.586
v 562.559 10.543 36.586
v 750.142 8.428 34.999
v 562.553 12.644 36.846
v 562.559 10.543 36.586
v 562.553 12.644 36.846
v 374.944 13.689 38.157
v 374.944 13.689 38.157
v 562.553 12.644 36.846
v 562.514 14.459 37.09
v 374.944 13.689 38.157
v 562.514 14.459 37.09
v 374.937 16.579 38.153
v 374.937 16.579 38.153
v 562.514 14.459 37.09
v 562.525 16.571 37.095
v 374.937 16.579 38.153
v 562.525 16.571 37.095
v 374.921 19.461 38.145
v 374.921 19.461 38.145
v 562.525 16.571 37.095
v 562.569 18.706 37.117
v 374.921 19.461 38.145
v 562.569 18.706 37.117
v 562.503 20.765 36.821
v 562.503 20.765 36.821
v 562.569 18.706 37.117
v 750.143 19.479 36.052
v 562.503 20.765 36.821
v 750.143 19.479 36.052
v 750.095 22.339 35.502
v 750.138 32.105 11.318
v 750.13 31.836 10.787
v 656.208 30.79 9.476
v 656.208 30.79 9.476
v 656.183 31.036 10.253
v 750.138 32.105 11.318
v 750.138 32.105 11.318
v 656.183 31.036 10.253
v 656.18 31.56 11.567
v 750.138 32.105 11.318
v 656.18 31.56 11.567
v 750.117 32.353 12.622
v 750.117 32.353 12.622
v 656.18 31.56 11.567
v 656.222 32.115 14.219
v 750.117 32.353 12.622
v 656.222 32.115 14.219
v 750.137 32.893 15
v 750.137 32.893 15
v 656.222 32.115 14.219
v 750.137 33.156 17.105
v 750.104 33.133 19.457
v 750.137 33.156 17.105
v 562.512 32.086 16.303
v 562.512 32.086 16.303
v 750.137 33.156 17.105
v 656.222 32.115 14.219
v 562.512 32.086 16.303
v 656.222 32.115 14.219
v 562.567 31.598 13.436
v 562.567 31.598 13.436
v 656.222 32.115 14.219
v 656.18 31.56 11.567
v 562.567 31.598 13.436
v 656.18 31.56 11.567
v 562.517 30.773 10.517
v 562.517 30.773 10.517
v 656.18 31.56 11.567
v 656.183 31.036 10.253
v 562.517 30.773 10.517
v 656.183 31.036 10.253
v 562.502 29.973 8.931
v 562.502 29.973 8.931
v 656.183 31.036 10.253
v 656.208 30.79 9.476
v 562.527 28.412 6.049
v 562.518 28.932 6.834
v 656.189 29.987 7.888
v 750.109 26.822 4.725
v 656.206 26.315 4.213
v 750.122 27.621 5.258
v 750.122 27.621 5.258
v 656.206 26.315 4.213
v 656.229 27.121 4.751
v 750.122 27.621 5.258
v 656.229 27.121 4.751
v 750.167 28.442 5.807
v 750.167 28.442 5.807
v 656.229 27.121 4.751
v 656.199 27.89 5.525
v 750.167 28.442 5.807
v 656.199 27.89 5.525
v 750.141 29.213 6.583
v 750.141 29.213 6.583
v 656.199 27.89 5.525
v 656.233 28.703 6.068
v 750.141 29.213 6.583
v 656.233 28.703 6.068
v 750.103 29.712 7.09
v 750.103 29.712 7.09
v 656.233 28.703 6.068
v 656.228 29.225 6.592
v 750.103 29.712 7.09
v 656.228 29.225 6.592
v 750.098 30.498 7.877
v 750.098 30.498 7.877
v 656.228 29.225 6.592
v 656.223 29.748 7.379
v 750.098 30.498 7.877
v 656.223 29.748 7.379
v 750.116 30.774 8.412
v 750.116 30.774 8.412
v 656.223 29.748 7.379
v 750.152 31.325 9.22
v 750.157 31.592 10.012
v 750.152 31.325 9.22
v 656.189 29.987 7.888
v 656.189 29.987 7.888
v 750.152 31.325 9.22
v 656.223 29.748 7.379
v 656.189 29.987 7.888
v 656.223 29.748 7.379
v 562.527 28.412 6.049
v 562.527 28.412 6.049
v 656.223 29.748 7.379
v 656.228 29.225 6.592
v 562.527 28.412 6.049
v 656.228 29.225 6.592
v 562.516 27.879 5.517
v 562.516 27.879 5.517
v 656.228 29.225 6.592
v 656.233 28.703 6.068
v 562.516 27.879 5.517
v 656.233 28.703 6.068
v 562.533 27.364 5
v 562.533 27.364 5
v 656.233 28.703 6.068
v 656.199 27.89 5.525
v 562.533 27.364 5
v 656.199 27.89 5.525
v 562.541 26.58 4.477
v 562.541 26.58 4.477
v 656.199 27.89 5.525
v 656.229 27.121 4.751
v 562.541 26.58 4.477
v 656.229 27.121 4.751
v 562.552 25.799 3.957
v 562.552 25.799 3.957
v 656.229 27.121 4.751
v 656.206 26.315 4.213
v 562.563 24.228 3.173
v 656.233 25.545 3.963
v 562.501 23.395 2.616
v 562.501 23.395 2.616
v 656.233 25.545 3.963
v 750.148 25.797 4.481
v 562.501 23.395 2.616
v 750.148 25.797 4.481
v 562.52 22.619 2.625
v 750.109 26.822 4.725
v 656.233 25.545 3.963
v 656.206 26.315 4.213
v 656.206 26.315 4.213
v 656.233 25.545 3.963
v 562.51 25.243 3.409
v 656.206 26.315 4.213
v 562.51 25.243 3.409
v 562.552 25.799 3.957
v 562.552 25.799 3.957
v 562.51 25.243 3.409
v 468.847 24.72 2.885
v 562.552 25.799 3.957
v 468.847 24.72 2.885
v 562.541 26.58 4.477
v 562.541 26.58 4.477
v 468.847 24.72 2.885
v 468.897 25.545 3.437
v 562.541 26.58 4.477
v 468.897 25.545 3.437
v 562.533 27.364 5
v 562.533 27.364 5
v 468.897 25.545 3.437
v 468.841 26.295 3.935
v 562.533 27.364 5
v 468.841 26.295 3.935
v 562.516 27.879 5.517
v 562.516 27.879 5.517
v 468.841 26.295 3.935
v 468.872 26.842 4.476
v 562.516 27.879 5.517
v 468.872 26.842 4.476
v 562.527 28.412 6.049
v 562.527 28.412 6.049
v 468.872 26.842 4.476
v 468.852 27.355 4.993
v 562.527 28.412 6.049
v 468.852 27.355 4.993
v 562.518 28.932 6.834
v 562.518 28.932 6.834
v 468.852 27.355 4.993
v 374.913 27.086 4.725
v 562.518 28.932 6.834
v 374.913 27.086 4.725
v 468.896 28.438 6.331
v 468.896 28.438 6.331
v 374.913 27.086 4.725
v 374.922 27.618 5.519
v 468.896 28.438 6.331
v 374.922 27.618 5.519
v 374.966 28.438 7.12
v 374.966 28.438 7.12
v 374.922 27.618 5.519
v 281.237 27.08 4.722
v 374.966 28.438 7.12
v 281.237 27.08 4.722
v 281.229 27.864 6.296
v 281.229 27.864 6.296
v 281.237 27.08 4.722
v 187.601 26.839 4.474
v 281.229 27.864 6.296
v 187.601 26.839 4.474
v 187.623 27.644 6.064
v 562.52 22.619 2.625
v 374.944 19.478 0.795
v 374.941 20.791 1.056
v 374.941 20.791 1.056
v 374.944 19.478 0.795
v 281.233 18.921 0.247
v 374.941 20.791 1.056
v 281.233 18.921 0.247
v 281.232 20.236 0.509
v 281.232 20.236 0.509
v 281.233 18.921 0.247
v 187.576 18.928 -0.011
v 281.232 20.236 0.509
v 187.576 18.928 -0.011
v 187.623 20.014 0.276
v 562.52 22.619 2.625
v 374.941 20.791 1.056
v 562.501 23.395 2.616
v 562.501 23.395 2.616
v 374.941 20.791 1.056
v 374.945 21.583 1.321
v 562.501 23.395 2.616
v 374.945 21.583 1.321
v 562.563 24.228 3.173
v 562.563 24.228 3.173
v 374.945 21.583 1.321
v 374.914 22.35 1.569
v 562.563 24.228 3.173
v 374.914 22.35 1.569
v 562.51 25.243 3.409
v 562.51 25.243 3.409
v 374.914 22.35 1.569
v 374.966 23.176 1.858
v 562.51 25.243 3.409
v 374.966 23.176 1.858
v 468.847 24.72 2.885
v 468.847 24.72 2.885
v 374.966 23.176 1.858
v 374.907 23.925 2.092
v 468.847 24.72 2.885
v 374.907 23.925 2.092
v 468.897 25.545 3.437
v 468.897 25.545 3.437
v 374.907 23.925 2.092
v 374.955 24.485 2.642
v 468.897 25.545 3.437
v 374.955 24.485 2.642
v 468.841 26.295 3.935
v 468.841 26.295 3.935
v 374.955 24.485 2.642
v 374.919 25.249 3.15
v 468.841 26.295 3.935
v 374.919 25.249 3.15
v 468.872 26.842 4.476
v 468.872 26.842 4.476
v 374.919 25.249 3.15
v 374.971 26.074 3.702
v 468.872 26.842 4.476
v 374.971 26.074 3.702
v 468.852 27.355 4.993
v 468.852 27.355 4.993
v 374.971 26.074 3.702
v 374.901 26.551 4.193
v 468.852 27.355 4.993
v 374.901 26.551 4.193
v 374.913 27.086 4.725
v 374.913 27.086 4.725
v 374.901 26.551 4.193
v 281.271 25.788 3.423
v 374.913 27.086 4.725
v 281.271 25.788 3.423
v 281.288 26.59 3.958
v 281.288 26.59 3.958
v 281.271 25.788 3.423
v 187.608 25.529 3.162
v 281.288 26.59 3.958
v 187.608 25.529 3.162
v 187.634 26.073 3.701
v 750.157 31.592 10.012
v 656.189 29.987 7.888
v 656.2 30.521 8.683
v 656.2 30.521 8.683
v 656.189 29.987 7.888
v 562.518 28.932 6.834
v 656.2 30.521 8.683
v 562.518 28.932 6.834
v 562.51 29.453 7.619
v 562.51 29.453 7.619
v 562.518 28.932 6.834
v 468.896 28.438 6.331
v 562.51 29.453 7.619
v 468.896 28.438 6.331
v 468.9 29.23 7.911
v 468.9 29.23 7.911
v 468.896 28.438 6.331
v 374.966 28.438 7.12
v 468.9 29.23 7.911
v 374.966 28.438 7.12
v 374.919 29.195 8.675
v 374.919 29.195 8.675
v 374.966 28.438 7.12
v 281.229 27.864 6.296
v 374.919 29.195 8.675
v 281.229 27.864 6.296
v 281.255 28.671 7.888
v 281.255 28.671 7.888
v 281.229 27.864 6.296
v 187.623 27.644 6.064
v 281.255 28.671 7.888
v 187.623 27.644 6.064
v 187.592 28.411 7.627
v 750.153 13.697 3.168
v 562.54 14.476 1.846
v 750.115 16.565 2.887
v 750.115 16.565 2.887
v 562.54 14.476 1.846
v 562.513 16.562 1.832
v 750.115 16.565 2.887
v 562.513 16.562 1.832
v 750.12 19.463 3.152
v 750.12 19.463 3.152
v 562.513 16.562 1.832
v 562.537 18.684 1.844
v 750.12 19.463 3.152
v 562.537 18.684 1.844
v 750.108 22.349 3.409
v 750.108 22.349 3.409
v 562.537 18.684 1.844
v 562.513 20.772 2.095
v 750.108 22.349 3.409
v 562.513 20.772 2.095
v 750.119 24.724 3.941
v 562.546 12.639 2.112
v 750.163 10.81 3.437
v 562.548 10.536 2.639
v 562.548 10.536 2.639
v 750.163 10.81 3.437
v 750.164 8.443 3.963
v 562.548 10.536 2.639
v 750.164 8.443 3.963
v 562.554 9.75 2.642
v 750.105 1.561 9.985
v 656.213 2.641 8.689
v 750.157 1.86 9.222
v 750.157 1.86 9.222
v 656.213 2.641 8.689
v 656.199 3.157 7.893
v 750.157 1.86 9.222
v 656.199 3.157 7.893
v 750.132 2.369 8.42
v 656.199 3.157 7.893
v 656.224 3.438 7.379
v 750.132 2.369 8.42
v 750.132 2.369 8.42
v 656.224 3.438 7.379
v 656.184 3.935 6.57
v 750.132 2.369 8.42
v 656.184 3.935 6.57
v 750.167 2.92 7.912
v 750.167 2.92 7.912
v 656.184 3.935 6.57
v 656.213 4.746 6.058
v 750.167 2.92 7.912
v 656.213 4.746 6.058
v 750.141 3.428 7.109
v 750.141 3.428 7.109
v 656.213 4.746 6.058
v 656.232 5.285 5.541
v 750.141 3.428 7.109
v 656.232 5.285 5.541
v 750.095 3.922 6.56
v 750.095 3.922 6.56
v 656.232 5.285 5.541
v 656.19 6.045 4.731
v 750.095 3.922 6.56
v 656.19 6.045 4.731
v 750.133 4.738 5.79
v 750.133 4.738 5.79
v 656.19 6.045 4.731
v 656.185 6.83 4.202
v 750.133 4.738 5.79
v 656.185 6.83 4.202
v 750.156 5.543 5.275
v 750.156 5.543 5.275
v 656.185 6.83 4.202
v 656.175 7.613 3.934
v 750.156 5.543 5.275
v 656.175 7.613 3.934
v 750.168 6.604 4.755
v 750.168 6.604 4.755
v 656.175 7.613 3.934
v 750.142 7.375 4.479
v 750.164 8.443 3.963
v 750.142 7.375 4.479
v 562.554 9.75 2.642
v 562.554 9.75 2.642
v 750.142 7.375 4.479
v 656.175 7.613 3.934
v 562.554 9.75 2.642
v 656.175 7.613 3.934
v 562.545 8.955 3.164
v 562.545 8.955 3.164
v 656.175 7.613 3.934
v 656.185 6.83 4.202
v 562.545 8.955 3.164
v 656.185 6.83 4.202
v 562.519 8.147 3.414
v 562.519 8.147 3.414
v 656.185 6.83 4.202
v 656.19 6.045 4.731
v 562.519 8.147 3.414
v 656.19 6.045 4.731
v 562.539 7.372 3.95
v 562.539 7.372 3.95
v 656.19 6.045 4.731
v 656.232 5.285 5.541
v 562.539 7.372 3.95
v 656.232 5.285 5.541
v 562.504 6.558 4.459
v 562.504 6.558 4.459
v 656.232 5.285 5.541
v 656.213 4.746 6.058
v 562.504 6.558 4.459
v 656.213 4.746 6.058
v 562.563 5.81 5.014
v 562.563 5.81 5.014
v 656.213 4.746 6.058
v 656.184 3.935 6.57
v 562.563 5.81 5.014
v 656.184 3.935 6.57
v 562.555 5.278 5.537
v 562.555 5.278 5.537
v 656.184 3.935 6.57
v 656.224 3.438 7.379
v 562.555 5.278 5.537
v 468.864 6.315 4.473
v 562.563 5.81 5.014
v 562.563 5.81 5.014
v 468.864 6.315 4.473
v 468.878 7.113 3.953
v 562.563 5.81 5.014
v 468.878 7.113 3.953
v 562.504 6.558 4.459
v 562.504 6.558 4.459
v 468.878 7.113 3.953
v 468.87 7.634 3.423
v 562.504 6.558 4.459
v 468.87 7.634 3.423
v 562.539 7.372 3.95
v 562.539 7.372 3.95
v 468.87 7.634 3.423
v 468.833 8.398 2.879
v 562.539 7.372 3.95
v 468.833 8.398 2.879
v 562.519 8.147 3.414
v 562.519 8.147 3.414
v 468.833 8.398 2.879
v 374.916 9.986 1.833
v 562.519 8.147 3.414
v 374.916 9.986 1.833
v 562.545 8.955 3.164
v 562.545 8.955 3.164
v 374.916 9.986 1.833
v 374.949 10.798 1.586
v 562.545 8.955 3.164
v 374.949 10.798 1.586
v 562.554 9.75 2.642
v 562.554 9.75 2.642
v 374.949 10.798 1.586
v 374.968 11.601 1.333
v 562.554 9.75 2.642
v 374.968 11.601 1.333
v 562.548 10.536 2.639
v 750.105 1.561 9.985
v 750.133 1.317 10.789
v 656.233 2.391 9.489
v 750.105 1.561 9.985
v 656.233 2.391 9.489
v 656.213 2.641 8.689
v 656.213 2.641 8.689
v 656.233 2.391 9.489
v 562.563 3.705 7.646
v 656.213 2.641 8.689
v 562.563 3.705 7.646
v 656.199 3.157 7.893
v 656.199 3.157 7.893
v 562.563 3.705 7.646
v 562.51 4.194 6.83
v 656.199 3.157 7.893
v 562.51 4.194 6.83
v 656.224 3.438 7.379
v 656.224 3.438 7.379
v 562.51 4.194 6.83
v 562.518 4.726 6.045
v 656.224 3.438 7.379
v 562.518 4.726 6.045
v 562.555 5.278 5.537
v 562.555 5.278 5.537
v 562.518 4.726 6.045
v 468.828 5.763 4.981
v 562.555 5.278 5.537
v 468.828 5.763 4.981
v 468.864 6.315 4.473
v 750.135 1.055 11.316
v 750.151 0.803 12.639
v 656.207 2.11 10.265
v 656.207 2.11 10.265
v 750.151 0.803 12.639
v 656.235 1.603 11.594
v 656.207 2.11 10.265
v 656.235 1.603 11.594
v 562.553 3.172 8.956
v 750.15 0.277 15.007
v 656.194 1.048 14.205
v 656.235 1.603 11.594
v 656.235 1.603 11.594
v 656.194 1.048 14.205
v 562.545 2.64 10.531
v 656.235 1.603 11.594
v 562.545 2.64 10.531
v 562.553 3.172 8.956
v 562.553 3.172 8.956
v 562.545 2.64 10.531
v 468.868 3.949 7.895
v 562.553 3.172 8.956
v 468.868 3.949 7.895
v 468.893 4.756 6.329
v 468.893 4.756 6.329
v 468.868 3.949 7.895
v 374.965 5.547 5.541
v 468.893 4.756 6.329
v 374.965 5.547 5.541
v 374.926 6.046 4.732
v 374.926 6.046 4.732
v 374.965 5.547 5.541
v 281.259 6.31 4.733
v 374.926 6.046 4.732
v 281.259 6.31 4.733
v 281.255 6.833 3.941
v 281.255 6.833 3.941
v 281.259 6.31 4.733
v 187.623 6.595 4.485
v 281.255 6.833 3.941
v 187.623 6.595 4.485
v 187.593 7.1 3.681
v 750.168 0.289 23.962
v 656.178 1.037 24.722
v 750.096 -0.024 21.821
v 750.096 -0.024 21.821
v 656.178 1.037 24.722
v 562.54 1.058 22.632
v 750.096 -0.024 21.821
v 562.54 1.058 22.632
v 750.128 -0.002 19.469
v 750.128 -0.002 19.469
v 562.54 1.058 22.632
v 562.518 0.779 19.463
v 750.128 -0.002 19.469
v 562.518 0.779 19.463
v 750.154 0.016 17.114
v 750.154 0.016 17.114
v 562.518 0.779 19.463
v 562.525 1.048 16.31
v 750.154 0.016 17.114
v 562.525 1.048 16.31
v 656.194 1.048 14.205
v 656.194 1.048 14.205
v 562.525 1.048 16.31
v 562.499 1.556 13.402
v 656.194 1.048 14.205
v 562.499 1.556 13.402
v 562.545 2.64 10.531
v 562.546 12.639 2.112
v 562.548 10.536 2.639
v 374.9 12.343 1.035
v 374.9 12.343 1.035
v 562.548 10.536 2.639
v 374.968 11.601 1.333
v 374.9 12.343 1.035
v 374.968 11.601 1.333
v 281.283 11.325 0.798
v 281.283 11.325 0.798
v 374.968 11.601 1.333
v 374.949 10.798 1.586
v 281.283 11.325 0.798
v 374.949 10.798 1.586
v 281.261 9.995 1.576
v 281.261 9.995 1.576
v 374.949 10.798 1.586
v 374.916 9.986 1.833
v 281.261 9.995 1.576
v 374.916 9.986 1.833
v 374.919 9.199 2.098
v 374.919 9.199 2.098
v 374.916 9.986 1.833
v 468.833 8.398 2.879
v 374.919 9.199 2.098
v 468.833 8.398 2.879
v 374.921 8.674 2.625
v 374.921 8.674 2.625
v 468.833 8.398 2.879
v 468.87 7.634 3.423
v 374.921 8.674 2.625
v 468.87 7.634 3.423
v 374.898 7.869 3.14
v 374.898 7.869 3.14
v 468.87 7.634 3.423
v 468.878 7.113 3.953
v 374.898 7.869 3.14
v 468.878 7.113 3.953
v 374.911 7.351 3.672
v 374.911 7.351 3.672
v 468.878 7.113 3.953
v 468.864 6.315 4.473
v 374.911 7.351 3.672
v 468.864 6.315 4.473
v 374.963 6.598 4.225
v 374.963 6.598 4.225
v 468.864 6.315 4.473
v 468.828 5.763 4.981
v 374.963 6.598 4.225
v 468.828 5.763 4.981
v 374.926 6.046 4.732
v 374.926 6.046 4.732
v 468.828 5.763 4.981
v 562.51 4.194 6.83
v 374.926 6.046 4.732
v 562.51 4.194 6.83
v 468.893 4.756 6.329
v 468.893 4.756 6.329
v 562.51 4.194 6.83
v 562.563 3.705 7.646
v 468.893 4.756 6.329
v 562.563 3.705 7.646
v 562.553 3.172 8.956
v 562.553 3.172 8.956
v 562.563 3.705 7.646
v 656.233 2.391 9.489
v 562.553 3.172 8.956
v 656.233 2.391 9.489
v 656.207 2.11 10.265
v 656.207 2.11 10.265
v 656.233 2.391 9.489
v 750.133 1.317 10.789
v 656.207 2.11 10.265
v 750.133 1.317 10.789
v 750.135 1.055 11.316
v 750.148 25.797 4.481
v 750.119 24.724 3.941
v 562.52 22.619 2.625
v 562.52 22.619 2.625
v 750.119 24.724 3.941
v 562.513 20.772 2.095
v 562.52 22.619 2.625
v 562.513 20.772 2.095
v 374.944 19.478 0.795
v 374.944 19.478 0.795
v 562.513 20.772 2.095
v 562.537 18.684 1.844
v 374.944 19.478 0.795
v 562.537 18.684 1.844
v 374.955 16.591 0.8
v 374.955 16.591 0.8
v 562.537 18.684 1.844
v 562.513 16.562 1.832
v 374.955 16.591 0.8
v 562.513 16.562 1.832
v 374.933 13.681 0.789
v 374.933 13.681 0.789
v 562.513 16.562 1.832
v 562.54 14.476 1.846
v 374.933 13.681 0.789
v 562.54 14.476 1.846
v 562.546 12.639 2.112
v 562.546 12.639 2.112
v 562.54 14.476 1.846
v 750.153 13.697 3.168
v 562.546 12.639 2.112
v 750.153 13.697 3.168
v 750.163 10.81 3.437
v 187.623 6.595 4.485
v -0.009 6.308 4.468
v 187.593 7.1 3.681
v 187.593 7.1 3.681
v -0.009 6.308 4.468
v -0.035 6.816 3.929
v 187.593 7.1 3.681
v -0.035 6.816 3.929
v 187.576 7.615 3.146
v 187.576 7.615 3.146
v -0.035 6.816 3.929
v 0.02 7.381 3.167
v 187.576 7.615 3.146
v 0.02 7.381 3.167
v 187.566 8.134 2.615
v 187.566 8.134 2.615
v 0.02 7.381 3.167
v 0.023 8.172 2.642
v 187.566 8.134 2.615
v 0.023 8.172 2.642
v 187.584 8.936 2.098
v 187.584 8.936 2.098
v 0.023 8.172 2.642
v -0.012 8.675 2.099
v 187.584 8.936 2.098
v -0.012 8.675 2.099
v 187.577 10.247 1.305
v 187.577 10.247 1.305
v -0.012 8.675 2.099
v -0.017 10.249 1.307
v 187.577 10.247 1.305
v -0.017 10.249 1.307
v 187.575 11.824 0.515
v 187.575 11.824 0.515
v -0.017 10.249 1.307
v -0.016 11.566 0.781
v 187.575 11.824 0.515
v -0.016 11.566 0.781
v 187.579 13.142 0.253
v 187.579 13.142 0.253
v -0.016 11.566 0.781
v -0.016 13.144 0.255
v 187.579 13.142 0.253
v -0.016 13.144 0.255
v 187.571 14.452 -0.014
v 187.571 14.452 -0.014
v -0.016 13.144 0.255
v -0.015 14.198 0.256
v 187.571 14.452 -0.014
v -0.015 14.198 0.256
v 187.62 16.591 0.011
v 187.62 16.591 0.011
v -0.015 14.198 0.256
v 0.029 16.596 0.014
v 187.62 16.591 0.011
v 0.029 16.596 0.014
v 187.576 18.928 -0.011
v 187.576 18.928 -0.011
v 0.029 16.596 0.014
v -0.011 18.936 0.257
v 187.576 18.928 -0.011
v -0.011 18.936 0.257
v 187.623 20.014 0.276
v 187.623 20.014 0.276
v -0.011 18.936 0.257
v 0.034 20.284 0.28
v 187.623 20.014 0.276
v 0.034 20.284 0.28
v 187.57 21.555 0.512
v 187.57 21.555 0.512
v 0.034 20.284 0.28
v 0.015 21.585 0.797
v 187.57 21.555 0.512
v 0.015 21.585 0.797
v 187.6 22.892 1.316
v 187.6 22.892 1.316
v 0.015 21.585 0.797
v -0.015 23.144 1.308
v 187.6 22.892 1.316
v -0.015 23.144 1.308
v 187.61 24.215 2.111
v 187.61 24.215 2.111
v -0.015 23.144 1.308
v 0.012 24.478 2.111
v 187.61 24.215 2.111
v 0.012 24.478 2.111
v 187.6 24.997 2.632
v 187.6 24.997 2.632
v 0.012 24.478 2.111
v -0.03 24.974 2.616
v 187.6 24.997 2.632
v -0.03 24.974 2.616
v 187.608 25.529 3.162
v 187.608 25.529 3.162
v -0.03 24.974 2.616
v -0.015 25.774 3.15
v 187.608 25.529 3.162
v -0.015 25.774 3.15
v 187.634 26.073 3.701
v 187.634 26.073 3.701
v -0.015 25.774 3.15
v -0.036 26.286 3.929
v 187.634 26.073 3.701
v -0.036 26.286 3.929
v 187.601 26.839 4.474
v 187.601 26.839 4.474
v -0.036 26.286 3.929
v -0.026 26.819 4.46
v 187.601 26.839 4.474
v -0.026 26.819 4.46
v 187.623 27.644 6.064
v 187.623 27.644 6.064
v -0.026 26.819 4.46
v -0.014 27.617 6.045
v 187.623 27.644 6.064
v -0.014 27.617 6.045
v 187.592 28.411 7.627
v 187.592 28.411 7.627
v -0.014 27.617 6.045
v 0.022 28.431 7.904
v 187.592 28.411 7.627
v 0.022 28.431 7.904
v 187.562 29.706 11.558
v 187.562 29.706 11.558
v 0.022 28.431 7.904
v -0.013 29.723 11.571
v 187.562 29.706 11.558
v -0.013 29.723 11.571
v 187.589 30.514 15.519
v 187.589 30.514 15.519
v -0.013 29.723 11.571
v 0.021 30.536 15.534
v 187.589 30.514 15.519
v 0.021 30.536 15.534
v 187.617 30.797 19.48
v 187.617 30.797 19.48
v 0.021 30.536 15.534
v 0.022 30.799 19.481
v 187.617 30.797 19.48
v 0.022 30.799 19.481
v 187.609 30.528 23.422
v 187.609 30.528 23.422
v 0.022 30.799 19.481
v -0.019 30.508 23.407
v 187.609 30.528 23.422
v -0.019 30.508 23.407
v 187.606 29.737 27.63
v 187.606 29.737 27.63
v -0.019 30.508 23.407
v -0.026 29.713 27.35
v 187.606 29.737 27.63
v -0.026 29.713 27.35
v 187.61 28.424 31.316
v 187.61 28.424 31.316
v -0.026 29.713 27.35
v 0.037 28.442 31.065
v 187.61 28.424 31.316
v 0.037 28.442 31.065
v 187.57 27.607 32.875
v 187.57 27.607 32.875
v 0.037 28.442 31.065
v 0.027 27.646 32.902
v 187.607 26.843 34.472
v 0.009 26.843 34.472
v 187.626 26.067 35.271
v 187.626 26.067 35.271
v 0.009 26.843 34.472
v 0.001 26.312 35.258
v 187.626 26.067 35.271
v 0.001 26.312 35.258
v 187.563 25.497 35.765
v 187.563 25.497 35.765
v 0.001 26.312 35.258
v -0.022 25.769 35.772
v 187.563 25.497 35.765
v -0.022 25.769 35.772
v 187.58 24.982 36.563
v 187.58 24.982 36.563
v -0.022 25.769 35.772
v 0.033 25.019 36.326
v 187.58 24.982 36.563
v 0.033 25.019 36.326
v 187.596 24.205 37.097
v 187.596 24.205 37.097
v 0.033 25.019 36.326
v 0.02 24.484 36.846
v 187.596 24.205 37.097
v 0.02 24.484 36.846
v 187.598 22.89 37.888
v 187.598 22.89 37.888
v 0.02 24.484 36.846
v -0.029 23.133 37.61
v 187.598 22.89 37.888
v -0.029 23.133 37.61
v 187.608 21.581 38.419
v 187.608 21.581 38.419
v -0.029 23.133 37.61
v 0.002 21.577 38.415
v 187.608 21.581 38.419
v 0.002 21.577 38.415
v 187.633 20.021 38.695
v 187.633 20.021 38.695
v 0.002 21.577 38.415
v -0.018 20.247 38.669
v 187.633 20.021 38.695
v -0.018 20.247 38.669
v 187.635 18.97 38.959
v 187.635 18.97 38.959
v -0.018 20.247 38.669
v -0.036 18.919 38.923
v 187.635 18.97 38.959
v -0.036 18.919 38.923
v 187.582 16.565 38.932
v 187.582 16.565 38.932
v -0.036 18.919 38.923
v -0.006 16.572 38.938
v 187.582 16.565 38.932
v -0.006 16.572 38.938
v 187.587 14.463 38.935
v 187.587 14.463 38.935
v -0.006 16.572 38.938
v -0.019 14.194 38.931
v 187.587 14.463 38.935
v -0.019 14.194 38.931
v 187.584 13.145 38.67
v 187.584 13.145 38.67
v -0.019 14.194 38.931
v -0.026 13.137 38.664
v 187.584 13.145 38.67
v -0.026 13.137 38.664
v 187.598 11.84 38.414
v 187.598 11.84 38.414
v -0.026 13.137 38.664
v 0.029 11.597 38.429
v 187.598 11.84 38.414
v 0.029 11.597 38.429
v 187.627 10.281 37.902
v 187.627 10.281 37.902
v 0.029 11.597 38.429
v -0.005 10.258 37.622
v 187.627 10.281 37.902
v -0.005 10.258 37.622
v 187.59 8.94 37.095
v 187.59 8.94 37.095
v -0.005 10.258 37.622
v 0.02 8.697 36.846
v 187.59 8.94 37.095
v 0.02 8.697 36.846
v 187.619 8.171 36.583
v 187.619 8.171 36.583
v 0.02 8.697 36.846
v 0.001 8.157 36.31
v 187.619 8.171 36.583
v 0.001 8.157 36.31
v 187.63 7.652 35.799
v 187.63 7.652 35.799
v 0.001 8.157 36.31
v 0.021 7.382 35.794
v 187.63 7.652 35.799
v 0.021 7.382 35.794
v 187.574 7.087 35.245
v 187.574 7.087 35.245
v 0.021 7.382 35.794
v 0.004 6.844 35.259
v 187.574 7.087 35.245
v 0.004 6.844 35.259
v 187.61 6.586 34.474
v 187.61 6.586 34.474
v 0.004 6.844 35.259
v 0.019 6.328 34.477
v 187.61 6.586 34.474
v 0.019 6.328 34.477
v 187.58 5.513 32.88
v 187.58 5.513 32.88
v 0.019 6.328 34.477
v -0.009 5.519 32.884
v 187.58 5.513 32.88
v -0.009 5.519 32.884
v 187.593 4.732 31.308
v 187.593 4.732 31.308
v -0.009 5.519 32.884
v -0.02 4.722 31.037
v 187.593 4.732 31.308
v -0.02 4.722 31.037
v 187.591 3.415 27.623
v 187.591 3.415 27.623
v -0.02 4.722 31.037
v 0.031 3.442 27.379
v 187.591 3.415 27.623
v 0.031 3.442 27.379
v 187.579 2.618 23.407
v 187.579 2.618 23.407
v 0.031 3.442 27.379
v 0.01 2.638 23.422
v 187.579 2.618 23.407
v 0.01 2.638 23.422
v 187.565 2.345 19.454
v 187.565 2.345 19.454
v 0.01 2.638 23.422
v 0.023 2.384 19.482
v 187.565 2.345 19.454
v 0.023 2.384 19.482
v 187.609 2.638 15.529
v 187.609 2.638 15.529
v 0.023 2.384 19.482
v -0.006 2.627 15.521
v 187.609 2.638 15.529
v -0.006 2.627 15.521
v 187.589 3.414 11.572
v 187.589 3.414 11.572
v -0.006 2.627 15.521
v -0.021 3.406 11.566
v 187.589 3.414 11.572
v -0.021 3.406 11.566
v 187.604 4.74 7.633
v 187.604 4.74 7.633
v -0.021 3.406 11.566
v 0.023 4.752 7.905
v 187.604 4.74 7.633
v 0.023 4.752 7.905
v 187.622 5.542 6.063
v 187.622 5.542 6.063
v 0.023 4.752 7.905
v -0.032 5.503 6.035
v 750.13 31.836 10.787
v 656.2 30.521 8.683
v 656.208 30.79 9.476
v 656.208 30.79 9.476
v 656.2 30.521 8.683
v 562.51 29.453 7.619
v 656.208 30.79 9.476
v 562.51 29.453 7.619
v 562.502 29.973 8.931
v 562.502 29.973 8.931
v 562.51 29.453 7.619
v 468.9 29.23 7.911
v 562.502 29.973 8.931
v 468.9 29.23 7.911
v 562.517 30.773 10.517
v 562.517 30.773 10.517
v 468.9 29.23 7.911
v 374.919 29.195 8.675
v 562.517 30.773 10.517
v 374.919 29.195 8.675
v 562.567 31.598 13.436
v 562.567 31.598 13.436
v 374.919 29.195 8.675
v 374.92 30.511 12.096
v 562.567 31.598 13.436
v 374.92 30.511 12.096
v 562.512 32.086 16.303
v 562.512 32.086 16.303
v 374.92 30.511 12.096
v 374.961 31.329 15.8
v 562.512 32.086 16.303
v 374.961 31.329 15.8
v 562.552 32.377 19.48
v 562.552 32.377 19.48
v 374.961 31.329 15.8
v 374.936 31.312 19.471
v 562.552 32.377 19.48
v 374.936 31.312 19.471
v 562.533 32.1 22.628
v 562.533 32.1 22.628
v 374.936 31.312 19.471
v 374.903 31.289 23.138
v 562.533 32.1 22.628
v 374.903 31.289 23.138
v 562.523 31.567 25.517
v 562.523 31.567 25.517
v 374.903 31.289 23.138
v 374.948 30.531 26.845
v 562.523 31.567 25.517
v 374.948 30.531 26.845
v 562.522 30.777 28.674
v 562.522 30.777 28.674
v 374.948 30.531 26.845
v 374.962 29.225 30.272
v 562.522 30.777 28.674
v 374.962 29.225 30.272
v 468.867 29.207 31.049
v 468.867 29.207 31.049
v 374.962 29.225 30.272
v 374.954 28.43 32.11
v 468.867 29.207 31.049
v 374.954 28.43 32.11
v 374.967 27.65 33.432
v 374.967 27.65 33.432
v 374.954 28.43 32.11
v 281.295 27.91 32.64
v 374.967 27.65 33.432
v 281.295 27.91 32.64
v 281.238 27.081 34.191
v 281.238 27.081 34.191
v 281.295 27.91 32.64
v 187.57 27.607 32.875
v 281.238 27.081 34.191
v 187.57 27.607 32.875
v 187.607 26.843 34.472
v 187.607 26.843 34.472
v 187.57 27.607 32.875
v 0.027 27.646 32.902
v 187.607 26.843 34.472
v 0.027 27.646 32.902
v 0.009 26.843 34.472
v 750.109 1.3 28.405
v 656.227 2.65 30.271
v 656.175 2.35 29.456
v 656.175 2.35 29.456
v 656.227 2.65 30.271
v 562.5 3.661 31.557
v 656.175 2.35 29.456
v 562.5 3.661 31.557
v 562.528 3.155 29.993
v 562.528 3.155 29.993
v 562.5 3.661 31.557
v 468.836 3.927 31.033
v 562.528 3.155 29.993
v 468.836 3.927 31.033
v 562.556 2.648 28.691
v 562.556 2.648 28.691
v 468.836 3.927 31.033
v 374.949 3.957 30.265
v 562.556 2.648 28.691
v 374.949 3.957 30.265
v 562.527 1.575 25.519
v 562.527 1.575 25.519
v 374.949 3.957 30.265
v 374.931 2.892 26.836
v 562.527 1.575 25.519
v 374.931 2.892 26.836
v 562.54 1.058 22.632
v 562.54 1.058 22.632
v 374.931 2.892 26.836
v 374.945 2.113 23.16
v 562.54 1.058 22.632
v 374.945 2.113 23.16
v 562.518 0.779 19.463
v 562.518 0.779 19.463
v 374.945 2.113 23.16
v 374.901 1.819 19.454
v 562.518 0.779 19.463
v 374.901 1.819 19.454
v 562.525 1.048 16.31
v 562.525 1.048 16.31
v 374.901 1.819 19.454
v 374.952 2.117 15.796
v 562.525 1.048 16.31
v 374.952 2.117 15.796
v 562.499 1.556 13.402
v 562.499 1.556 13.402
v 374.952 2.117 15.796
v 374.943 2.901 12.108
v 562.499 1.556 13.402
v 374.943 2.901 12.108
v 562.545 2.64 10.531
v 562.545 2.64 10.531
v 374.943 2.901 12.108
v 374.927 3.942 8.679
v 562.545 2.64 10.531
v 374.927 3.942 8.679
v 468.868 3.949 7.895
v 468.868 3.949 7.895
v 374.927 3.942 8.679
v 374.937 4.738 7.105
v 468.868 3.949 7.895
v 374.937 4.738 7.105
v 374.965 5.547 5.541
v 374.965 5.547 5.541
v 374.937 4.738 7.105
v 281.273 5.267 6.318
v 374.965 5.547 5.541
v 281.273 5.267 6.318
v 281.259 6.31 4.733
v 281.259 6.31 4.733
v 281.273 5.267 6.318
v 187.622 5.542 6.063
v 281.259 6.31 4.733
v 187.622 5.542 6.063
v 187.623 6.595 4.485
v 187.623 6.595 4.485
v 187.622 5.542 6.063
v -0.032 5.503 6.035
v 187.623 6.595 4.485
v -0.032 5.503 6.035
v -0.009 6.308 4.468
f 1 2 3
f 4 5 6
f 7 8 9
f 10 11 12
f 13 14 15
f 16 17 18
f 19 20 21
f 22 23 24
f 25 26 27
f 28 29 30
f 31 32 33
f 34 35 36
f 37 38 39
f 40 41 42
f 43 44 45
f 46 47 48
f 49 50 51
f 52 53 54
f 55 56 57
f 58 59 60
f 61 62 63
f 64 65 66
f 67 68 69
f 70 71 72
f 73 74 75
f 76 77 78
f 79 80 81
f 82 83 84
f 85 86 87
f 88 89 90
f 91 92 93
f 94 95 96
f 97 98 99
f 100 101 102
f 103 104 105
f 106 107 108
f 109 110 111
f 112 113 114
f 115 116 117
f 118 119 120
f 121 122 123
f 124 125 126
f 127 128 129
f 130 131 132
f 133 134 135
f 136 137 138
f 139 140 141
f 142 143 144
f 145 146 147
f 148 149 150
f 151 152 153
f 154 155 156
f 157 158 159
f 160 161 162
f 163 164 165
f 166 167 168
f 169 170 171
f 172 173 174
f 175 176 177
f 178 179 180
f 181 182 183
f 184 185 186
f 187 188 189
f 190 191 192
f 193 194 195
f 196 197 198
f 199 200 201
f 202 203 204
f 205 206 207
f 208 209 210
f 211 212 213
f 214 215 216
f 217 218 219
f 220 221 222
f 223 224 225
f 226 227 228
f 229 230 231
f 232 233 234
f 235 236 237
f 238 239 240
f 241 242 243
f 244 245 246
f 247 248 249
f 250 251 252
f 253 254 255
f 256 257 258
f 259 260 261
f 262 263 264
f 265 266 267
f 268 269 270
f 271 272 273
f 274 275 276
f 277 278 279
f 280 281 282
f 283 284 285
f 286 287 288
f 289 290 291
f 292 293 294
f 295 296 297
f 298 299 300
f 301 302 303
f 304 305 306
f 307 308 309
f 310 311 312
f 313 314 315
f 316 317 318
f 319 320 321
f 322 323 324
f 325 326 327
f 328 329 330
f 331 332 333
f 334 335 336
f 337 338 339
f 340 341 342
f 343 344 345
f 346 347 348
f 349 350 351
f 352 353 354
f 355 356 357
f 358 359 360
f 361 362 363
f 364 365 366
f 367 368 369
f 370 371 372
f 373 374 375
f 376 377 378
f 379 380 381
f 382 383 384
f 385 386 387
f 388 389 390
f 391 392 393
f 394 395 396
f 397 398 399
f 400 401 402
f 403 404 405
f 406 407 408
f 409 410 411
f 412 413 414
f 415 416 417
f 418 419 420
f 421 422 423
f 424 425 426
f 427 428 429
f 430 431 432
f 433 434 435
f 436 437 438
f 439 440 441
f 442 443 444
f 445 446 447
f 448 449 450
f 451 452 453
f 454 455 456
f 457 458 459
f 460 461 462
f 463 464 465
f 466 467 468
f 469 470 471
f 472 473 474
f 475 476 477
f 478 479 480
f 481 482 483
f 484 485 486
f 487 488 489
f 490 491 492
f 493 494 495
f 496 497 498
f 499 500 501
f 502 503 504
f 505 506 507
f 508 509 510
f 511 512 513
f 514 515 516
f 517 518 519
f 520 521 522
f 523 524 525
f 526 527 528
f 529 530 531
f 532 533 534
f 535 536 537
f 538 539 540
f 541 542 543
f 544 545 546
f 547 548 549
f 550 551 552
f 553 554 555
f 556 557 558
f 559 560 561
f 562 563 564
f 565 566 567
f 568 569 570
f 571 572 573
f 574 575 576
f 577 578 579
f 580 581 582
f 583 584 585
f 586 587 588
f 589 590 591
f 592 593 594
f 595 596 597
f 598 599 600
f 601 602 603
f 604 605 606
f 607 608 609
f 610 611 612
f 613 614 615
f 616 617 618
f 619 620 621
f 622 623 624
f 625 626 627
f 628 629 630
f 631 632 633
f 634 635 636
f 637 638 639
f 640 641 642
f 643 644 645
f 646 647 648
f 649 650 651
f 652 653 654
f 655 656 657
f 658 659 660
f 661 662 663
f 664 665 666
f 667 668 669
f 670 671 672
f 673 674 675
f 676 677 678
f 679 680 681
f 682 683 684
f 685 686 687
f 688 689 690
f 691 692 693
f 694 695 696
f 697 698 699
f 700 701 702
f 703 704 705
f 706 707 708
f 709 710 711
f 712 713 714
f 715 716 717
f 718 719 720
f 721 722 723
f 724 725 726
f 727 728 729
f 730 731 732
f 733 734 735
f 736 737 738
f 739 740 741
f 742 743 744
f 745 746 747
f 748 749 750
f 751 752 753
f 754 755 756
f 757 758 759
f 760 761 762
f 763 764 765
f 766 767 768
f 769 770 771
f 772 773 774
f 775 776 777
f 778 779 780
f 781 782 783
f 784 785 786
f 787 788 789
f 790 791 792
f 793 794 795
f 796 797 798
f 799 800 801
f 802 803 804
f 805 806 807
f 808 809 810
f 811 812 813
f 814 815 816
f 817 818 819
f 820 821 822
f 823 824 825
f 826 827 828
f 829 830 831
f 832 833 834
f 835 836 837
f 838 839 840
f 841 842 843
f 844 845 846
f 847 848 849
f 850 851 852
f 853 854 855
f 856 857 858
f 859 860 861
f 862 863 864
f 865 866 867
f 868 869 870
f 871 872 873
f 874 875 876
f 877 878 879
f 880 881 882
f 883 884 885
f 886 887 888
f 889 890 891
f 892 893 894
f 895 896 897
f 898 899 900
f 901 902 903
f 904 905 906
f 907 908 909
f 910 911 912
f 913 914 915
f 916 917 918
f 919 920 921
f 922 923 924
f 925 926 927
f 928 929 930
f 931 932 933
f 934 935 936
f 937 938 939
f 940 941 942
f 943 944 945
f 946 947 948
f 949 950 951
f 952 953 954
f 955 956 957
f 958 959 960
f 961 962 963
f 964 965 966
f 967 968 969
f 970 971 972
f 973 974 975
f 976 977 978
f 979 980 981
f 982 983 984
f 985 986 987
f 988 989 990
f 991 992 993
f 994 995 996
f 997 998 999
f 1000 1001 1002
f 1003 1004 1005
f 1006 1007 1008
f 1009 1010 1011
f 1012 1013 1014
f 1015 1016 1017
f 1018 1019 1020
f 1021 1022 1023
f 1024 1025 1026
f 1027 1028 1029
f 1030 1031 1032
f 1033 1034 1035
f 1036 1037 1038
f 1039 1040 1041
f 1042 1043 1044
f 1045 1046 1047
f 1048 1049 1050
f 1051 1052 1053
f 1054 1055 1056
f 1057 1058 1059
f 1060 1061 1062
f 1063 1064 1065
f 1066 1067 1068
f 1069 1070 1071
f 1072 1073 1074
f 1075 1076 1077
f 1078 1079 1080
f 1081 1082 1083
f 1084 1085 1086
f 1087 1088 1089
f 1090 1091 1092
f 1093 1094 1095
f 1096 1097 1098
f 1099 1100 1101
f 1102 1103 1104
f 1105 1106 1107
f 1108 1109 1110
f 1111 1112 1113
f 1114 1115 1116
f 1117 1118 1119
f 1120 1121 1122
f 1123 1124 1125
f 1126 1127 1128
f 1129 1130 1131
f 1132 1133 1134
f 1135 1136 1137
f 1138 1139 1140
f 1141 1142 1143
f 1144 1145 1146
f 1147 1148 1149
f 1150 1151 1152
f 1153 1154 1155
f 1156 1157 1158
f 1159 1160 1161
f 1162 1163 1164
f 1165 1166 1167
f 1168 1169 1170
f 1171 1172 1173
f 1174 1175 1176
f 1177 1178 1179
f 1180 1181 1182
f 1183 1184 1185
f 1186 1187 1188
f 1189 1190 1191
f 1192 1193 1194
f 1195 1196 1197
f 1198 1199 1200
f 1201 1202 1203
f 1204 1205 1206
f 1207 1208 1209
f 1210 1211 1212
f 1213 1214 1215
f 1216 1217 1218
f 1219 1220 1221
f 1222 1223 1224
f 1225 1226 1227
f 1228 1229 1230
f 1231 1232 1233
f 1234 1235 1236
f 1237 1238 1239
f 1240 1241 1242
f 1243 1244 1245
f 1246 1247 1248
f 1249 1250 1251
f 1252 1253 1254
f 1255 1256 1257
f 1258 1259 1260
f 1261 1262 1263
f 1264 1265 1266
f 1267 1268 1269
f 1270 1271 1272
f 1273 1274 1275
f 1276 1277 1278
f 1279 1280 1281
f 1282 1283 1284
f 1285 1286 1287
f 1288 1289 1290
f 1291 1292 1293
f 1294 1295 1296
f 1297 1298 1299
f 1300 1301 1302
f 1303 1304 1305
f 1306 1307 1308
f 1309 1310 1311
f 1312 1313 1314
f 1315 1316 1317
f 1318 1319 1320
f 1321 1322 1323
f 1324 1325 1326
f 1327 1328 1329
f 1330 1331 1332
f 1333 1334 1335
f 1336 1337 1338
f 1339 1340 1341
f 1342 1343 1344
f 1345 1346 1347
f 1348 1349 1350
f 1351 1352 1353
f 1354 1355 1356
f 1357 1358 1359
f 1360 1361 1362
f 1363 1364 1365
f 1366 1367 1368
f 1369 1370 1371
f 1372 1373 1374
f 1375 1376 1377
f 1378 1379 1380
f 1381 1382 1383
f 1384 1385 1386
f 1387 1388 1389
f 1390 1391 1392
f 1393 1394 1395
f 1396 1397 1398
f 1399 1400 1401
f 1402 1403 1404
f 1405 1406 1407
f 1408 1409 1410
f 1411 1412 1413
f 1414 1415 1416
f 1417 1418 1419
f 1420 1421 1422
f 1423 1424 1425
f 1426 1427 1428
f 1429 1430 1431
f 1432 1433 1434
f 1435 1436 1437
f 1438 1439 1440
f 1441 1442 1443
f 1444 1445 1446
f 1447 1448 1449
f 1450 1451 1452
f 1453 1454 1455
f 1456 1457 1458
f 1459 1460 1461
f 1462 1463 1464
f 1465 1466 1467
f 1468 1469 1470
f 1471 1472 1473
f 1474 1475 1476
f 1477 1478 1479
f 1480 1481 1482
f 1483 1484 1485
f 1486 1487 1488
f 1489 1490 1491
f 1492 1493 1494
f 1495 1496 1497
f 1498 1499 1500
f 1501 1502 1503
f 1504 1505 1506
f 1507 1508 1509
f 1510 1511 1512
f 1513 1514 1515
f 1516 1517 1518
f 1519 1520 1521
f 1522 1523 1524
f 1525 1526 1527
f 1528 1529 1530
f 1531 1532 1533
f 1534 1535 1536
f 1537 1538 1539
f 1540 1541 1542
f 1543 1544 1545
f 1546 1547 1548
f 1549 1550 1551
f 1552 1553 1554
f 1555 1556 1557
f 1558 1559 1560
f 1561 1562 1563
f 1564 1565 1566
f 1567 1568 1569
f 1570 1571 1572
f 1573 1574 1575
f 1576 1577 1578
f 1579 1580 1581
f 1582 1583 1584
f 1585 1586 1587
f 1588 1589 1590
f 1591 1592 1593
f 1594 1595 1596
f 1597 1598 1599
f 1600 1601 1602
f 1603 1604 1605
f 1606 1607 1608
f 1609 1610 1611
f 1612 1613 1614
f 1615 1616 1617
f 1618 1619 1620
f 1621 1622 1623
f 1624 1625 1626
f 1627 1628 1629
f 1630 1631 1632
f 1633 1634 1635
f 1636 1637 1638
f 1639 1640 1641
f 1642 1643 1644
f 1645 1646 1647
f 1648 1649 1650
f 1651 1652 1653
f 1654 1655 1656
f 1657 1658 1659
f 1660 1661 1662
f 1663 1664 1665
f 1666 1667 1668
f 1669 1670 1671
f 1672 1673 1674
f 1675 1676 1677
f 1678 1679 1680
f 1681 1682 1683
f 1684 1685 1686
f 1687 1688 1689
f 1690 1691 1692
f 1693 1694 1695
f 1696 1697 1698
f 1699 1700 1701
f 1702 1703 1704
f 1705 1706 1707
f 1708 1709 1710
f 1711 1712 1713
f 1714 1715 1716
f 1717 1718 1719
f 1720 1721 1722
f 1723 1724 1725
f 1726 1727 1728
f 1729 1730 1731
f 1732 1733 1734
f 1735 1736 1737
f 1738 1739 1740
f 1741 1742 1743
f 1744 1745 1746
f 1747 1748 1749
f 1750 1751 1752
f 1753 1754 1755
f 1756 1757 1758
f 1759 1760 1761
f 1762 1763 1764
f 1765 1766 1767
f 1768 1769 1770
f 1771 1772 1773
f 1774 1775 1776
f 1777 1778 1779
f 1780 1781 1782
f 1783 1784 1785
f 1786 1787 1788
f 1789 1790 1791
f 1792 1793 1794
f 1795 1796 1797
f 1798 1799 1800
f 1801 1802 1803
f 1804 1805 1806
f 1807 1808 1809
f 1810 1811 1812
f 1813 1814 1815
f 1816 1817 1818
f 1819 1820 1821
f 1822 1823 1824
f 1825 1826 1827
f 1828 1829 1830
f 1831 1832 1833
f 1834 1835 1836
f 1837 1838 1839
f 1840 1841 1842
f 1843 1844 1845
f 1846 1847 1848
f 1849 1850 1851
f 1852 1853 1854
f 1855 1856 1857
f 1858 1859 1860
f 1861 1862 1863
f 1864 1865 1866
f 1867 1868 1869
f 1870 1871 1872
f 1873 1874 1875
f 1876 1877 1878
f 1879 1880 1881
f 1882 1883 1884
f 1885 1886 1887
f 1888 1889 1890
f 1891 1892 1893
f 1894 1895 1896
f 1897 1898 1899
f 1900 1901 1902
f 1903 1904 1905
f 1906 1907 1908
f 1909 1910 1911
f 1912 1913 1914
f 1915 1916 1917
f 1918 1919 1920
f 1921 1922 1923
f 1924 1925 1926
f 1927 1928 1929
f 1930 1931 1932
f 1933 1934 1935
f 1936 1937 1938
f 1939 1940 1941
f 1942 1943 1944
f 1945 1946 1947
f 1948 1949 1950
f 1951 1952 1953
f 1954 1955 1956
f 1957 1958 1959
f 1960 1961 1962
f 1963 1964 1965
f 1966 1967 1968
f 1969 1970 1971
f 1972 1973 1974
f 1975 1976 1977
f 1978 1979 1980
f 1981 1982 1983
f 1984 1985 1986
f 1987 1988 1989
f 1990 1991 1992
f 1993 1994 1995
f 1996 1997 1998
f 1999 2000 2001
f 2002 2003 2004
f 2005 2006 2007
f 2008 2009 2010
f 2011 2012 2013
f 2014 2015 2016
f 2017 2018 2019
f 2020 2021 2022
f 2023 2024 2025
f 2026 2027 2028
f 2029 2030 2031
f 2032 2033 2034
f 2035 2036 2037
f 2038 2039 2040
f 2041 2042 2043
f 2044 2045 2046
f 2047 2048 2049
f 2050 2051 2052
f 2053 2054 2055
f 2056 2057 2058
f 2059 2060 2061
f 2062 2063 2064
f 2065 2066 2067
f 2068 2069 2070
f 2071 2072 2073
f 2074 2075 2076
f 2077 2078 2079
f 2080 2081 2082
f 2083 2084 2085
f 2086 2087 2088
f 2089 2090 2091
f 2092 2093 2094
f 2095 2096 2097
f 2098 2099 2100
f 2101 2102 2103
f 2104 2105 2106
f 2107 2108 2109
f 2110 2111 2112
f 2113 2114 2115
f 2116 2117 2118
f 2119 2120 2121
f 2122 2123 2124
f 2125 2126 2127
f 2128 2129 2130
f 2131 2132 2133
f 2134 2135 2136
f 2137 2138 2139
f 2140 2141 2142
f 2143 2144 2145
f 2146 2147 2148
f 2149 2150 2151
f 2152 2153 2154
f 2155 2156 2157
f 2158 2159 2160
f 2161 2162 2163
f 2164 2165 2166
f 2167 2168 2169
f 2170 2171 2172
f 2173 2174 2175
f 2176 2177 2178
f 2179 2180 2181
f 2182 2183 2184
f 2185 2186 2187
f 2188 2189 2190
f 2191 2192 2193
f 2194 2195 2196
f 2197 2198 2199
f 2200 2201 2202
f 2203 2204 2205
f 2206 2207 2208
f 2209 2210 2211
f 2212 2213 2214
f 2215 2216 2217
f 2218 2219 2220
f 2221 2222 2223
f 2224 2225 2226
f 2227 2228 2229
f 2230 2231 2232
f 2233 2234 2235
f 2236 2237 2238
f 2239 2240 2241
f 2242 2243 2244
f 2245 2246 2247
f 2248 2249 2250
f 2251 2252 2253
f 2254 2255 2256
f 2257 2258 2259
f 2260 2261 2262
f 2263 2264 2265
f 2266 2267 2268
f 2269 2270 2271
f 2272 2273 2274
f 2275 2276 2277
f 2278 2279 2280
f 2281 2282 2283
f 2284 2285 2286
f 2287 2288 2289
f 2290 2291 2292
f 2293 2294 2295
f 2296 2297 2298
f 2299 2300 2301
f 2302 2303 2304
f 2305 2306 2307
f 2308 2309 2310
f 2311 2312 2313
f 2314 2315 2316
f 2317 2318 2319
f 2320 2321 2322
f 2323 2324 2325
f 2326 2327 2328
f 2329 2330 2331
f 2332 2333 2334
f 2335 2336 2337
f 2338 2339 2340
f 2341 2342 2343
f 2344 2345 2346
f 2347 2348 2349
f 2350 2351 2352
f 2353 2354 2355
f 2356 2357 2358
f 2359 2360 2361
f 2362 2363 2364
f 2365 2366 2367
f 2368 2369 2370
f 2371 2372 2373
f 2374 2375 2376
f 2377 2378 2379
f 2380 2381 2382
f 2383 2384 2385
f 2386 2387 2388
