# PUBLIC SHELL OBJ - display only, not CAD source
# Precision intentionally degraded; multi-part structure removed
o shell
v 395.38 0.642 19.94
v 232.838 1.704 19.932
v 232.83 1.912 18.427
v 73.961 2.564 19.934
v 22.951 2.579 19.945
v 22.932 2.566 18.649
v 124.819 2.594 19.955
v 73.961 2.564 19.934
v 73.992 2.586 18.663
v 0.005 2.576 19.943
v 22.965 2.803 22.096
v 0.022 2.803 22.096
v 0.022 2.803 22.096
v 22.965 2.803 22.096
v 22.942 3.002 24.229
v 0.022 2.803 22.096
v 22.942 3.002 24.229
v -0.003 3 24.227
v -0.003 3 24.227
v 22.942 3.002 24.229
v 22.933 3.638 26.368
v -0.003 3 24.227
v 22.933 3.638 26.368
v 0.007 3.65 26.377
v 0.007 3.65 26.377
v 22.933 3.638 26.368
v 22.935 4.712 28.299
v 0.007 3.65 26.377
v 22.935 4.712 28.299
v 0.023 4.733 28.314
v 0.023 4.733 28.314
v 22.935 4.712 28.299
v 22.953 5.797 30.238
v 0.023 4.733 28.314
v 22.953 5.797 30.238
v 0.028 5.809 30.247
v 0.028 5.809 30.247
v 22.953 5.797 30.238
v 22.958 7.086 31.741
v 0.028 5.809 30.247
v 22.958 7.086 31.741
v 0.003 7.078 31.735
v 0.003 7.078 31.735
v 22.958 7.086 31.741
v 22.923 8.778 33.225
v 0.003 7.078 31.735
v 22.923 8.778 33.225
v -0.013 8.782 33.228
v -0.013 8.782 33.228
v 22.923 8.778 33.225
v 22.946 10.509 34.523
v -0.013 8.782 33.228
v 22.946 10.509 34.523
v 0.023 10.523 34.532
v 0.023 10.523 34.532
v 22.946 10.509 34.523
v 22.926 12.425 35.585
v 0.023 10.523 34.532
v 22.926 12.425 35.585
v 0.008 12.442 35.597
v 0.008 12.442 35.597
v 22.926 12.425 35.585
v 22.94 14.364 36.449
v 0.008 12.442 35.597
v 22.94 14.364 36.449
v -0.007 14.361 36.447
v -0.007 14.361 36.447
v 22.94 14.364 36.449
v 22.959 16.521 37.102
v -0.007 14.361 36.447
v 22.959 16.521 37.102
v -0.021 16.495 37.083
v -0.021 16.495 37.083
v 22.959 16.521 37.102
v 22.961 18.667 37.318
v -0.021 16.495 37.083
v 22.961 18.667 37.318
v 0.029 18.675 37.323
v 0.029 18.675 37.323
v 22.961 18.667 37.318
v 22.918 20.781 37.51
v 0.029 18.675 37.323
v 22.918 20.781 37.51
v -0.005 20.795 37.52
v -0.005 20.795 37.52
v 22.918 20.781 37.51
v 22.919 22.926 37.297
v -0.005 20.795 37.52
v 22.919 22.926 37.297
v 0.015 22.953 37.316
v 0.015 22.953 37.316
v 22.919 22.926 37.297
v 22.956 25.096 36.672
v 0.015 22.953 37.316
v 22.956 25.096 36.672
v -0.027 25.068 36.651
v -0.027 25.068 36.651
v 22.956 25.096 36.672
v 22.937 27.013 36.019
v -0.027 25.068 36.651
v 22.937 27.013 36.019
v -0.001 27.016 36.021
v -0.001 27.016 36.021
v 22.937 27.013 36.019
v 22.932 28.939 34.944
v -0.001 27.016 36.021
v 22.932 28.939 34.944
v 0.03 28.967 34.965
v 0.03 28.967 34.965
v 22.932 28.939 34.944
v 22.946 30.664 33.665
v 0.03 28.967 34.965
v 22.946 30.664 33.665
v -0.026 30.643 33.65
v -0.026 30.643 33.65
v 22.946 30.664 33.665
v 22.937 32.373 32.374
v -0.026 30.643 33.65
v 22.937 32.373 32.374
v 0.025 32.394 32.389
v 0.025 32.394 32.389
v 22.937 32.373 32.374
v 22.957 33.673 30.669
v 0.025 32.394 32.389
v 22.957 33.673 30.669
v -0.015 33.653 30.654
v -0.015 33.653 30.654
v 22.957 33.673 30.669
v 22.938 34.946 28.944
v -0.015 33.653 30.654
v 22.938 34.946 28.944
v -0.028 34.93 28.932
v -0.028 34.93 28.932
v 22.938 34.946 28.944
v 22.94 36.02 27.015
v -0.028 34.93 28.932
v 22.94 36.02 27.015
v 0.015 36.032 27.024
v 0.015 36.032 27.024
v 22.94 36.02 27.015
v 22.959 36.677 24.88
v 0.015 36.032 27.024
v 22.959 36.677 24.88
v -0.01 36.658 24.867
v -0.01 36.658 24.867
v 22.959 36.677 24.88
v 22.915 37.289 22.929
v -0.01 36.658 24.867
v 22.915 37.289 22.929
v -0.001 37.308 22.942
v -0.001 37.308 22.942
v 22.915 37.289 22.929
v 22.92 37.507 20.787
v -0.001 37.308 22.942
v 22.92 37.507 20.787
v -0.009 37.516 20.794
v -0.009 37.516 20.794
v 22.92 37.507 20.787
v 22.936 37.304 18.651
v -0.009 37.516 20.794
v 22.936 37.304 18.651
v -0.015 37.298 18.647
v -0.015 37.298 18.647
v 22.936 37.304 18.651
v 22.936 37.089 16.507
v -0.015 37.298 18.647
v 22.936 37.089 16.507
v -0.024 37.077 16.498
v -0.024 37.077 16.498
v 22.936 37.089 16.507
v 22.925 36.438 14.357
v -0.024 37.077 16.498
v 22.925 36.438 14.357
v 0.004 36.453 14.368
v 0.004 36.453 14.368
v 22.925 36.438 14.357
v 22.944 35.594 12.222
v 0.004 36.453 14.368
v 22.944 35.594 12.222
v 0.001 35.594 12.222
v 0.001 35.594 12.222
v 22.944 35.594 12.222
v 22.916 34.502 10.493
v 0.001 35.594 12.222
v 22.916 34.502 10.493
v 0.028 34.54 10.52
v 0.028 34.54 10.52
v 22.916 34.502 10.493
v 22.971 33.254 8.805
v 0.028 34.54 10.52
v 22.971 33.254 8.805
v -0.019 33.221 8.782
v -0.019 33.221 8.782
v 22.971 33.254 8.805
v 22.958 31.744 7.083
v -0.019 33.221 8.782
v 22.958 31.744 7.083
v -0.009 31.727 7.071
v -0.009 31.727 7.071
v 22.958 31.744 7.083
v 22.928 30.008 5.782
v -0.009 31.727 7.071
v 22.928 30.008 5.782
v -0.008 30.227 5.785
v -0.008 30.227 5.785
v 22.928 30.008 5.782
v 22.923 28.289 4.708
v -0.008 30.227 5.785
v 22.923 28.289 4.708
v 0.015 28.313 4.725
v 0.015 28.313 4.725
v 22.923 28.289 4.708
v 22.943 26.373 3.645
v 0.015 28.313 4.725
v 22.943 26.373 3.645
v -0.024 26.357 3.633
v -0.024 26.357 3.633
v 22.943 26.373 3.645
v 22.924 24.216 2.992
v -0.024 26.357 3.633
v 22.924 24.216 2.992
v -0.016 24.218 2.994
v -0.016 24.218 2.994
v 22.924 24.216 2.992
v 22.965 22.101 2.799
v -0.016 24.218 2.994
v 22.965 22.101 2.799
v 0.002 22.087 2.789
v 0.002 22.087 2.789
v 22.965 22.101 2.799
v 22.97 19.96 2.587
v 0.002 22.087 2.789
v 22.97 19.96 2.587
v 0.007 19.946 2.576
v 0.007 19.946 2.576
v 22.97 19.96 2.587
v 22.961 17.809 2.797
v 0.007 19.946 2.576
v 22.961 17.809 2.797
v -0.01 17.789 2.782
v -0.01 17.789 2.782
v 22.961 17.809 2.797
v 22.965 15.668 3.013
v -0.01 17.789 2.782
v 22.965 15.668 3.013
v -0.021 15.638 2.991
v -0.021 15.638 2.991
v 22.965 15.668 3.013
v 22.941 13.722 3.644
v -0.021 15.638 2.991
v 22.941 13.722 3.644
v -0.012 13.714 3.639
v -0.012 13.714 3.639
v 22.941 13.722 3.644
v 22.965 11.594 4.729
v -0.012 13.714 3.639
v 22.965 11.594 4.729
v -0.011 11.571 4.711
v -0.011 11.571 4.711
v 22.965 11.594 4.729
v 22.947 9.866 5.791
v -0.011 11.571 4.711
v 22.947 9.866 5.791
v -0.024 9.846 5.777
v -0.024 9.846 5.777
v 22.947 9.866 5.791
v 22.918 8.131 7.278
v -0.024 9.846 5.777
v 22.918 8.131 7.278
v -0.02 8.134 7.066
v -0.02 8.134 7.066
v 22.918 8.131 7.278
v 22.959 6.659 8.799
v -0.02 8.134 7.066
v 22.959 6.659 8.799
v -0.01 6.64 8.786
v -0.01 6.64 8.786
v 22.959 6.659 8.799
v 22.958 5.372 10.514
v -0.01 6.64 8.786
v 22.958 5.372 10.514
v 0.016 5.372 10.515
v 0.016 5.372 10.515
v 22.958 5.372 10.514
v 22.915 4.269 12.423
v 0.016 5.372 10.515
v 22.915 4.269 12.423
v -0.006 4.284 12.433
v -0.006 4.284 12.433
v 22.915 4.269 12.423
v 22.95 3.436 14.37
v -0.006 4.284 12.433
v 22.95 3.436 14.37
v 0.026 3.449 14.379
v 0.026 3.449 14.379
v 22.95 3.436 14.37
v 22.946 3.004 16.512
v 0.026 3.449 14.379
v 22.946 3.004 16.512
v 0.03 3.023 16.525
v 0.03 3.023 16.525
v 22.946 3.004 16.512
v 22.932 2.566 18.649
v 0.03 3.023 16.525
v 22.932 2.566 18.649
v -0.01 2.566 18.649
v -0.01 2.566 18.649
v 22.932 2.566 18.649
v 22.951 2.579 19.945
v 232.838 1.704 19.932
v 124.819 2.594 19.955
v 124.797 2.578 18.658
v 124.797 2.578 18.658
v 124.819 2.594 19.955
v 73.992 2.586 18.663
v 124.797 2.578 18.658
v 73.992 2.586 18.663
v 124.815 2.805 16.523
v 73.961 2.564 19.934
v 22.932 2.566 18.649
v 73.992 2.586 18.663
v 73.992 2.586 18.663
v 22.932 2.566 18.649
v 22.946 3.004 16.512
v 73.992 2.586 18.663
v 22.946 3.004 16.512
v 124.815 2.805 16.523
v 124.815 2.805 16.523
v 22.946 3.004 16.512
v 22.95 3.436 14.37
v 124.815 2.805 16.523
v 22.95 3.436 14.37
v 124.773 3.419 14.358
v 124.773 3.419 14.358
v 22.95 3.436 14.37
v 22.915 4.269 12.423
v 124.773 3.419 14.358
v 22.915 4.269 12.423
v 124.808 4.301 12.445
v 124.808 4.301 12.445
v 22.915 4.269 12.423
v 22.958 5.372 10.514
v 124.808 4.301 12.445
v 22.958 5.372 10.514
v 124.777 5.351 10.5
v 124.777 5.351 10.5
v 22.958 5.372 10.514
v 22.959 6.659 8.799
v 124.777 5.351 10.5
v 22.959 6.659 8.799
v 124.781 6.641 8.787
v 124.781 6.641 8.787
v 22.959 6.659 8.799
v 22.918 8.131 7.278
v 124.781 6.641 8.787
v 22.918 8.131 7.278
v 124.76 8.127 7.061
v 124.76 8.127 7.061
v 22.918 8.131 7.278
v 22.947 9.866 5.791
v 124.76 8.127 7.061
v 22.947 9.866 5.791
v 124.784 9.859 5.787
v 124.784 9.859 5.787
v 22.947 9.866 5.791
v 22.965 11.594 4.729
v 124.784 9.859 5.787
v 22.965 11.594 4.729
v 124.781 11.572 4.713
v 124.781 11.572 4.713
v 22.965 11.594 4.729
v 22.941 13.722 3.644
v 124.781 11.572 4.713
v 22.941 13.722 3.644
v 124.781 13.717 3.641
v 124.781 13.717 3.641
v 22.941 13.722 3.644
v 22.965 15.668 3.013
v 124.781 13.717 3.641
v 22.965 15.668 3.013
v 124.807 15.664 3.01
v 124.807 15.664 3.01
v 22.965 15.668 3.013
v 22.961 17.809 2.797
v 124.807 15.664 3.01
v 22.961 17.809 2.797
v 124.792 17.798 2.574
v 124.792 17.798 2.574
v 22.961 17.809 2.797
v 22.97 19.96 2.587
v 124.792 17.798 2.574
v 22.97 19.96 2.587
v 124.788 19.939 2.572
v 124.788 19.939 2.572
v 22.97 19.96 2.587
v 22.965 22.101 2.799
v 124.788 19.939 2.572
v 22.965 22.101 2.799
v 124.777 22.076 2.567
v 124.777 22.076 2.567
v 22.965 22.101 2.799
v 22.924 24.216 2.992
v 124.777 22.076 2.567
v 22.924 24.216 2.992
v 124.811 24.244 3.012
v 124.811 24.244 3.012
v 22.924 24.216 2.992
v 22.943 26.373 3.645
v 124.811 24.244 3.012
v 22.943 26.373 3.645
v 124.77 26.359 3.635
v 124.77 26.359 3.635
v 22.943 26.373 3.645
v 22.923 28.289 4.708
v 124.77 26.359 3.635
v 22.923 28.289 4.708
v 124.818 28.323 4.731
v 124.818 28.323 4.731
v 22.923 28.289 4.708
v 22.928 30.008 5.782
v 124.818 28.323 4.731
v 22.928 30.008 5.782
v 124.797 30.238 5.793
v 124.797 30.238 5.793
v 22.928 30.008 5.782
v 22.958 31.744 7.083
v 124.797 30.238 5.793
v 22.958 31.744 7.083
v 124.786 31.731 7.074
v 124.786 31.731 7.074
v 22.958 31.744 7.083
v 22.971 33.254 8.805
v 124.786 31.731 7.074
v 22.971 33.254 8.805
v 124.793 33.237 8.578
v 124.793 33.237 8.578
v 22.971 33.254 8.805
v 22.916 34.502 10.493
v 124.793 33.237 8.578
v 22.916 34.502 10.493
v 124.811 34.536 10.517
v 124.811 34.536 10.517
v 22.916 34.502 10.493
v 22.944 35.594 12.222
v 124.811 34.536 10.517
v 22.944 35.594 12.222
v 124.82 35.614 12.237
v 124.82 35.614 12.237
v 22.944 35.594 12.222
v 22.925 36.438 14.357
v 124.82 35.614 12.237
v 22.925 36.438 14.357
v 124.774 36.439 14.358
v 124.774 36.439 14.358
v 22.925 36.438 14.357
v 22.936 37.089 16.507
v 124.774 36.439 14.358
v 22.936 37.089 16.507
v 124.77 37.08 16.5
v 124.77 37.08 16.5
v 22.936 37.089 16.507
v 22.936 37.304 18.651
v 124.77 37.08 16.5
v 22.936 37.304 18.651
v 124.789 37.522 18.439
v 124.789 37.522 18.439
v 22.936 37.304 18.651
v 22.92 37.507 20.787
v 124.789 37.522 18.439
v 22.92 37.507 20.787
v 124.775 37.512 20.791
v 124.775 37.512 20.791
v 22.92 37.507 20.787
v 22.915 37.289 22.929
v 124.775 37.512 20.791
v 22.915 37.289 22.929
v 124.798 37.314 22.947
v 124.798 37.314 22.947
v 22.915 37.289 22.929
v 22.959 36.677 24.88
v 124.798 37.314 22.947
v 22.959 36.677 24.88
v 124.777 36.656 24.866
v 124.777 36.656 24.866
v 22.959 36.677 24.88
v 22.94 36.02 27.015
v 124.777 36.656 24.866
v 22.94 36.02 27.015
v 124.818 36.042 27.031
v 124.818 36.042 27.031
v 22.94 36.02 27.015
v 22.938 34.946 28.944
v 124.818 36.042 27.031
v 22.938 34.946 28.944
v 124.792 34.951 28.947
v 124.792 34.951 28.947
v 22.938 34.946 28.944
v 22.957 33.673 30.669
v 124.792 34.951 28.947
v 22.957 33.673 30.669
v 124.811 33.892 30.672
v 124.811 33.892 30.672
v 22.957 33.673 30.669
v 22.937 32.373 32.374
v 124.811 33.892 30.672
v 22.937 32.373 32.374
v 124.803 32.386 32.383
v 124.803 32.386 32.383
v 22.937 32.373 32.374
v 22.946 30.664 33.665
v 124.803 32.386 32.383
v 22.946 30.664 33.665
v 124.802 30.67 33.884
v 124.802 30.67 33.884
v 22.946 30.664 33.665
v 22.932 28.939 34.944
v 124.802 30.67 33.884
v 22.932 28.939 34.944
v 124.81 28.96 34.96
v 124.81 28.96 34.96
v 22.932 28.939 34.944
v 22.937 27.013 36.019
v 124.81 28.96 34.96
v 22.937 27.013 36.019
v 124.812 27.032 36.033
v 124.812 27.032 36.033
v 22.937 27.013 36.019
v 22.956 25.096 36.672
v 124.812 27.032 36.033
v 22.956 25.096 36.672
v 124.798 25.093 36.669
v 124.798 25.093 36.669
v 22.956 25.096 36.672
v 22.919 22.926 37.297
v 124.798 25.093 36.669
v 22.919 22.926 37.297
v 124.782 22.937 37.304
v 124.782 22.937 37.304
v 22.919 22.926 37.297
v 22.918 20.781 37.51
v 124.782 22.937 37.304
v 22.918 20.781 37.51
v 124.809 20.812 37.533
v 124.809 20.812 37.533
v 22.918 20.781 37.51
v 22.961 18.667 37.318
v 124.809 20.812 37.533
v 22.961 18.667 37.318
v 124.807 18.666 37.531
v 124.807 18.666 37.531
v 22.961 18.667 37.318
v 22.959 16.521 37.102
v 124.807 18.666 37.531
v 22.959 16.521 37.102
v 124.793 16.513 37.096
v 124.793 16.513 37.096
v 22.959 16.521 37.102
v 22.94 14.364 36.449
v 124.793 16.513 37.096
v 22.94 14.364 36.449
v 124.776 14.356 36.444
v 124.776 14.356 36.444
v 22.94 14.364 36.449
v 22.926 12.425 35.585
v 124.776 14.356 36.444
v 22.926 12.425 35.585
v 124.78 12.429 35.803
v 124.78 12.429 35.803
v 22.926 12.425 35.585
v 22.946 10.509 34.523
v 124.78 12.429 35.803
v 22.946 10.509 34.523
v 124.812 10.522 34.532
v 124.812 10.522 34.532
v 22.946 10.509 34.523
v 22.923 8.778 33.225
v 124.812 10.522 34.532
v 22.923 8.778 33.225
v 124.788 8.79 33.233
v 124.788 8.79 33.233
v 22.923 8.778 33.225
v 22.958 7.086 31.741
v 124.788 8.79 33.233
v 22.958 7.086 31.741
v 124.791 7.077 31.949
v 124.791 7.077 31.949
v 22.958 7.086 31.741
v 22.953 5.797 30.238
v 124.791 7.077 31.949
v 22.953 5.797 30.238
v 124.778 5.781 30.227
v 124.778 5.781 30.227
v 22.953 5.797 30.238
v 22.935 4.712 28.299
v 124.778 5.781 30.227
v 22.935 4.712 28.299
v 124.807 4.73 28.312
v 124.807 4.73 28.312
v 22.935 4.712 28.299
v 22.933 3.638 26.368
v 124.807 4.73 28.312
v 22.933 3.638 26.368
v 124.777 3.636 26.367
v 124.777 3.636 26.367
v 22.933 3.638 26.368
v 22.942 3.002 24.229
v 124.777 3.636 26.367
v 22.942 3.002 24.229
v 124.799 3.008 24.233
v 124.799 3.008 24.233
v 22.942 3.002 24.229
v 22.965 2.803 22.096
v 124.799 3.008 24.233
v 22.965 2.803 22.096
v 124.796 2.577 22.088
v 232.838 1.704 19.932
v 124.797 2.578 18.658
v 232.83 1.912 18.427
v 232.83 1.912 18.427
v 124.797 2.578 18.658
v 124.815 2.805 16.523
v 232.83 1.912 18.427
v 124.815 2.805 16.523
v 232.843 2.136 16.289
v 232.843 2.136 16.289
v 124.815 2.805 16.523
v 124.773 3.419 14.358
v 232.843 2.136 16.289
v 124.773 3.419 14.358
v 232.84 2.777 14.144
v 232.84 2.777 14.144
v 124.773 3.419 14.358
v 124.808 4.301 12.445
v 232.84 2.777 14.144
v 124.808 4.301 12.445
v 232.884 3.665 12.022
v 232.884 3.665 12.022
v 124.808 4.301 12.445
v 124.777 5.351 10.5
v 232.884 3.665 12.022
v 124.777 5.351 10.5
v 232.846 4.711 10.073
v 232.846 4.711 10.073
v 124.777 5.351 10.5
v 124.781 6.641 8.787
v 232.846 4.711 10.073
v 124.781 6.641 8.787
v 232.867 6.012 8.368
v 232.867 6.012 8.368
v 124.781 6.641 8.787
v 124.76 8.127 7.061
v 232.867 6.012 8.368
v 124.76 8.127 7.061
v 232.885 7.74 6.662
v 232.885 7.74 6.662
v 124.76 8.127 7.061
v 124.784 9.859 5.787
v 232.885 7.74 6.662
v 124.784 9.859 5.787
v 232.838 9.422 5.137
v 232.838 9.422 5.137
v 124.784 9.859 5.787
v 124.781 11.572 4.713
v 232.838 9.422 5.137
v 124.781 11.572 4.713
v 232.868 11.373 4.08
v 232.868 11.373 4.08
v 124.781 11.572 4.713
v 124.781 13.717 3.641
v 232.868 11.373 4.08
v 124.781 13.717 3.641
v 232.836 13.281 2.993
v 232.836 13.281 2.993
v 124.781 13.717 3.641
v 124.807 15.664 3.01
v 232.836 13.281 2.993
v 124.807 15.664 3.01
v 232.861 15.657 2.362
v 232.861 15.657 2.362
v 124.807 15.664 3.01
v 124.792 17.798 2.574
v 232.861 15.657 2.362
v 124.792 17.798 2.574
v 232.862 17.801 1.933
v 232.862 17.801 1.933
v 124.792 17.798 2.574
v 124.788 19.939 2.572
v 232.862 17.801 1.933
v 124.788 19.939 2.572
v 232.88 19.958 1.728
v 232.88 19.958 1.728
v 124.788 19.939 2.572
v 124.777 22.076 2.567
v 232.88 19.958 1.728
v 124.777 22.076 2.567
v 232.838 22.287 1.921
v 232.838 22.287 1.921
v 124.777 22.076 2.567
v 124.811 24.244 3.012
v 232.838 22.287 1.921
v 124.811 24.244 3.012
v 232.871 24.455 2.367
v 232.871 24.455 2.367
v 124.811 24.244 3.012
v 124.77 26.359 3.635
v 232.871 24.455 2.367
v 124.77 26.359 3.635
v 232.876 26.602 3.012
v 232.876 26.602 3.012
v 124.77 26.359 3.635
v 124.818 28.323 4.731
v 232.876 26.602 3.012
v 124.818 28.323 4.731
v 232.87 28.742 4.081
v 232.87 28.742 4.081
v 124.818 28.323 4.731
v 124.797 30.238 5.793
v 232.87 28.742 4.081
v 124.797 30.238 5.793
v 232.879 30.463 5.158
v 232.879 30.463 5.158
v 124.797 30.238 5.793
v 124.786 31.731 7.074
v 232.879 30.463 5.158
v 124.786 31.731 7.074
v 232.844 32.369 6.641
v 232.844 32.369 6.641
v 124.786 31.731 7.074
v 124.793 33.237 8.578
v 232.844 32.369 6.641
v 124.793 33.237 8.578
v 232.825 33.857 8.133
v 232.825 33.857 8.133
v 124.793 33.237 8.578
v 124.811 34.536 10.517
v 232.825 33.857 8.133
v 124.811 34.536 10.517
v 232.851 35.161 10.075
v 232.851 35.161 10.075
v 124.811 34.536 10.517
v 124.82 35.614 12.237
v 232.851 35.161 10.075
v 124.82 35.614 12.237
v 232.845 36.444 12.002
v 232.845 36.444 12.002
v 124.82 35.614 12.237
v 124.774 36.439 14.358
v 232.845 36.444 12.002
v 124.774 36.439 14.358
v 232.867 37.316 14.157
v 232.867 37.316 14.157
v 124.774 36.439 14.358
v 124.77 37.08 16.5
v 232.867 37.316 14.157
v 124.77 37.08 16.5
v 232.849 37.733 16.292
v 232.849 37.733 16.292
v 124.77 37.08 16.5
v 124.789 37.522 18.439
v 232.849 37.733 16.292
v 124.789 37.522 18.439
v 232.854 38.165 18.439
v 232.854 38.165 18.439
v 124.789 37.522 18.439
v 124.775 37.512 20.791
v 232.854 38.165 18.439
v 124.775 37.512 20.791
v 232.833 38.151 20.787
v 232.833 38.151 20.787
v 124.775 37.512 20.791
v 124.798 37.314 22.947
v 232.833 38.151 20.787
v 124.798 37.314 22.947
v 232.838 37.94 22.934
v 232.838 37.94 22.934
v 124.798 37.314 22.947
v 124.777 36.656 24.866
v 232.838 37.94 22.934
v 124.777 36.656 24.866
v 232.847 37.517 25.083
v 232.847 37.517 25.083
v 124.777 36.656 24.866
v 124.818 36.042 27.031
v 232.847 37.517 25.083
v 124.818 36.042 27.031
v 232.849 36.661 27.228
v 232.849 36.661 27.228
v 124.818 36.042 27.031
v 124.792 34.951 28.947
v 232.849 36.661 27.228
v 124.792 34.951 28.947
v 232.872 35.605 29.383
v 232.872 35.605 29.383
v 124.792 34.951 28.947
v 124.811 33.892 30.672
v 232.872 35.605 29.383
v 124.811 33.892 30.672
v 232.827 34.287 31.076
v 232.827 34.287 31.076
v 124.811 33.892 30.672
v 124.803 32.386 32.383
v 232.827 34.287 31.076
v 124.803 32.386 32.383
v 232.848 32.801 32.802
v 232.848 32.801 32.802
v 124.803 32.386 32.383
v 124.802 30.67 33.884
v 232.848 32.801 32.802
v 124.802 30.67 33.884
v 232.844 31.083 34.301
v 232.844 31.083 34.301
v 124.802 30.67 33.884
v 124.81 28.96 34.96
v 232.844 31.083 34.301
v 124.81 28.96 34.96
v 232.854 29.374 35.593
v 232.854 29.374 35.593
v 124.81 28.96 34.96
v 124.812 27.032 36.033
v 232.854 29.374 35.593
v 124.812 27.032 36.033
v 232.861 27.235 36.668
v 232.861 27.235 36.668
v 124.812 27.032 36.033
v 124.798 25.093 36.669
v 232.861 27.235 36.668
v 124.798 25.093 36.669
v 232.834 25.072 37.512
v 232.834 25.072 37.512
v 124.798 25.093 36.669
v 124.782 22.937 37.304
v 232.834 25.072 37.512
v 124.782 22.937 37.304
v 232.828 22.924 37.938
v 232.828 22.924 37.938
v 124.782 22.937 37.304
v 124.809 20.812 37.533
v 232.828 22.924 37.938
v 124.809 20.812 37.533
v 232.827 20.779 38.152
v 232.827 20.779 38.152
v 124.809 20.812 37.533
v 124.807 18.666 37.531
v 232.827 20.779 38.152
v 124.807 18.666 37.531
v 232.828 18.421 38.152
v 232.828 18.421 38.152
v 124.807 18.666 37.531
v 124.793 16.513 37.096
v 232.828 18.421 38.152
v 124.793 16.513 37.096
v 232.872 16.307 37.745
v 232.872 16.307 37.745
v 124.793 16.513 37.096
v 124.776 14.356 36.444
v 232.872 16.307 37.745
v 124.776 14.356 36.444
v 232.874 14.165 37.318
v 232.874 14.165 37.318
v 124.776 14.356 36.444
v 124.78 12.429 35.803
v 232.874 14.165 37.318
v 124.78 12.429 35.803
v 232.872 12.019 36.459
v 232.872 12.019 36.459
v 124.78 12.429 35.803
v 124.812 10.522 34.532
v 232.872 12.019 36.459
v 124.812 10.522 34.532
v 232.867 10.086 35.17
v 232.867 10.086 35.17
v 124.812 10.522 34.532
v 124.788 8.79 33.233
v 232.867 10.086 35.17
v 124.788 8.79 33.233
v 232.853 8.147 33.877
v 232.853 8.147 33.877
v 124.788 8.79 33.233
v 124.791 7.077 31.949
v 232.853 8.147 33.877
v 124.791 7.077 31.949
v 232.872 6.659 32.385
v 232.872 6.659 32.385
v 124.791 7.077 31.949
v 124.778 5.781 30.227
v 232.872 6.659 32.385
v 124.778 5.781 30.227
v 232.874 5.159 30.671
v 232.874 5.159 30.671
v 124.778 5.781 30.227
v 124.807 4.73 28.312
v 232.874 5.159 30.671
v 124.807 4.73 28.312
v 232.883 4.093 28.745
v 232.883 4.093 28.745
v 124.807 4.73 28.312
v 124.777 3.636 26.367
v 232.883 4.093 28.745
v 124.777 3.636 26.367
v 232.88 3.02 26.6
v 232.88 3.02 26.6
v 124.777 3.636 26.367
v 124.799 3.008 24.233
v 232.88 3.02 26.6
v 124.799 3.008 24.233
v 232.883 2.378 24.457
v 232.883 2.378 24.457
v 124.799 3.008 24.233
v 124.796 2.577 22.088
v 232.883 2.378 24.457
v 124.796 2.577 22.088
v 232.831 1.913 22.287
v 395.38 0.642 19.94
v 232.83 1.912 18.427
v 395.371 0.636 18.434
v 395.371 0.636 18.434
v 232.83 1.912 18.427
v 232.843 2.136 16.289
v 395.371 0.636 18.434
v 232.843 2.136 16.289
v 395.354 1.053 16.067
v 395.354 1.053 16.067
v 232.843 2.136 16.289
v 232.84 2.777 14.144
v 395.354 1.053 16.067
v 232.84 2.777 14.144
v 395.41 1.735 13.737
v 395.41 1.735 13.737
v 232.84 2.777 14.144
v 232.884 3.665 12.022
v 395.41 1.735 13.737
v 232.884 3.665 12.022
v 395.386 2.576 11.58
v 395.386 2.576 11.58
v 232.884 3.665 12.022
v 232.846 4.711 10.073
v 395.386 2.576 11.58
v 232.846 4.711 10.073
v 395.393 3.867 9.44
v 395.393 3.867 9.44
v 232.846 4.711 10.073
v 232.867 6.012 8.368
v 395.393 3.867 9.44
v 232.867 6.012 8.368
v 395.394 5.155 7.511
v 395.394 5.155 7.511
v 232.867 6.012 8.368
v 232.885 7.74 6.662
v 395.394 5.155 7.511
v 232.885 7.74 6.662
v 395.38 6.86 5.788
v 395.38 6.86 5.788
v 232.885 7.74 6.662
v 232.838 9.422 5.137
v 395.38 6.86 5.788
v 232.838 9.422 5.137
v 395.378 8.788 4.286
v 395.378 8.788 4.286
v 232.838 9.422 5.137
v 232.868 11.373 4.08
v 395.378 8.788 4.286
v 232.868 11.373 4.08
v 395.365 10.709 2.993
v 395.365 10.709 2.993
v 232.868 11.373 4.08
v 232.836 13.281 2.993
v 395.365 10.709 2.993
v 232.836 13.281 2.993
v 395.371 12.857 1.924
v 395.371 12.857 1.924
v 232.836 13.281 2.993
v 232.861 15.657 2.362
v 395.371 12.857 1.924
v 232.861 15.657 2.362
v 395.36 15.208 1.276
v 395.36 15.208 1.276
v 232.861 15.657 2.362
v 232.862 17.801 1.933
v 395.36 15.208 1.276
v 232.862 17.801 1.933
v 395.364 17.569 0.849
v 395.364 17.569 0.849
v 232.862 17.801 1.933
v 232.88 19.958 1.728
v 395.364 17.569 0.849
v 232.88 19.958 1.728
v 395.396 19.951 0.65
v 395.396 19.951 0.65
v 232.88 19.958 1.728
v 232.838 22.287 1.921
v 395.396 19.951 0.65
v 232.838 22.287 1.921
v 395.379 22.297 0.856
v 395.379 22.297 0.856
v 232.838 22.287 1.921
v 232.871 24.455 2.367
v 395.379 22.297 0.856
v 232.871 24.455 2.367
v 395.387 24.661 1.289
v 395.387 24.661 1.289
v 232.871 24.455 2.367
v 232.876 26.602 3.012
v 395.387 24.661 1.289
v 232.876 26.602 3.012
v 395.38 27.015 1.929
v 395.38 27.015 1.929
v 232.876 26.602 3.012
v 232.87 28.742 4.081
v 395.38 27.015 1.929
v 232.87 28.742 4.081
v 395.38 29.159 3.001
v 395.38 29.159 3.001
v 232.87 28.742 4.081
v 232.879 30.463 5.158
v 395.38 29.159 3.001
v 232.879 30.463 5.158
v 395.385 31.307 4.29
v 395.385 31.307 4.29
v 232.879 30.463 5.158
v 232.844 32.369 6.641
v 395.385 31.307 4.29
v 232.844 32.369 6.641
v 395.41 33.039 5.803
v 395.41 33.039 5.803
v 232.844 32.369 6.641
v 232.825 33.857 8.133
v 395.41 33.039 5.803
v 232.825 33.857 8.133
v 395.406 34.752 7.517
v 395.406 34.752 7.517
v 232.825 33.857 8.133
v 232.851 35.161 10.075
v 395.406 34.752 7.517
v 232.851 35.161 10.075
v 395.374 36.231 9.43
v 395.374 36.231 9.43
v 232.851 35.161 10.075
v 232.845 36.444 12.002
v 395.374 36.231 9.43
v 232.845 36.444 12.002
v 395.412 37.329 11.379
v 395.412 37.329 11.379
v 232.845 36.444 12.002
v 232.867 37.316 14.157
v 395.412 37.329 11.379
v 232.867 37.316 14.157
v 395.379 38.379 13.721
v 395.379 38.379 13.721
v 232.867 37.316 14.157
v 232.849 37.733 16.292
v 395.379 38.379 13.721
v 232.849 37.733 16.292
v 395.41 39.043 16.095
v 395.41 39.043 16.095
v 232.849 37.733 16.292
v 232.854 38.165 18.439
v 395.41 39.043 16.095
v 232.854 38.165 18.439
v 395.389 39.243 18.443
v 395.389 39.243 18.443
v 232.854 38.165 18.439
v 232.833 38.151 20.787
v 395.389 39.243 18.443
v 232.833 38.151 20.787
v 395.369 39.229 20.792
v 395.369 39.229 20.792
v 232.833 38.151 20.787
v 232.838 37.94 22.934
v 395.369 39.229 20.792
v 232.838 37.94 22.934
v 395.402 39.038 23.167
v 395.402 39.038 23.167
v 232.838 37.94 22.934
v 232.847 37.517 25.083
v 395.402 39.038 23.167
v 232.847 37.517 25.083
v 395.384 38.597 25.517
v 395.384 38.597 25.517
v 232.847 37.517 25.083
v 232.849 36.661 27.228
v 395.384 38.597 25.517
v 232.849 36.661 27.228
v 395.372 37.73 27.869
v 395.372 37.73 27.869
v 232.849 36.661 27.228
v 232.872 35.605 29.383
v 395.372 37.73 27.869
v 232.872 35.605 29.383
v 395.402 36.679 30.028
v 395.402 36.679 30.028
v 232.872 35.605 29.383
v 232.827 34.287 31.076
v 395.402 36.679 30.028
v 232.827 34.287 31.076
v 395.362 35.365 31.938
v 395.362 35.365 31.938
v 232.827 34.287 31.076
v 232.848 32.801 32.802
v 395.362 35.365 31.938
v 232.848 32.801 32.802
v 395.371 33.656 33.658
v 395.371 33.656 33.658
v 232.848 32.801 32.802
v 232.844 31.083 34.301
v 395.371 33.656 33.658
v 232.844 31.083 34.301
v 395.37 31.94 35.373
v 395.37 31.94 35.373
v 232.844 31.083 34.301
v 232.854 29.374 35.593
v 395.37 31.94 35.373
v 232.854 29.374 35.593
v 395.378 30.015 36.663
v 395.378 30.015 36.663
v 232.854 29.374 35.593
v 232.861 27.235 36.668
v 395.378 30.015 36.663
v 232.861 27.235 36.668
v 395.374 27.868 37.733
v 395.374 27.868 37.733
v 232.861 27.235 36.668
v 232.834 25.072 37.512
v 395.374 27.868 37.733
v 232.834 25.072 37.512
v 395.356 25.497 38.582
v 395.356 25.497 38.582
v 232.834 25.072 37.512
v 232.828 22.924 37.938
v 395.356 25.497 38.582
v 232.828 22.924 37.938
v 395.408 23.176 39.037
v 395.408 23.176 39.037
v 232.828 22.924 37.938
v 232.827 20.779 38.152
v 395.408 23.176 39.037
v 232.827 20.779 38.152
v 395.381 20.798 39.237
v 395.381 20.798 39.237
v 232.827 20.779 38.152
v 232.828 18.421 38.152
v 395.381 20.798 39.237
v 232.828 18.421 38.152
v 395.373 18.434 39.234
v 395.373 18.434 39.234
v 232.828 18.421 38.152
v 232.872 16.307 37.745
v 395.373 18.434 39.234
v 232.872 16.307 37.745
v 395.402 16.096 39.034
v 395.402 16.096 39.034
v 232.872 16.307 37.745
v 232.874 14.165 37.318
v 395.402 16.096 39.034
v 232.874 14.165 37.318
v 395.375 13.718 38.377
v 395.375 13.718 38.377
v 232.874 14.165 37.318
v 232.872 12.019 36.459
v 395.375 13.718 38.377
v 232.872 12.019 36.459
v 395.404 11.594 37.319
v 395.404 11.594 37.319
v 232.872 12.019 36.459
v 232.867 10.086 35.17
v 395.404 11.594 37.319
v 232.867 10.086 35.17
v 395.379 9.433 36.235
v 395.379 9.433 36.235
v 232.867 10.086 35.17
v 232.853 8.147 33.877
v 395.379 9.433 36.235
v 232.853 8.147 33.877
v 395.378 7.502 34.733
v 395.378 7.502 34.733
v 232.853 8.147 33.877
v 232.872 6.659 32.385
v 395.378 7.502 34.733
v 232.872 6.659 32.385
v 395.373 5.783 33.23
v 395.373 5.783 33.23
v 232.872 6.659 32.385
v 232.874 5.159 30.671
v 395.373 5.783 33.23
v 232.874 5.159 30.671
v 395.383 4.289 31.305
v 395.383 4.289 31.305
v 232.874 5.159 30.671
v 232.883 4.093 28.745
v 395.383 4.289 31.305
v 232.883 4.093 28.745
v 395.353 2.982 29.146
v 395.353 2.982 29.146
v 232.883 4.093 28.745
v 232.88 3.02 26.6
v 395.353 2.982 29.146
v 232.88 3.02 26.6
v 395.39 1.935 27.02
v 395.39 1.935 27.02
v 232.88 3.02 26.6
v 232.883 2.378 24.457
v 395.39 1.935 27.02
v 232.883 2.378 24.457
v 395.388 1.291 24.661
v 395.388 1.291 24.661
v 232.883 2.378 24.457
v 232.831 1.913 22.287
v 395.388 1.291 24.661
v 232.831 1.913 22.287
v 395.379 0.856 22.298
v 507.534 0.438 15.873
v 507.502 -0.013 18.43
v 451.584 0.447 18.452
v 451.584 0.447 18.452
v 507.502 -0.013 18.43
v 507.541 0.014 19.95
v 451.584 0.447 18.452
v 507.541 0.014 19.95
v 451.536 0.198 19.929
v 451.536 0.198 19.929
v 507.541 0.014 19.95
v 507.551 0.235 22.528
v 451.536 0.198 19.929
v 507.551 0.235 22.528
v 395.379 0.856 22.298
v 395.379 0.856 22.298
v 507.551 0.235 22.528
v 507.542 0.658 24.883
v 395.379 0.856 22.298
v 507.542 0.658 24.883
v 395.388 1.291 24.661
v 395.388 1.291 24.661
v 507.542 0.658 24.883
v 507.491 1.266 27.216
v 395.388 1.291 24.661
v 507.491 1.266 27.216
v 395.39 1.935 27.02
v 395.39 1.935 27.02
v 507.491 1.266 27.216
v 507.527 2.363 29.592
v 395.39 1.935 27.02
v 507.527 2.363 29.592
v 395.353 2.982 29.146
v 395.353 2.982 29.146
v 507.527 2.363 29.592
v 507.492 3.625 31.719
v 395.353 2.982 29.146
v 507.492 3.625 31.719
v 395.383 4.289 31.305
v 395.383 4.289 31.305
v 507.492 3.625 31.719
v 507.516 5.357 33.661
v 395.383 4.289 31.305
v 507.516 5.357 33.661
v 395.373 5.783 33.23
v 395.373 5.783 33.23
v 507.516 5.357 33.661
v 507.521 7.075 35.164
v 395.373 5.783 33.23
v 507.521 7.075 35.164
v 395.378 7.502 34.733
v 395.378 7.502 34.733
v 507.521 7.075 35.164
v 507.497 8.989 36.653
v 395.378 7.502 34.733
v 507.497 8.989 36.653
v 395.379 9.433 36.235
v 395.379 9.433 36.235
v 507.497 8.989 36.653
v 507.516 11.146 37.949
v 395.379 9.433 36.235
v 507.516 11.146 37.949
v 395.404 11.594 37.319
v 395.404 11.594 37.319
v 507.516 11.146 37.949
v 507.505 13.497 39.016
v 395.404 11.594 37.319
v 507.505 13.497 39.016
v 395.375 13.718 38.377
v 395.375 13.718 38.377
v 507.505 13.497 39.016
v 507.523 15.868 39.668
v 395.375 13.718 38.377
v 507.523 15.868 39.668
v 395.402 16.096 39.034
v 395.402 16.096 39.034
v 507.523 15.868 39.668
v 507.521 18.44 39.881
v 395.402 16.096 39.034
v 507.521 18.44 39.881
v 395.373 18.434 39.234
v 395.373 18.434 39.234
v 507.521 18.44 39.881
v 507.537 20.81 39.889
v 395.373 18.434 39.234
v 507.537 20.81 39.889
v 395.381 20.798 39.237
v 395.381 20.798 39.237
v 507.537 20.81 39.889
v 507.521 23.372 39.667
v 395.381 20.798 39.237
v 507.521 23.372 39.667
v 395.408 23.176 39.037
v 395.408 23.176 39.037
v 507.521 23.372 39.667
v 507.492 25.709 39.223
v 395.408 23.176 39.037
v 507.492 25.709 39.223
v 395.356 25.497 38.582
v 395.356 25.497 38.582
v 507.492 25.709 39.223
v 507.536 28.099 38.388
v 395.356 25.497 38.582
v 507.536 28.099 38.388
v 395.374 27.868 37.733
v 395.374 27.868 37.733
v 507.536 28.099 38.388
v 507.524 30.235 37.095
v 395.374 27.868 37.733
v 507.524 30.235 37.095
v 395.378 30.015 36.663
v 395.378 30.015 36.663
v 507.524 30.235 37.095
v 507.551 32.398 35.822
v 395.378 30.015 36.663
v 507.551 32.398 35.822
v 395.37 31.94 35.373
v 395.37 31.94 35.373
v 507.551 32.398 35.822
v 507.526 34.095 34.094
v 395.37 31.94 35.373
v 507.526 34.095 34.094
v 395.371 33.656 33.658
v 395.371 33.656 33.658
v 507.526 34.095 34.094
v 507.495 35.789 32.364
v 395.371 33.656 33.658
v 507.495 35.789 32.364
v 395.362 35.365 31.938
v 395.362 35.365 31.938
v 507.495 35.789 32.364
v 507.536 37.104 30.24
v 395.362 35.365 31.938
v 507.536 37.104 30.24
v 395.402 36.679 30.028
v 395.402 36.679 30.028
v 507.536 37.104 30.24
v 507.504 38.369 28.08
v 395.402 36.679 30.028
v 507.504 38.369 28.08
v 395.372 37.73 27.869
v 395.372 37.73 27.869
v 507.504 38.369 28.08
v 507.5 39.223 25.719
v 395.372 37.73 27.869
v 507.5 39.223 25.719
v 395.384 38.597 25.517
v 395.384 38.597 25.517
v 507.5 39.223 25.719
v 507.528 39.671 23.375
v 395.384 38.597 25.517
v 507.528 39.671 23.375
v 395.402 39.038 23.167
v 395.402 39.038 23.167
v 507.528 39.671 23.375
v 507.536 39.892 20.806
v 395.402 39.038 23.167
v 507.536 39.892 20.806
v 395.369 39.229 20.792
v 395.369 39.229 20.792
v 507.536 39.892 20.806
v 507.549 39.901 18.239
v 395.369 39.229 20.792
v 507.549 39.901 18.239
v 395.389 39.243 18.443
v 395.389 39.243 18.443
v 507.549 39.901 18.239
v 507.545 39.683 15.879
v 395.389 39.243 18.443
v 507.545 39.683 15.879
v 395.41 39.043 16.095
v 395.41 39.043 16.095
v 507.545 39.683 15.879
v 507.498 38.793 13.497
v 395.41 39.043 16.095
v 507.498 38.793 13.497
v 395.379 38.379 13.721
v 395.379 38.379 13.721
v 507.498 38.793 13.497
v 507.524 37.953 11.151
v 395.379 38.379 13.721
v 507.524 37.953 11.151
v 395.412 37.329 11.379
v 395.412 37.329 11.379
v 507.524 37.953 11.151
v 507.547 36.683 9.019
v 395.412 37.329 11.379
v 507.547 36.683 9.019
v 395.374 36.231 9.43
v 395.374 36.231 9.43
v 507.547 36.683 9.019
v 507.543 35.179 7.086
v 395.374 36.231 9.43
v 507.543 35.179 7.086
v 395.406 34.752 7.517
v 395.406 34.752 7.517
v 507.543 35.179 7.086
v 507.521 33.449 5.361
v 395.406 34.752 7.517
v 507.521 33.449 5.361
v 395.41 33.039 5.803
v 395.41 33.039 5.803
v 507.521 33.449 5.361
v 507.549 31.539 3.659
v 395.41 33.039 5.803
v 507.549 31.539 3.659
v 395.385 31.307 4.29
v 395.385 31.307 4.29
v 507.549 31.539 3.659
v 507.544 29.605 2.37
v 395.385 31.307 4.29
v 507.544 29.605 2.37
v 395.38 29.159 3.001
v 395.38 29.159 3.001
v 507.544 29.605 2.37
v 507.505 27.22 1.279
v 395.38 29.159 3.001
v 507.505 27.22 1.279
v 395.38 27.015 1.929
v 395.38 27.015 1.929
v 507.505 27.22 1.279
v 507.509 24.863 0.637
v 395.38 27.015 1.929
v 507.509 24.863 0.637
v 395.387 24.661 1.289
v 395.387 24.661 1.289
v 507.509 24.863 0.637
v 507.523 22.515 0.215
v 395.387 24.661 1.289
v 507.523 22.515 0.215
v 395.379 22.297 0.856
v 395.379 22.297 0.856
v 507.523 22.515 0.215
v 507.529 19.946 0.004
v 395.379 22.297 0.856
v 507.529 19.946 0.004
v 395.396 19.951 0.65
v 395.396 19.951 0.65
v 507.529 19.946 0.004
v 507.507 17.572 0.207
v 395.396 19.951 0.65
v 507.507 17.572 0.207
v 395.364 17.569 0.849
v 395.364 17.569 0.849
v 507.507 17.572 0.207
v 507.503 14.996 0.634
v 395.364 17.569 0.849
v 507.503 14.996 0.634
v 395.36 15.208 1.276
v 395.36 15.208 1.276
v 507.503 14.996 0.634
v 507.495 12.632 1.273
v 395.36 15.208 1.276
v 507.495 12.632 1.273
v 395.371 12.857 1.924
v 395.371 12.857 1.924
v 507.495 12.632 1.273
v 507.537 10.518 2.367
v 395.371 12.857 1.924
v 507.537 10.518 2.367
v 395.365 10.709 2.993
v 395.365 10.709 2.993
v 507.537 10.518 2.367
v 507.524 8.364 3.647
v 395.365 10.709 2.993
v 507.524 8.364 3.647
v 395.378 8.788 4.286
v 395.378 8.788 4.286
v 507.524 8.364 3.647
v 507.511 6.426 5.355
v 395.378 8.788 4.286
v 507.511 6.426 5.355
v 395.38 6.86 5.788
v 395.38 6.86 5.788
v 507.511 6.426 5.355
v 507.53 4.724 7.08
v 395.38 6.86 5.788
v 507.53 4.724 7.08
v 395.394 5.155 7.511
v 395.394 5.155 7.511
v 507.53 4.724 7.08
v 507.494 3.197 8.992
v 395.394 5.155 7.511
v 507.494 3.197 8.992
v 395.393 3.867 9.44
v 395.393 3.867 9.44
v 507.494 3.197 8.992
v 507.498 1.914 11.138
v 395.393 3.867 9.44
v 507.498 1.914 11.138
v 395.386 2.576 11.58
v 395.386 2.576 11.58
v 507.498 1.914 11.138
v 507.516 1.068 13.506
v 395.386 2.576 11.58
v 507.516 1.068 13.506
v 395.41 1.735 13.737
v 395.41 1.735 13.737
v 507.516 1.068 13.506
v 507.534 0.438 15.873
v 395.41 1.735 13.737
v 507.534 0.438 15.873
v 395.354 1.053 16.067
v 395.354 1.053 16.067
v 507.534 0.438 15.873
v 451.584 0.447 18.452
v 395.354 1.053 16.067
v 451.584 0.447 18.452
v 395.371 0.636 18.434
v 395.371 0.636 18.434
v 451.584 0.447 18.452
v 451.536 0.198 19.929
v 395.371 0.636 18.434
v 451.536 0.198 19.929
v 395.38 0.642 19.94
v 395.38 0.642 19.94
v 451.536 0.198 19.929
v 395.379 0.856 22.298
v 395.38 0.642 19.94
v 395.379 0.856 22.298
v 232.838 1.704 19.932
v 232.838 1.704 19.932
v 395.379 0.856 22.298
v 232.831 1.913 22.287
v 232.838 1.704 19.932
v 232.831 1.913 22.287
v 124.819 2.594 19.955
v 124.819 2.594 19.955
v 232.831 1.913 22.287
v 124.796 2.577 22.088
v 124.819 2.594 19.955
v 124.796 2.577 22.088
v 73.961 2.564 19.934
v 73.961 2.564 19.934
v 124.796 2.577 22.088
v 22.965 2.803 22.096
v 73.961 2.564 19.934
v 22.965 2.803 22.096
v 22.951 2.579 19.945
v 22.951 2.579 19.945
v 22.965 2.803 22.096
v 0.005 2.576 19.943
v 22.951 2.579 19.945
v 0.005 2.576 19.943
v -0.01 2.566 18.649
v 507.541 0.014 19.95
v 610.027 0.225 22.521
v 507.551 0.235 22.528
v 507.551 0.235 22.528
v 610.027 0.225 22.521
v 609.993 0.63 24.863
v 507.551 0.235 22.528
v 609.993 0.63 24.863
v 507.542 0.658 24.883
v 507.542 0.658 24.883
v 609.993 0.63 24.863
v 610.016 1.29 27.233
v 507.542 0.658 24.883
v 610.016 1.29 27.233
v 507.491 1.266 27.216
v 507.491 1.266 27.216
v 610.016 1.29 27.233
v 610.027 2.369 29.597
v 507.491 1.266 27.216
v 610.027 2.369 29.597
v 507.527 2.363 29.592
v 507.527 2.363 29.592
v 610.027 2.369 29.597
v 610.013 3.646 31.52
v 507.527 2.363 29.592
v 610.013 3.646 31.52
v 507.492 3.625 31.719
v 507.492 3.625 31.719
v 610.013 3.646 31.52
v 610.019 5.366 33.667
v 507.492 3.625 31.719
v 610.019 5.366 33.667
v 507.516 5.357 33.661
v 507.516 5.357 33.661
v 610.019 5.366 33.667
v 610.032 7.09 35.175
v 507.516 5.357 33.661
v 610.032 7.09 35.175
v 507.521 7.075 35.164
v 507.521 7.075 35.164
v 610.032 7.09 35.175
v 609.997 8.995 36.658
v 507.521 7.075 35.164
v 609.997 8.995 36.658
v 507.497 8.989 36.653
v 507.497 8.989 36.653
v 609.997 8.995 36.658
v 610.038 11.168 37.965
v 507.497 8.989 36.653
v 610.038 11.168 37.965
v 507.516 11.146 37.949
v 507.516 11.146 37.949
v 610.038 11.168 37.965
v 610.042 13.529 39.039
v 507.516 11.146 37.949
v 610.042 13.529 39.039
v 507.505 13.497 39.016
v 507.505 13.497 39.016
v 610.042 13.529 39.039
v 610.007 15.864 39.665
v 507.505 13.497 39.016
v 610.007 15.864 39.665
v 507.523 15.868 39.668
v 507.523 15.868 39.668
v 610.007 15.864 39.665
v 610.028 18.451 39.889
v 507.523 15.868 39.668
v 610.028 18.451 39.889
v 507.521 18.44 39.881
v 507.521 18.44 39.881
v 610.028 18.451 39.889
v 610.012 20.799 39.881
v 507.521 18.44 39.881
v 610.012 20.799 39.881
v 507.537 20.81 39.889
v 507.537 20.81 39.889
v 610.012 20.799 39.881
v 610.025 23.381 39.673
v 507.537 20.81 39.889
v 610.025 23.381 39.673
v 507.521 23.372 39.667
v 507.521 23.372 39.667
v 610.025 23.381 39.673
v 610.039 25.749 39.252
v 507.521 23.372 39.667
v 610.039 25.749 39.252
v 507.492 25.709 39.223
v 507.492 25.709 39.223
v 610.039 25.749 39.252
v 610.026 28.099 38.388
v 507.492 25.709 39.223
v 610.026 28.099 38.388
v 507.536 28.099 38.388
v 507.536 28.099 38.388
v 610.026 28.099 38.388
v 610.014 30.234 37.095
v 507.536 28.099 38.388
v 610.014 30.234 37.095
v 507.524 30.235 37.095
v 507.524 30.235 37.095
v 610.014 30.234 37.095
v 610.018 32.381 35.811
v 507.524 30.235 37.095
v 610.018 32.381 35.811
v 507.551 32.398 35.822
v 507.551 32.398 35.822
v 610.018 32.381 35.811
v 610.028 34.104 34.1
v 507.551 32.398 35.822
v 610.028 34.104 34.1
v 507.526 34.095 34.094
v 507.526 34.095 34.094
v 610.028 34.104 34.1
v 610.023 35.815 32.382
v 507.526 34.095 34.094
v 610.023 35.815 32.382
v 507.495 35.789 32.364
v 507.495 35.789 32.364
v 610.023 35.815 32.382
v 609.982 37.073 30.218
v 507.495 35.789 32.364
v 609.982 37.073 30.218
v 507.536 37.104 30.24
v 507.536 37.104 30.24
v 609.982 37.073 30.218
v 609.997 38.37 28.081
v 507.536 37.104 30.24
v 609.997 38.37 28.081
v 507.504 38.369 28.08
v 507.504 38.369 28.08
v 609.997 38.37 28.081
v 609.982 39.218 25.715
v 507.504 38.369 28.08
v 609.982 39.218 25.715
v 507.5 39.223 25.719
v 507.5 39.223 25.719
v 609.982 39.218 25.715
v 610.018 39.672 23.375
v 507.5 39.223 25.719
v 610.018 39.672 23.375
v 507.528 39.671 23.375
v 507.528 39.671 23.375
v 610.018 39.672 23.375
v 610.017 39.885 20.801
v 507.528 39.671 23.375
v 610.017 39.885 20.801
v 507.536 39.892 20.806
v 507.536 39.892 20.806
v 610.017 39.885 20.801
v 610.002 39.875 18.435
v 507.536 39.892 20.806
v 610.002 39.875 18.435
v 507.549 39.901 18.239
v 507.549 39.901 18.239
v 610.002 39.875 18.435
v 610.012 39.667 15.867
v 507.549 39.901 18.239
v 610.012 39.667 15.867
v 507.545 39.683 15.879
v 507.545 39.683 15.879
v 610.012 39.667 15.867
v 610.003 38.803 13.504
v 507.545 39.683 15.879
v 610.003 38.803 13.504
v 507.498 38.793 13.497
v 507.498 38.793 13.497
v 610.003 38.803 13.504
v 610.035 37.968 11.161
v 507.498 38.793 13.497
v 610.035 37.968 11.161
v 507.524 37.953 11.151
v 507.524 37.953 11.151
v 610.035 37.968 11.161
v 609.999 36.656 8.999
v 507.524 37.953 11.151
v 609.999 36.656 8.999
v 507.547 36.683 9.019
v 507.547 36.683 9.019
v 609.999 36.656 8.999
v 610.017 35.168 7.079
v 507.547 36.683 9.019
v 610.017 35.168 7.079
v 507.543 35.179 7.086
v 507.543 35.179 7.086
v 610.017 35.168 7.079
v 610.029 33.461 5.369
v 507.543 35.179 7.086
v 610.029 33.461 5.369
v 507.521 33.449 5.361
v 507.521 33.449 5.361
v 610.029 33.461 5.369
v 609.985 31.5 3.632
v 507.521 33.449 5.361
v 609.985 31.5 3.632
v 507.549 31.539 3.659
v 507.549 31.539 3.659
v 609.985 31.5 3.632
v 610.008 29.587 2.357
v 507.549 31.539 3.659
v 610.008 29.587 2.357
v 507.544 29.605 2.37
v 507.544 29.605 2.37
v 610.008 29.587 2.357
v 610.039 27.25 1.3
v 507.544 29.605 2.37
v 610.039 27.25 1.3
v 507.505 27.22 1.279
v 507.505 27.22 1.279
v 610.039 27.25 1.3
v 609.981 24.851 0.628
v 507.505 27.22 1.279
v 609.981 24.851 0.628
v 507.509 24.863 0.637
v 507.509 24.863 0.637
v 609.981 24.851 0.628
v 609.999 22.505 0.208
v 507.509 24.863 0.637
v 609.999 22.505 0.208
v 507.523 22.515 0.215
v 507.523 22.515 0.215
v 609.999 22.505 0.208
v 609.992 19.927 -0.01
v 507.523 22.515 0.215
v 609.992 19.927 -0.01
v 507.529 19.946 0.004
v 507.529 19.946 0.004
v 609.992 19.927 -0.01
v 609.989 17.566 0.203
v 507.529 19.946 0.004
v 609.989 17.566 0.203
v 507.507 17.572 0.207
v 507.507 17.572 0.207
v 609.989 17.566 0.203
v 610.012 15.01 0.644
v 507.507 17.572 0.207
v 610.012 15.01 0.644
v 507.503 14.996 0.634
v 507.503 14.996 0.634
v 610.012 15.01 0.644
v 609.986 12.633 1.274
v 507.503 14.996 0.634
v 609.986 12.633 1.274
v 507.495 12.632 1.273
v 507.495 12.632 1.273
v 609.986 12.633 1.274
v 610.004 10.501 2.355
v 507.495 12.632 1.273
v 610.004 10.501 2.355
v 507.537 10.518 2.367
v 507.537 10.518 2.367
v 610.004 10.501 2.355
v 610.032 8.377 3.655
v 507.537 10.518 2.367
v 610.032 8.377 3.655
v 507.524 8.364 3.647
v 507.524 8.364 3.647
v 610.032 8.377 3.655
v 610.026 6.443 5.368
v 507.524 8.364 3.647
v 610.026 6.443 5.368
v 507.511 6.426 5.355
v 507.511 6.426 5.355
v 610.026 6.443 5.368
v 610.011 4.717 7.075
v 507.511 6.426 5.355
v 610.011 4.717 7.075
v 507.53 4.724 7.08
v 507.53 4.724 7.08
v 610.011 4.717 7.075
v 609.995 3.205 8.997
v 507.53 4.724 7.08
v 609.995 3.205 8.997
v 507.494 3.197 8.992
v 507.494 3.197 8.992
v 609.995 3.205 8.997
v 609.984 1.91 11.136
v 507.494 3.197 8.992
v 609.984 1.91 11.136
v 507.498 1.914 11.138
v 507.498 1.914 11.138
v 609.984 1.91 11.136
v 610.012 1.073 13.509
v 507.498 1.914 11.138
v 610.012 1.073 13.509
v 507.516 1.068 13.506
v 507.516 1.068 13.506
v 610.012 1.073 13.509
v 609.986 0.411 15.854
v 507.516 1.068 13.506
v 609.986 0.411 15.854
v 507.534 0.438 15.873
v 507.534 0.438 15.873
v 609.986 0.411 15.854
v 610.005 -0.005 18.436
v 507.534 0.438 15.873
v 610.005 -0.005 18.436
v 507.502 -0.013 18.43
v 507.502 -0.013 18.43
v 610.005 -0.005 18.436
v 610.007 -0.003 19.938
v 507.502 -0.013 18.43
v 610.007 -0.003 19.938
v 507.541 0.014 19.95
v 507.541 0.014 19.95
v 610.007 -0.003 19.938
v 610.027 0.225 22.521
f 1 2 3
f 4 5 6
f 7 8 9
f 10 11 12
f 13 14 15
f 16 17 18
f 19 20 21
f 22 23 24
f 25 26 27
f 28 29 30
f 31 32 33
f 34 35 36
f 37 38 39
f 40 41 42
f 43 44 45
f 46 47 48
f 49 50 51
f 52 53 54
f 55 56 57
f 58 59 60
f 61 62 63
f 64 65 66
f 67 68 69
f 70 71 72
f 73 74 75
f 76 77 78
f 79 80 81
f 82 83 84
f 85 86 87
f 88 89 90
f 91 92 93
f 94 95 96
f 97 98 99
f 100 101 102
f 103 104 105
f 106 107 108
f 109 110 111
f 112 113 114
f 115 116 117
f 118 119 120
f 121 122 123
f 124 125 126
f 127 128 129
f 130 131 132
f 133 134 135
f 136 137 138
f 139 140 141
f 142 143 144
f 145 146 147
f 148 149 150
f 151 152 153
f 154 155 156
f 157 158 159
f 160 161 162
f 163 164 165
f 166 167 168
f 169 170 171
f 172 173 174
f 175 176 177
f 178 179 180
f 181 182 183
f 184 185 186
f 187 188 189
f 190 191 192
f 193 194 195
f 196 197 198
f 199 200 201
f 202 203 204
f 205 206 207
f 208 209 210
f 211 212 213
f 214 215 216
f 217 218 219
f 220 221 222
f 223 224 225
f 226 227 228
f 229 230 231
f 232 233 234
f 235 236 237
f 238 239 240
f 241 242 243
f 244 245 246
f 247 248 249
f 250 251 252
f 253 254 255
f 256 257 258
f 259 260 261
f 262 263 264
f 265 266 267
f 268 269 270
f 271 272 273
f 274 275 276
f 277 278 279
f 280 281 282
f 283 284 285
f 286 287 288
f 289 290 291
f 292 293 294
f 295 296 297
f 298 299 300
f 301 302 303
f 304 305 306
f 307 308 309
f 310 311 312
f 313 314 315
f 316 317 318
f 319 320 321
f 322 323 324
f 325 326 327
f 328 329 330
f 331 332 333
f 334 335 336
f 337 338 339
f 340 341 342
f 343 344 345
f 346 347 348
f 349 350 351
f 352 353 354
f 355 356 357
f 358 359 360
f 361 362 363
f 364 365 366
f 367 368 369
f 370 371 372
f 373 374 375
f 376 377 378
f 379 380 381
f 382 383 384
f 385 386 387
f 388 389 390
f 391 392 393
f 394 395 396
f 397 398 399
f 400 401 402
f 403 404 405
f 406 407 408
f 409 410 411
f 412 413 414
f 415 416 417
f 418 419 420
f 421 422 423
f 424 425 426
f 427 428 429
f 430 431 432
f 433 434 435
f 436 437 438
f 439 440 441
f 442 443 444
f 445 446 447
f 448 449 450
f 451 452 453
f 454 455 456
f 457 458 459
f 460 461 462
f 463 464 465
f 466 467 468
f 469 470 471
f 472 473 474
f 475 476 477
f 478 479 480
f 481 482 483
f 484 485 486
f 487 488 489
f 490 491 492
f 493 494 495
f 496 497 498
f 499 500 501
f 502 503 504
f 505 506 507
f 508 509 510
f 511 512 513
f 514 515 516
f 517 518 519
f 520 521 522
f 523 524 525
f 526 527 528
f 529 530 531
f 532 533 534
f 535 536 537
f 538 539 540
f 541 542 543
f 544 545 546
f 547 548 549
f 550 551 552
f 553 554 555
f 556 557 558
f 559 560 561
f 562 563 564
f 565 566 567
f 568 569 570
f 571 572 573
f 574 575 576
f 577 578 579
f 580 581 582
f 583 584 585
f 586 587 588
f 589 590 591
f 592 593 594
f 595 596 597
f 598 599 600
f 601 602 603
f 604 605 606
f 607 608 609
f 610 611 612
f 613 614 615
f 616 617 618
f 619 620 621
f 622 623 624
f 625 626 627
f 628 629 630
f 631 632 633
f 634 635 636
f 637 638 639
f 640 641 642
f 643 644 645
f 646 647 648
f 649 650 651
f 652 653 654
f 655 656 657
f 658 659 660
f 661 662 663
f 664 665 666
f 667 668 669
f 670 671 672
f 673 674 675
f 676 677 678
f 679 680 681
f 682 683 684
f 685 686 687
f 688 689 690
f 691 692 693
f 694 695 696
f 697 698 699
f 700 701 702
f 703 704 705
f 706 707 708
f 709 710 711
f 712 713 714
f 715 716 717
f 718 719 720
f 721 722 723
f 724 725 726
f 727 728 729
f 730 731 732
f 733 734 735
f 736 737 738
f 739 740 741
f 742 743 744
f 745 746 747
f 748 749 750
f 751 752 753
f 754 755 756
f 757 758 759
f 760 761 762
f 763 764 765
f 766 767 768
f 769 770 771
f 772 773 774
f 775 776 777
f 778 779 780
f 781 782 783
f 784 785 786
f 787 788 789
f 790 791 792
f 793 794 795
f 796 797 798
f 799 800 801
f 802 803 804
f 805 806 807
f 808 809 810
f 811 812 813
f 814 815 816
f 817 818 819
f 820 821 822
f 823 824 825
f 826 827 828
f 829 830 831
f 832 833 834
f 835 836 837
f 838 839 840
f 841 842 843
f 844 845 846
f 847 848 849
f 850 851 852
f 853 854 855
f 856 857 858
f 859 860 861
f 862 863 864
f 865 866 867
f 868 869 870
f 871 872 873
f 874 875 876
f 877 878 879
f 880 881 882
f 883 884 885
f 886 887 888
f 889 890 891
f 892 893 894
f 895 896 897
f 898 899 900
f 901 902 903
f 904 905 906
f 907 908 909
f 910 911 912
f 913 914 915
f 916 917 918
f 919 920 921
f 922 923 924
f 925 926 927
f 928 929 930
f 931 932 933
f 934 935 936
f 937 938 939
f 940 941 942
f 943 944 945
f 946 947 948
f 949 950 951
f 952 953 954
f 955 956 957
f 958 959 960
f 961 962 963
f 964 965 966
f 967 968 969
f 970 971 972
f 973 974 975
f 976 977 978
f 979 980 981
f 982 983 984
f 985 986 987
f 988 989 990
f 991 992 993
f 994 995 996
f 997 998 999
f 1000 1001 1002
f 1003 1004 1005
f 1006 1007 1008
f 1009 1010 1011
f 1012 1013 1014
f 1015 1016 1017
f 1018 1019 1020
f 1021 1022 1023
f 1024 1025 1026
f 1027 1028 1029
f 1030 1031 1032
f 1033 1034 1035
f 1036 1037 1038
f 1039 1040 1041
f 1042 1043 1044
f 1045 1046 1047
f 1048 1049 1050
f 1051 1052 1053
f 1054 1055 1056
f 1057 1058 1059
f 1060 1061 1062
f 1063 1064 1065
f 1066 1067 1068
f 1069 1070 1071
f 1072 1073 1074
f 1075 1076 1077
f 1078 1079 1080
f 1081 1082 1083
f 1084 1085 1086
f 1087 1088 1089
f 1090 1091 1092
f 1093 1094 1095
f 1096 1097 1098
f 1099 1100 1101
f 1102 1103 1104
f 1105 1106 1107
f 1108 1109 1110
f 1111 1112 1113
f 1114 1115 1116
f 1117 1118 1119
f 1120 1121 1122
f 1123 1124 1125
f 1126 1127 1128
f 1129 1130 1131
f 1132 1133 1134
f 1135 1136 1137
f 1138 1139 1140
f 1141 1142 1143
f 1144 1145 1146
f 1147 1148 1149
f 1150 1151 1152
f 1153 1154 1155
f 1156 1157 1158
f 1159 1160 1161
f 1162 1163 1164
f 1165 1166 1167
f 1168 1169 1170
f 1171 1172 1173
f 1174 1175 1176
f 1177 1178 1179
f 1180 1181 1182
f 1183 1184 1185
f 1186 1187 1188
f 1189 1190 1191
f 1192 1193 1194
f 1195 1196 1197
f 1198 1199 1200
f 1201 1202 1203
f 1204 1205 1206
f 1207 1208 1209
f 1210 1211 1212
f 1213 1214 1215
f 1216 1217 1218
f 1219 1220 1221
f 1222 1223 1224
f 1225 1226 1227
f 1228 1229 1230
f 1231 1232 1233
f 1234 1235 1236
f 1237 1238 1239
f 1240 1241 1242
f 1243 1244 1245
f 1246 1247 1248
f 1249 1250 1251
f 1252 1253 1254
f 1255 1256 1257
f 1258 1259 1260
f 1261 1262 1263
f 1264 1265 1266
f 1267 1268 1269
f 1270 1271 1272
f 1273 1274 1275
f 1276 1277 1278
f 1279 1280 1281
f 1282 1283 1284
f 1285 1286 1287
f 1288 1289 1290
f 1291 1292 1293
f 1294 1295 1296
f 1297 1298 1299
f 1300 1301 1302
f 1303 1304 1305
f 1306 1307 1308
f 1309 1310 1311
f 1312 1313 1314
f 1315 1316 1317
f 1318 1319 1320
f 1321 1322 1323
f 1324 1325 1326
f 1327 1328 1329
f 1330 1331 1332
f 1333 1334 1335
f 1336 1337 1338
f 1339 1340 1341
f 1342 1343 1344
f 1345 1346 1347
f 1348 1349 1350
f 1351 1352 1353
f 1354 1355 1356
f 1357 1358 1359
f 1360 1361 1362
f 1363 1364 1365
f 1366 1367 1368
f 1369 1370 1371
f 1372 1373 1374
f 1375 1376 1377
f 1378 1379 1380
f 1381 1382 1383
f 1384 1385 1386
f 1387 1388 1389
f 1390 1391 1392
f 1393 1394 1395
f 1396 1397 1398
f 1399 1400 1401
f 1402 1403 1404
f 1405 1406 1407
f 1408 1409 1410
f 1411 1412 1413
f 1414 1415 1416
f 1417 1418 1419
f 1420 1421 1422
f 1423 1424 1425
f 1426 1427 1428
f 1429 1430 1431
f 1432 1433 1434
f 1435 1436 1437
f 1438 1439 1440
f 1441 1442 1443
f 1444 1445 1446
f 1447 1448 1449
f 1450 1451 1452
f 1453 1454 1455
f 1456 1457 1458
f 1459 1460 1461
f 1462 1463 1464
f 1465 1466 1467
f 1468 1469 1470
f 1471 1472 1473
f 1474 1475 1476
f 1477 1478 1479
f 1480 1481 1482
f 1483 1484 1485
f 1486 1487 1488
f 1489 1490 1491
f 1492 1493 1494
f 1495 1496 1497
f 1498 1499 1500
f 1501 1502 1503
f 1504 1505 1506
f 1507 1508 1509
f 1510 1511 1512
f 1513 1514 1515
f 1516 1517 1518
f 1519 1520 1521
f 1522 1523 1524
f 1525 1526 1527
f 1528 1529 1530
f 1531 1532 1533
f 1534 1535 1536
f 1537 1538 1539
f 1540 1541 1542
f 1543 1544 1545
f 1546 1547 1548
f 1549 1550 1551
f 1552 1553 1554
f 1555 1556 1557
f 1558 1559 1560
f 1561 1562 1563
f 1564 1565 1566
f 1567 1568 1569
f 1570 1571 1572
f 1573 1574 1575
f 1576 1577 1578
f 1579 1580 1581
f 1582 1583 1584
f 1585 1586 1587
f 1588 1589 1590
f 1591 1592 1593
f 1594 1595 1596
f 1597 1598 1599
f 1600 1601 1602
f 1603 1604 1605
f 1606 1607 1608
f 1609 1610 1611
f 1612 1613 1614
f 1615 1616 1617
f 1618 1619 1620
f 1621 1622 1623
f 1624 1625 1626
f 1627 1628 1629
f 1630 1631 1632
f 1633 1634 1635
f 1636 1637 1638
f 1639 1640 1641
f 1642 1643 1644
f 1645 1646 1647
f 1648 1649 1650
f 1651 1652 1653
f 1654 1655 1656
f 1657 1658 1659
f 1660 1661 1662
f 1663 1664 1665
f 1666 1667 1668
f 1669 1670 1671
f 1672 1673 1674
f 1675 1676 1677
f 1678 1679 1680
f 1681 1682 1683
f 1684 1685 1686
f 1687 1688 1689
f 1690 1691 1692
f 1693 1694 1695
f 1696 1697 1698
f 1699 1700 1701
f 1702 1703 1704
f 1705 1706 1707
f 1708 1709 1710
f 1711 1712 1713
f 1714 1715 1716
f 1717 1718 1719
f 1720 1721 1722
f 1723 1724 1725
f 1726 1727 1728
f 1729 1730 1731
f 1732 1733 1734
f 1735 1736 1737
f 1738 1739 1740
f 1741 1742 1743
f 1744 1745 1746
f 1747 1748 1749
f 1750 1751 1752
f 1753 1754 1755
f 1756 1757 1758
f 1759 1760 1761
f 1762 1763 1764
f 1765 1766 1767
f 1768 1769 1770
f 1771 1772 1773
f 1774 1775 1776
f 1777 1778 1779
f 1780 1781 1782
f 1783 1784 1785
f 1786 1787 1788
f 1789 1790 1791
f 1792 1793 1794
f 1795 1796 1797
f 1798 1799 1800
f 1801 1802 1803
f 1804 1805 1806
f 1807 1808 1809
f 1810 1811 1812
f 1813 1814 1815
f 1816 1817 1818
f 1819 1820 1821
f 1822 1823 1824
f 1825 1826 1827
f 1828 1829 1830
f 1831 1832 1833
f 1834 1835 1836
f 1837 1838 1839
f 1840 1841 1842
f 1843 1844 1845
f 1846 1847 1848
f 1849 1850 1851
f 1852 1853 1854
f 1855 1856 1857
f 1858 1859 1860
